<ttFont>
          <CharString index="0">
            265 hlineto
            -4 35 0 37 -29 callgsubr
            56 3 33 vhcurveto
            -263 -65 callsubr
            -51 -38 vvcurveto
            -42 -3 -43 -5 -41 vhcurveto
            return
          </CharString>
          <CharString index="1">
            -100 callsubr
            -430 hmoveto
            -98 callsubr
          </CharString>
          <CharString index="2">
            -11 hmoveto
            79 hlineto
            53 76 -2 -6 72 hvcurveto
            94 296 rlineto
            452 hlineto
            94 -288 rlineto
            132 hlineto
            12 101 -1 -2 54 hvcurveto
            -444 1221 rlineto
            -24 65 -6 26 13 vvcurveto
            3 1 3 1 2 vhcurveto
            -1 2 rlineto
            -1 -55 -51 -1 -38 hhcurveto
            -39 -42 1 2 -57 hvcurveto
            -1 -2 rlineto
            1 -3 0 -3 -2 vvcurveto
            -15 -6 -25 -23 -64 vhcurveto
            15 -691 rmoveto
            147 465 151 -465 rlineto
            return
          </CharString>
          <CharString index="3">
            74 88 rmoveto
            -74 103 147 -29 175 hhcurveto
            289 153 140 182 158 -80 129 -255 38 hvcurveto
            -221 32 -39 43 43 vvcurveto
            68 50 42 132 114 113 -42 -62 53 vhcurveto
            -2 9 -7 -5 vvcurveto
            -4 3 1 -3 2 hhcurveto
            1 1 1 7 2 hvcurveto
            31 81 22 53 19 70 rrcurveto
            70 -87 -125 48 -143 hhcurveto
            -278 -171 -123 -210 -160 101 -125 281 -38 hvcurveto
            173 -25 43 -30 -47 vvcurveto
            -54 -30 -61 -143 -175 -174 64 74 -61 vhcurveto
            -9 9 0 -1 -16 vvcurveto
            -2 -17 -19 -137 -6 -80 rrcurveto
            return
          </CharString>
          <CharString index="4">
            163 488 rmoveto
            -359 250 -154 288 273 230 197 339 vhcurveto
            827 vlineto
            -5 -31 -29 -3 -50 hhcurveto
            -57 -41 1 4 -66 hvcurveto
            -810 vlineto
            -231 -111 -79 -121 -135 -122 84 176 vhcurveto
            863 vlineto
            -5 -33 -40 -3 -88 hhcurveto
            -19 -32 1 4 -66 hvcurveto
            return
          </CharString>
          <CharString index="5">
            rmoveto
            286 97 215 167 -35 hvcurveto
            -3 3 -133 -3 rlineto
            -61 -7 -27 -140 -178 hhcurveto
            -178 -27 140 61 -7 hvcurveto
            -133 3 -3 -3 rlineto
            -167 -35 97 -215 286 hhcurveto
            endchar
          </CharString>
          <CharString index="6">
            128 92 rmoveto
            -77 111 205 -40 126 hhcurveto
            256 268 125 316 219 -125 128 -318 41 hvcurveto
            -228 31 -39 60 91 vvcurveto
            78 81 51 117 158 146 -58 -97 63 vhcurveto
            7 2 19 294 rlineto
            59 -97 -112 40 -175 hhcurveto
            -282 -179 -165 -235 -208 100 -164 352 -33 hvcurveto
            193 -18 63 -49 -91 vvcurveto
            -125 -129 -52 -159 -205 -133 93 121 -69 vhcurveto
            -4 -3 rlineto
            return
          </CharString>
          <CharString index="7">
            rmoveto
            -107 callsubr
            return
          </CharString>
          <CharString index="8">
            73 630 rmoveto
            -366 245 -289 415 298 218 172 182 vhcurveto
            310 vlineto
            112 6 27 13 24 vhcurveto
            -3 2 rlineto
            -9 -38 -78 -6 -64 hhcurveto
            -118 hlineto
            -64 -145 4 4 -18 hvcurveto
            9 -261 3 -1 rlineto
            12 6 12 6 95 hhcurveto
            129 -166 hlineto
            -100 -114 -62 -150 -218 -154 160 248 281 169 191 265 147 158 -53 -84 47 vhcurveto
            8 2 16 295 rlineto
            57 -86 -114 33 -169 hhcurveto
            -493 -233 -357 -368 hvcurveto
            return
          </CharString>
          <CharString index="9">
            -107 callsubr
            endchar
          </CharString>
          <CharString index="10">
            451 hmoveto
            300 hlineto
            -11 52 -1 63 43 vvcurveto
            287 vlineto
            71 181 147 290 79 165 46 102 78 116 41 31 rrcurveto
            -330 hlineto
            -44 -98 -148 -304 -69 -168 -74 157 -154 333 -44 80 rrcurveto
            -345 hlineto
            58 -45 32 -69 74 -122 102 -170 122 -281 83 -183 rrcurveto
            -278 vlineto
            -113 -4 -45 -9 -24 vhcurveto
            return
          </CharString>
          <CharString index="11">
            675 hlineto
            -3 35 -1 7 -29 callgsubr
            16 3 33 vhcurveto
            -673 -65 callsubr
            -31 -38 vvcurveto
            -22 -3 -13 -5 -41 vhcurveto
            endchar
          </CharString>
          <CharString index="12">
            85 506 rmoveto
            -320 222 -201 306 145 128 34 78 78 vhcurveto
            -23 244 -7 3 rlineto
            -69 -38 -120 -65 -132 hhcurveto
            -202 -92 139 191 173 100 122 165 145 87 -28 -78 65 hvcurveto
            7 -1 40 256 rlineto
            58 -90 -92 23 -128 hhcurveto
            -360 -204 -250 -309 hvcurveto
            return
          </CharString>
          <CharString index="13">
            46 hintmask 10100101
            -84 callsubr
            hintmask 01100101
            -80 callsubr
            hintmask 10100101
            -88 callgsubr
            hintmask 01010101
            -89 callsubr
            hintmask 00001010
            return
          </CharString>
          <CharString index="14">
            144 30 -107 156 hhcurveto
            76 63 29 40 23 hvcurveto
            10 216 -2 2 rlineto
            -59 -27 -55 -25 -74 hhcurveto
            return
          </CharString>
          <CharString index="15">
            292 hlineto
            -5 39 0 40 47 vvcurveto
            40 2 62 3 36 vhcurveto
            -290 hlineto
            4 -27 3 -56 -42 vvcurveto
            -46 -3 -48 -6 -45 vhcurveto
            return
          </CharString>
          <CharString index="16">
            56 -342 rmoveto
            -5 -6 258 -90 96 77 190 268 346 898 rlinecurve
            41 106 42 86 34 48 rrcurveto
            -288 hlineto
            -223 -604 -240 604 rlineto
            -280 hlineto
            383 -872 -46 -111 -103 -251 -140 -107 -65 -46 rlinecurve
            return
          </CharString>
          <CharString index="17">
            321 hmoveto
            257 hlineto
            184 685 198 -685 rlineto
            259 hlineto
            308 1045 rlineto
            -242 hlineto
            -186 -767 -207 767 rlineto
            -230 hlineto
            -200 -751 -186 751 rlineto
            -269 hlineto
            return
          </CharString>
          <CharString index="18">
            -55 -52 1 3 -30 hvcurveto
            5 -11 6 -19 4 -25 rrcurveto
            7 -49 -1 -129 -431 vvcurveto
            return
          </CharString>
          <CharString index="19">
            203 hmoveto
            277 hlineto
            1 1338 rlineto
            -5 -21 -51 -3 -44 hhcurveto
            -57 -39 1 3 -66 hvcurveto
            return
          </CharString>
          <CharString index="20">
            -153 -17 109 -164 hhcurveto
            -90 -59 -37 -43 -36 hvcurveto
            4 -199 rlineto
            endchar
          </CharString>
          <CharString index="21">
            2 22 94 4 79 hhcurveto
            95 hlineto
            164 90 -2 -5 75 hvcurveto
            11 7 242 0 vhcurveto
            -3 -23 -81 -3 -40 hhcurveto
            -207 1094 hlineto
            -3 -66 -36 -1 -28 hhcurveto
            -62 -72 3 3 -11 hvcurveto
            return
          </CharString>
          <CharString index="22">
            -5 -20 -38 -44 callgsubr
            return
          </CharString>
          <CharString index="23">
            152 385 rmoveto
            -243 123 -157 219 103 83 29 77 93 vhcurveto
            return
          </CharString>
          <CharString index="24">
            1 callsubr
            63 23 30 18 rrcurveto
            return
          </CharString>
          <CharString index="25">
            373 hmoveto
            32 hlineto
            140 86 -4 -2 21 hvcurveto
            1112 150 vlineto
            120 34 -4 -7 24 hvcurveto
            3 3 rlineto
            256 vlineto
            -3 1 rlineto
            -19 -24 -17 -6 -88 hhcurveto
            -627 hlineto
            -120 -34 4 7 -24 hvcurveto
            return
          </CharString>
          <CharString index="26">
            214 361 rmoveto
            -275 131 -101 206 80 122 26 44 46 vhcurveto
            -3 232 rlineto
            -8 hlineto
            -43 -30 -68 -24 -79 hhcurveto
            -99 -53 32 155 hvcurveto
            return
          </CharString>
          <CharString index="27">
            -91 256 vlineto
            -6 33 -2 36 59 vvcurveto
            917 -248 -739 vlineto
            return
          </CharString>
          <CharString index="28">
            32 32 -2 -5 33 hvcurveto
            5 5 -24 19 -25 44 -43 95 rlinecurve
            -204 430 rlineto
            141 76 78 131 143 vvcurveto
            284 -182 135 -369 -110 -152 -6 -12 -82 vhcurveto
            return
          </CharString>
          <CharString index="29">
            -77 callgsubr
            933 -250 vlineto
            return
          </CharString>
          <CharString index="30">
            rmoveto
            142 83 89 43 133 210 154 -265 246 hhcurveto
            121 154 41 118 63 hvcurveto
            -19 273 -6 3 rlineto
            -146 -50 -100 -59 -133 -177 -223 271 -212 hhcurveto
            -122 -130 -29 -113 -95 hvcurveto
            8 -276 rlineto
            return
          </CharString>
          <CharString index="31">
            -17 88 142 -9 83 hhcurveto
            414 324 206 498 414 -259 262 -497 -84 -122 -5 -11 -89 hvcurveto
            return
          </CharString>
          <CharString index="32">
            209 -198 -21 504 180 192 214 return
          </CharString>
          <CharString index="33">
            208 130 97 153 86 -54 78 -81 42 hvcurveto
            62 45 29 60 69 vvcurveto
            113 -112 74 -164 -92 -93 -19 -33 -49 vhcurveto
            7 -190 2 -3 rlineto
            25 42 64 17 57 hhcurveto
            53 42 -23 -37 -27 -22 -22 -30 -12 hvcurveto
            -1 hlineto
            -33 -40 -6 -9 -18 hvcurveto
            -5 -155 3 -5 rlineto
            2 2 48 11 41 hhcurveto
            78 33 -40 -29 -29 -21 -34 -93 -100 -122 37 42 -44 hvcurveto
            -5 -6 rlineto
            endchar
          </CharString>
          <CharString index="34">
            -44 callsubr
            -23 callsubr
            return
          </CharString>
          <CharString index="35">
            172 hmoveto
            265 520 hlineto
            -3 36 40 -2 26 hhcurveto
            21 22 1 1 20 hvcurveto
            232 -525 rlineto
            6 83 74 2 51 hhcurveto
            return
          </CharString>
          <CharString index="36">
            4 39 42 1 43 hhcurveto
            return
          </CharString>
          <CharString index="37">
            273 hintmask 01101010
            191 1 rmoveto
            hintmask 10101010
            -76 callsubr
            hintmask 01101010
            260 -1120 rmoveto
            891 vlineto
            1 21 20 0 17 hhcurveto
            302 158 -139 -328 hvcurveto
            hintmask 10101010
            -303 -179 -134 -230 -33 -40 5 7 -36 vhcurveto
            hintmask 00010100
            return
          </CharString>
          <CharString index="38">
            77 -15 -62 callsubr
            return
          </CharString>
          <CharString index="39">
            rmoveto
            6 98 84 2 46 hhcurveto
            118 130 -3 -6 82 hvcurveto
            99 224 -5 2 rlineto
            -14 -19 -24 -3 -48 hhcurveto
            -156 hlineto
            96 163 44 133 82 vvcurveto
            136 -127 79 -152 -78 -94 -17 -23 -36 vhcurveto
            -5 -229 7 1 rlineto
            36 39 74 20 45 hhcurveto
            30 27 -37 -38 -48 -62 -126 -122 -195 hvcurveto
            endchar
          </CharString>
          <CharString index="40">
            152 393 rmoveto
            -278 216 -130 235 280 232 211 346 320 -217 203 -248 -79 -95 -17 -41 -79 vhcurveto
            481 -3 callgsubr
            245 -1092 rmoveto
            358 vlineto
            49 61 88 32 58 hhcurveto
            145 121 -79 -203 -194 -114 -139 -140 -119 -100 37 139 hvcurveto
            return
          </CharString>
          <CharString index="41">
            -112 -97 -25 -121 -58 vvcurveto
            -234 197 -45 -49 callgsubr
            31 44 127 93 55 hvcurveto
            return
          </CharString>
          <CharString index="42">
            hlineto
            3 -25 3 return
          </CharString>
          <CharString index="43">
            -62 -93 -50 -37 11 27 -40 vhcurveto
            -2 -5 104 -263 rlineto
            264 152 121 401 hvcurveto
            908 return
          </CharString>
          <CharString index="44">
            153 hmoveto
            255 366 hlineto
            -2 21 20 -1 16 hhcurveto
            293 235 170 313 337 -194 172 -361 -81 -122 -6 -12 -82 hvcurveto
            255 -751 rmoveto
            526 vlineto
            1 20 20 1 20 hhcurveto
            170 99 -78 -188 -156 -99 -110 -169 -18 -22 1 3 -21 hvcurveto
            return
          </CharString>
          <CharString index="45">
            -10 callsubr
            187 222 210 return
          </CharString>
          <CharString index="46">
            68 61 35 83 81 vvcurveto
            187 -141 153 -342 -96 -122 -10 -21 -133 vhcurveto
            265 -497 rmoveto
            312 vlineto
            4 34 43 2 50 hhcurveto
            124 56 -53 -111 -60 -28 -101 -178 -33 -36 2 5 -32 hvcurveto
            -618 vmoveto
            393 vlineto
            6 38 48 5 54 hhcurveto
            return
          </CharString>
          <CharString index="47">
            rmoveto
            255 hlineto
            -233 387 227 388 rlineto
            -255 hlineto
            -201 -320 rlineto
            -19 -36 -4 -20 -11 vvcurveto
            -16 6 -23 22 -40 vhcurveto
            return
          </CharString>
          <CharString index="48">
            -40 rlineto
            5 -66 1 -59 -52 vvcurveto
            return
          </CharString>
          <CharString index="49">
            182 hmoveto
            32 hlineto
            140 67 -4 -2 21 hvcurveto
            571 470 -565 70 vlineto
            81 87 -4 -2 22 hvcurveto
            1344 vlineto
            -2 -6 -59 -6 -66 hhcurveto
            -27 -36 1 4 -66 hvcurveto
            -530 -470 533 vlineto
            -5 -34 -44 -3 -53 hhcurveto
            -41 -22 1 4 -66 hvcurveto
            return
          </CharString>
          <CharString index="50">
            415 -25 250 885 245 return
          </CharString>
          <CharString index="51">
            -4 callgsubr
            37 -1271 rmoveto
            -158 -55 -64 callsubr
            -243 vlineto
            endchar
          </CharString>
          <CharString index="52">
            248 -25 240 1123 -20 return
          </CharString>
          <CharString index="53">
            72 2 58 3 53 vhcurveto
            -265 hlineto
            4 -52 1 -41 -86 vvcurveto
            return
          </CharString>
          <CharString index="54">
            173 -45 callsubr
            583 vlineto
            87 57 71 48 77 hhcurveto
            87 99 -50 -204 hvcurveto
            return
          </CharString>
          <CharString index="55">
            hlineto
            -61 callgsubr
            endchar
          </CharString>
          <CharString index="56">
            1 callsubr
            43 -12 callgsubr
            72 129 vvcurveto
            return
          </CharString>
          <CharString index="57">
            77 -15 224 631 225 return
          </CharString>
          <CharString index="58">
            -285 -151 vlineto
            -2 2 -230 0 hvcurveto
            151 return
          </CharString>
          <CharString index="59">
            125 332 rmoveto
            -197 150 -150 248 156 119 46 73 94 vhcurveto
            -78 102 142 -41 168 hhcurveto
            127 146 33 45 69 hvcurveto
            8 115 5 83 2 65 rrcurveto
            return
          </CharString>
          <CharString index="60">
            -83 callgsubr
            -102 162 -218 -119 -85 -45 -102 -98 vhcurveto
            92 -48 -81 55 -118 hhcurveto
            -107 -81 -35 -75 -93 hvcurveto
            return
          </CharString>
          <CharString index="61">
            -21 -25 callgsubr
            return
          </CharString>
          <CharString index="62">
            hmoveto
            249 -84 callgsubr
            return
          </CharString>
          <CharString index="63">
            142 29 63 23 -59 callgsubr
            return
          </CharString>
          <CharString index="64">
            hstemhm
            66 247 -177 240 -224 227 return
          </CharString>
          <CharString index="65">
            30 -231 3 -2 rlineto
            83 62 108 57 100 hhcurveto
            104 81 -40 -101 26 hvcurveto
            2 -15 -18 1 -14 hhcurveto
            -309 -220 -172 -217 hvcurveto
            853 334 rmoveto
            return
          </CharString>
          <CharString index="66">
            203 -96 205 hstemhm
            return
          </CharString>
          <CharString index="67">
            -19 callgsubr
            -22 callsubr
            vhcurveto
            hintmask 0100111111110000
            -57 callgsubr
            vhcurveto
            return
          </CharString>
          <CharString index="68">
            244 -25 250 328 236 316 250 return
          </CharString>
          <CharString index="69">
            hstemhm
            8 1684 -1315 269 return
          </CharString>
          <CharString index="70">
            104 48 102 65 119 hhcurveto
            127 104 -66 -99 30 hvcurveto
            -4 -74 -130 -3 -64 hhcurveto
            -56 -133 0 3 -73 hvcurveto
            -608 -310 rmoveto
            return
          </CharString>
          <CharString index="71">
            rmoveto
            -265 hlineto
            4 -35 0 -37 -42 vvcurveto
            -37 -1 -56 -3 -33 vhcurveto
            263 hlineto
            -3 25 -3 51 38 vvcurveto
            42 3 43 5 41 vhcurveto
            endchar
          </CharString>
          <CharString index="72">
            -25 callgsubr
            165 -39 callgsubr
            return
          </CharString>
          <CharString index="73">
            rmoveto
            -71 callsubr
            return
          </CharString>
          <CharString index="74">
            21 -46 callsubr
            return
          </CharString>
          <CharString index="75">
            331 hstemhm
            return
          </CharString>
          <CharString index="76">
            rmoveto
            22 40 6 23 16 vvcurveto
            11 -4 20 -19 36 vhcurveto
            -201 320 rlineto
            -255 hlineto
            227 -388 -233 -387 rlineto
            return
          </CharString>
          <CharString index="77">
            255 331 return
          </CharString>
          <CharString index="78">
            143 110 vlineto
            62 231 -3 3 rlineto
            -10 -41 -47 -4 -60 hhcurveto
            -21 406 hlineto
            -340 1 rlineto
            -1 -407 rmoveto
            return
          </CharString>
          <CharString index="79">
            hstemhm
            128 260 return
          </CharString>
          <CharString index="80">
            172 6 rmoveto
            -14 84 188 -17 93 hhcurveto
            448 168 178 267 165 -79 151 -171 54 hvcurveto
            return
          </CharString>
          <CharString index="81">
            -613 462 return
          </CharString>
          <CharString index="82">
            255 -16 callgsubr
            return
          </CharString>
          <CharString index="83">
            rlineto
            -85 callsubr
            return
          </CharString>
          <CharString index="84">
            -249 -59 callsubr
            return
          </CharString>
          <CharString index="85">
            255 165 174 199 return
          </CharString>
          <CharString index="86">
            244 -25 232 -185 -21 return
          </CharString>
          <CharString index="87">
            -94 -15 207 668 205 return
          </CharString>
          <CharString index="88">
            19 24 17 6 88 hhcurveto
            198 return
          </CharString>
          <CharString index="89">
            68 -25 256 874 250 return
          </CharString>
          <CharString index="90">
            56 53 84 36 76 hhcurveto
            77 183 -56 -236 -240 -113 -106 -163 -64 -75 15 49 -58 hvcurveto
            return
          </CharString>
          <CharString index="91">
            757 -15 214 -214 -10 callsubr
            217 -148 206 114 230 -206 206 return
          </CharString>
          <CharString index="92">
            172 hmoveto
            79 hlineto
            87 59 -3 -3 30 hvcurveto
            411 vlineto
            145 190 255 -486 rlineto
            return
          </CharString>
          <CharString index="93">
            0 -34 callgsubr
            return
          </CharString>
          <CharString index="94">
            -21 835 230 -20 -20 return
          </CharString>
          <CharString index="95">
            -25 240 900 240 return
          </CharString>
          <CharString index="96">
            159 237 162 return
          </CharString>
          <CharString index="97">
            235 226 return
          </CharString>
          <CharString index="98">
            65 -245 -1430 249 vlineto
            -3 17 -1 27 68 vvcurveto
            546 vmoveto
            482 vlineto
            return
          </CharString>
          <CharString index="99">
            79 84 -4 -2 22 hvcurveto
            849 vlineto
            328 -538 327 585 rlineto
            -896 vlineto
            return
          </CharString>
          <CharString index="100">
            77 18 -14 callgsubr
            return
          </CharString>
          <CharString index="101">
            -1 -130 -15 -135 -20 -34 return
          </CharString>
          <CharString index="102">
            226 hlineto
            return
          </CharString>
          <CharString index="103">
            248 74 -76 -109 -130 -111 -107 -203 -51 -50 6 12 -47 hvcurveto
            return
          </CharString>
          <CharString index="104">
            rmoveto
            4 callgsubr
          </CharString>
          <CharString index="105">
            264 hstem
            118 283 vstem
            109 return
          </CharString>
          <CharString index="106">
            230 -230 515 return
          </CharString>
          <CharString index="107">
            -58 callgsubr
            hstemhm
            return
          </CharString>
          <CharString index="108">
            6 -6 rcurveline
            142 29 return
          </CharString>
          <CharString index="109">
            240 hstemhm
            return
          </CharString>
          <CharString index="110">
            12 callgsubr
            -207 20 callgsubr
            return
          </CharString>
          <CharString index="111">
            -15 230 615 235 return
          </CharString>
          <CharString index="112">
            hstemhm
            172 261 return
          </CharString>
          <CharString index="113">
            -15 235 return
          </CharString>
          <CharString index="114">
            -74 -4 -41 -5 -20 vhcurveto
            269 hlineto
            -3 39 0 42 -1 43 rrcurveto
            return
          </CharString>
          <CharString index="115">
            -21 1106 0 callgsubr
            return
          </CharString>
          <CharString index="116">
            211 400 206 284 212 400 205 return
          </CharString>
          <CharString index="117">
            69 0 240 850 240 return
          </CharString>
          <CharString index="118">
            -385 230 1200 -20 return
          </CharString>
          <CharString index="119">
            hstemhm
            172 275 return
          </CharString>
          <CharString index="120">
            hlineto
            -13 callgsubr
            return
          </CharString>
          <CharString index="121">
            -265 -170 1700 hstem
            0 855 vstem
            return
          </CharString>
          <CharString index="122">
            181 hstem
            152 10 693 7 vstem
            507 return
          </CharString>
          <CharString index="123">
            hlineto
            45 321 rlineto
            -226 hlineto
            -45 -321 rlineto
            return
          </CharString>
          <CharString index="124">
            6 callsubr
            595 -1 callsubr
            return
          </CharString>
          <CharString index="125">
            236 184 236 hstem
            228 906 return
          </CharString>
          <CharString index="126">
            hlineto
            -74 -1 -38 -5 -20 vhcurveto
            return
          </CharString>
          <CharString index="127">
            331 hstem
            139 735 vstem
            381 return
          </CharString>
          <CharString index="128">
            -436 21 -21 832 233 -20 -20 return
          </CharString>
        <CharString name=".notdef">
          -15 callgsubr
        </CharString>
        <CharString name=".null">
          -15 callgsubr
        </CharString>
        <CharString name="A">
          -42 callgsubr
          hstem
          -5 callgsubr
          vstem
          -105 callsubr
          endchar
        </CharString>
        <CharString name="AE">
          586 0 240 -26 26 48 240 72 236 255 247 -187 187 -174 174 hstem
          847 250 vstem
          -15 hmoveto
          79 hlineto
          53 90 -2 -6 72 hvcurveto
          159 296 rlineto
          407 hlineto
          -2 -288 rlineto
          759 13 callsubr
          -424 360 273 hlineto
          -96 callgsubr
          -262 -25 callsubr
          -10 -281 -166 2 -267 hhcurveto
          -39 -42 1 2 -57 hvcurveto
          -1 -2 rlineto
          1 -3 1 -2 -3 vvcurveto
          -30 -28 -35 -22 -39 vhcurveto
          -120 -691 rmoveto
          284 529 -4 -529 rlineto
          endchar
        </CharString>
        <CharString name="AEacute">
          586 0 240 48 240 72 236 255 247 137 -39 callgsubr
          847 250 -236 489 hintmask 11111100
          -15 hmoveto
          79 hlineto
          53 90 -2 -6 72 hvcurveto
          159 296 rlineto
          407 hlineto
          -2 -288 rlineto
          759 13 callsubr
          -424 360 273 hlineto
          -96 callgsubr
          -262 -25 callsubr
          -10 -281 -166 2 -267 hhcurveto
          -39 -42 1 2 -57 hvcurveto
          -1 -2 rlineto
          1 -3 1 -2 -3 vvcurveto
          -30 -28 -35 -22 -39 vhcurveto
          -120 -691 rmoveto
          284 529 -4 -529 rlineto
          hintmask 11111010
          14 947 -99 callgsubr
        </CharString>
        <CharString name="Aacute">
          -42 callgsubr
          947 -39 callgsubr
          -5 callgsubr
          -854 489 hintmask 11010000
          -105 callsubr
          hintmask 00101000
          -383 947 -99 callgsubr
        </CharString>
        <CharString name="Abreve">
          -42 callgsubr
          893 181 hstemhm
          -5 callgsubr
          -965 10 693 7 hintmask 11010000
          -105 callsubr
          hintmask 00101100
          -139 893 -102 callsubr
        </CharString>
        <CharString name="Acircumflex">
          -42 callgsubr
          945 -32 callsubr
          -5 callgsubr
          -977 735 hintmask 11010000
          -105 callsubr
          hintmask 00101000
          -503 942 -107 callgsubr
        </CharString>
        <CharString name="Adieresis">
          -42 callgsubr
          947 2 callsubr
          -5 callgsubr
          -949 -48 callgsubr
          hintmask 11010000
          -105 callsubr
          hintmask 00101100
          -56 947 -106 callsubr
        </CharString>
        <CharString name="Agrave">
          -42 callgsubr
          947 -39 callgsubr
          -5 callgsubr
          -854 489 hintmask 11010000
          -105 callsubr
          hintmask 00101000
          -120 947 rmoveto
          -93 callgsubr
        </CharString>
        <CharString name="Amacron">
          -42 callgsubr
          hstemhm
          -5 callgsubr
          vstemhm
          -105 callsubr
          -470 1002 rmoveto
          -96 callsubr
        </CharString>
        <CharString name="Aogonek">
          77 9 callgsubr
          341 -21 24 -17 callgsubr
          hstemhm
          -5 callgsubr
          -504 245 hintmask 10111000
          -11 hmoveto
          79 hlineto
          53 76 -2 -6 72 hvcurveto
          94 296 rlineto
          452 hlineto
          80 -246 rlineto
          hintmask 11010100
          -162 -103 -29 -132 -53 vvcurveto
          -234 197 -75 -71 callgsubr
          -109 11 94 hvcurveto
          hintmask 11011000
          101 108 114 151 vhcurveto
          -444 1221 rlineto
          -24 65 -6 26 13 vvcurveto
          3 1 3 1 2 vhcurveto
          -1 2 rlineto
          -1 -55 -51 -1 -38 hhcurveto
          -39 -42 1 2 -57 hvcurveto
          -1 -2 rlineto
          1 -3 0 -3 -2 vvcurveto
          -15 -6 -25 -23 -64 vhcurveto
          hintmask 10111000
          15 -691 rmoveto
          147 465 151 -465 rlineto
          endchar
        </CharString>
        <CharString name="Aring">
          -42 callgsubr
          937 -11 callgsubr
          hstemhm
          -5 callgsubr
          -889 -11 callsubr
          hintmask 11001000
          -105 callsubr
          hintmask 00110110
          -147 839 -91 callgsubr
        </CharString>
        <CharString name="Atilde">
          -42 callgsubr
          930 -41 callsubr
          -5 callgsubr
          -946 670 hintmask 11001000
          -105 callsubr
          hintmask 00010100
          -469 962 -55 callgsubr
          hintmask 00100100
          -93 callsubr
          hintmask 00010100
          -87 callsubr
        </CharString>
        <CharString name="B">
          14 callgsubr
          13 callgsubr
          307 262 -107 254 hintmask 11110100
          -27 callsubr
          hintmask 11111000
          -61 callsubr
          hintmask 11110100
          -4 callsubr
          endchar
        </CharString>
        <CharString name="C">
          -18 callsubr
          hstem
          52 279 vstem
          -95 callgsubr
          endchar
        </CharString>
        <CharString name="CR">
          -15 callgsubr
        </CharString>
        <CharString name="Cacute">
          -18 callsubr
          120 -39 callgsubr
          52 279 94 489 hintmask 11010000
          -95 callgsubr
          hintmask 00101000
          373 816 -99 callgsubr
        </CharString>
        <CharString name="Ccaron">
          -18 callsubr
          11 -32 callsubr
          52 279 -29 735 hintmask 11010000
          -95 callgsubr
          hintmask 00101000
          492 707 -100 callgsubr
        </CharString>
        <CharString name="Ccedilla">
          68 -25 256 -210 -21 1105 250 hstemhm
          52 279 241 225 hintmask 01111000
          572 -16 rmoveto
          -1 -135 -20 -205 -49 -70 -51 callsubr
          40 -2 35 -5 43 vhcurveto
          130 13 106 40 82 69 rrcurveto
          280 vlineto
          -3 2 rlineto
          hintmask 10111000
          -114 -80 -153 -39 -148 hhcurveto
          -197 -196 107 339 259 121 169 291 142 150 -45 -78 50 hvcurveto
          2 2 rlineto
          306 vlineto
          41 -83 -113 24 -142 hhcurveto
          -444 -253 -269 -427 -354 182 -269 338 -52 hvcurveto
          endchar
        </CharString>
        <CharString name="Ccircumflex">
          -18 callsubr
          118 -32 callsubr
          52 279 -29 735 hintmask 11010000
          -95 callgsubr
          hintmask 00101000
          253 811 -107 callgsubr
        </CharString>
        <CharString name="Cdotaccent">
          -18 callsubr
          119 -9 callgsubr
          52 279 168 340 hintmask 11010000
          -95 callgsubr
          hintmask 00101000
          648 815 -4 callgsubr
          endchar
        </CharString>
        <CharString name="D">
          -21 callsubr
          1110 244 hstemhm
          191 260 518 273 hintmask 01111000
          191 1 rmoveto
          hintmask 10111000
          -76 callsubr
          hintmask 01111000
          260 -1120 rmoveto
          891 vlineto
          1 21 20 0 17 hhcurveto
          302 158 -139 -328 hvcurveto
          hintmask 10111000
          -303 -179 -134 -230 -33 -40 5 7 -36 vhcurveto
          endchar
        </CharString>
        <CharString name="Dcaron">
          -21 callsubr
          1110 244 11 -32 callsubr
          191 260 -98 735 -119 -70 callsubr
          144 1147 -100 callgsubr
        </CharString>
        <CharString name="Dcroat">
          -79 callgsubr
        </CharString>
        <CharString name="Delta">
          404 0 238 hstem
          429 664 vstem
          147 hmoveto
          1230 hlineto
          -548 1415 rlineto
          -214 hlineto
          -116 -1177 rmoveto
          227 762 281 -762 rlineto
          -75 hlineto
          -389 hlineto
          endchar
        </CharString>
        <CharString name="E">
          -94 0 240 -26 26 360 236 255 247 hstem
          172 261 vstem
          -104 callgsubr
          endchar
        </CharString>
        <CharString name="Eacute">
          -65 callgsubr
          137 313 5 callsubr
          -141 489 hintmask 11111000
          -104 callgsubr
          hintmask 11110100
          120 138 -99 callgsubr
        </CharString>
        <CharString name="Ebreve">
          -65 callgsubr
          83 181 5 callsubr
          -252 10 693 7 hintmask 11111010
          -104 callgsubr
          364 84 rmoveto
          286 97 215 167 -35 hvcurveto
          -3 3 -133 -3 rlineto
          -61 -7 -27 -140 -178 hhcurveto
          -178 -27 140 61 -7 hvcurveto
          hintmask 11110110
          -133 3 -3 -3 rlineto
          -167 -35 97 -215 286 hhcurveto
          endchar
        </CharString>
        <CharString name="Ecaron">
          -65 callgsubr
          28 -32 callsubr
          169 735 -732 261 hintmask 11110100
          -104 callgsubr
          239 29 rmoveto
          2 21 71 1 25 hhcurveto
          21 85 -2 -1 15 hvcurveto
          hintmask 11111000
          -30 callsubr
          -4 3 rlineto
          -1 -40 -118 -2 -97 hhcurveto
          -113 -177 -97 177 rlineto
          hintmask 11110100
          -122 -99 1 2 -42 hvcurveto
          hintmask 11111000
          -3 -3 rlineto
          endchar
        </CharString>
        <CharString name="Ecircumflex">
          -65 callgsubr
          135 -32 callsubr
          169 735 -732 261 hintmask 11110100
          -104 callgsubr
          133 vmoveto
          2 42 99 1 122 hhcurveto
          97 177 113 -177 rlineto
          97 118 -2 -1 40 hvcurveto
          hintmask 11111000
          4 3 -255 331 rlineto
          -1 -15 -85 -2 -21 hhcurveto
          -25 -71 1 2 -21 hvcurveto
          -242 -331 rlineto
          endchar
        </CharString>
        <CharString name="Edieresis">
          -65 callgsubr
          137 240 5 callsubr
          -236 -48 callgsubr
          hintmask 11111010
          -104 callgsubr
          447 138 -100 callsubr
          -430 hmoveto
          hintmask 11110110
          -98 callsubr
        </CharString>
        <CharString name="Edotaccent">
          -65 callgsubr
          136 340 5 callsubr
          -67 340 hintmask 11111000
          -104 callgsubr
          395 137 rmoveto
          hintmask 11110100
          -97 callgsubr
          endchar
        </CharString>
        <CharString name="Egrave">
          -65 callgsubr
          137 313 5 callsubr
          -141 489 hintmask 11111000
          -104 callgsubr
          383 138 rmoveto
          hintmask 11110100
          -93 callgsubr
        </CharString>
        <CharString name="Emacron">
          -65 callgsubr
          192 170 5 callsubr
          -220 667 hintmask 11111000
          -104 callgsubr
          33 193 rmoveto
          hintmask 11110100
          -96 callsubr
        </CharString>
        <CharString name="Eng">
          239 -573 239 355 -21 hstem
          187 255 474 256 vstem
          181 hmoveto
          261 789 hlineto
          475 -731 rlineto
          -172 vlineto
          -129 -91 -91 -138 -112 -71 32 78 -76 vhcurveto
          -7 -2 rlineto
          -249 vlineto
          -73 88 91 -25 115 hhcurveto
          244 212 166 301 hvcurveto
          -1 1348 rlineto
          38 3 29 2 21 vhcurveto
          -270 hlineto
          6 -8 4 -24 -36 vvcurveto
          -761 vlineto
          -509 829 rlineto
          -220 -1256 hlineto
          -32 -2 -20 -4 -22 vhcurveto
          endchar
        </CharString>
        <CharString name="Eogonek">
          -94 -552 232 320 240 -219 -21 214 26 360 236 255 247 5 callsubr
          -6 245 hintmask 10111110
          172 hmoveto
          385 hlineto
          hintmask 10111101
          -109 -94 -21 -103 -46 vvcurveto
          -234 197 -75 -71 callgsubr
          -109 11 94 99 103 111 145 5 hvcurveto
          1 hlineto
          10 hlineto
          -10 14 10 237 -4 1 rlineto
          hintmask 11001110
          -6 -13 -21 -6 -52 hhcurveto
          -408 360 248 hlineto
          -96 callgsubr
          -237 255 315 hlineto
          83 29 -4 -11 36 hvcurveto
          2 3 rlineto
          -1 4 -1 10 10 vvcurveto
          42 4 128 7 65 vhcurveto
          -7 -185 -156 -1 -126 hhcurveto
          -84 -112 3 4 -72 hvcurveto
          endchar
        </CharString>
        <CharString name="Eth">
          -79 callgsubr
        </CharString>
        <CharString name="Euro">
          415 -25 240 225 196 104 196 179 240 hstem
          242 255 vstem
          81 440 rmoveto
          187 hlineto
          -281 76 233 -184 339 hhcurveto
          174 145 53 84 101 hvcurveto
          285 vlineto
          -3 2 rlineto
          -114 -80 -161 -70 -148 hhcurveto
          -144 -172 60 165 -83 hvcurveto
          296 hlineto
          -40 callgsubr
          67 207 -24 callsubr
          -402 hlineto
          -1 10 0 10 11 vvcurveto
          25 1 24 4 24 vhcurveto
          430 hlineto
          -40 callgsubr
          57 207 -24 callsubr
          -401 hlineto
          110 81 137 69 175 hhcurveto
          114 99 -36 -57 55 hvcurveto
          4 hlineto
          70 258 rlineto
          41 -83 -111 34 -142 hhcurveto
          -312 -260 -159 -260 -110 hvcurveto
          -152 hlineto
          -63 -196 rlineto
          165 hlineto
          -3 -30 -2 -30 -31 vvcurveto
          -13 -100 vlineto
          endchar
        </CharString>
        <CharString name="F">
          19 callgsubr
          hstem
          172 274 vstem
          -64 callgsubr
          endchar
        </CharString>
        <CharString name="G">
          -39 callsubr
          hstem
          73 285 636 255 vstem
          -99 callsubr
          endchar
        </CharString>
        <CharString name="Gbreve">
          -39 callsubr
          66 181 hstemhm
          73 285 8 10 618 255 -180 7 hintmask 11101010
          -99 callsubr
          hintmask 00010101
          648 791 -102 callsubr
        </CharString>
        <CharString name="Gcircumflex">
          -39 callsubr
          118 -32 callsubr
          73 285 -4 735 -95 255 hintmask 11101010
          -99 callsubr
          hintmask 00010100
          284 840 -107 callgsubr
        </CharString>
        <CharString name="Gcommaaccent">
          244 -26 callsubr
          126 250 328 236 316 250 hstemhm
          73 285 242 254 140 255 hintmask 01111010
          -99 callsubr
          hintmask 10000100
          516 -821 rmoveto
          9 -67 2 -58 -52 vvcurveto
          -1 -134 -35 -62 -25 -43 -83 callsubr
          38 23 36 62 129 vvcurveto
          57 -4 47 -12 74 vhcurveto
          endchar
        </CharString>
        <CharString name="Gdotaccent">
          -39 callsubr
          119 -9 callgsubr
          73 285 193 340 103 255 hintmask 11101010
          -99 callsubr
          hintmask 00010100
          679 844 -4 callgsubr
          endchar
        </CharString>
        <CharString name="H">
          11 callgsubr
          533 -20 hstem
          404 38 470 42 vstem
          -58 callsubr
          endchar
        </CharString>
        <CharString name="Hbar">
          11 callgsubr
          170 145 218 -20 hstemhm
          58 1241 -895 38 470 42 hintmask 11110110
          182 hmoveto
          32 hlineto
          140 67 -4 -2 21 hvcurveto
          571 470 -565 70 vlineto
          81 87 -4 -2 22 hvcurveto
          981 vlineto
          hintmask 11111000
          127 hlineto
          -5 30 -1 6 36 vvcurveto
          31 1 14 5 28 vhcurveto
          -127 218 hlineto
          -2 -6 -59 -6 -66 hhcurveto
          hintmask 11110110
          -27 -36 1 4 -66 hvcurveto
          -215 -470 218 vlineto
          -5 -34 -44 -3 -53 hhcurveto
          -41 -22 1 4 -66 hvcurveto
          -215 -120 vlineto
          5 -21 5 -27 -32 vvcurveto
          hintmask 11111000
          -19 -5 -11 -9 -35 vhcurveto
          124 hlineto
          hintmask 11110110
          260 -170 rmoveto
          170 470 -170 vlineto
          endchar
        </CharString>
        <CharString name="Hcircumflex">
          11 callgsubr
          533 -20 155 -32 callsubr
          315 735 -646 38 470 42 hintmask 11100110
          -58 callsubr
          hintmask 00011000
          136 135 -107 callgsubr
        </CharString>
        <CharString name="I">
          -436 -53 callgsubr
          hstem
          203 277 vstem
          -88 callsubr
          endchar
        </CharString>
        <CharString name="IJ">
          424 -25 239 -193 0 callsubr
          203 277 652 265 hintmask 01110000
          -88 callsubr
          hintmask 10101000
          493 -1261 -74 callgsubr
          endchar
        </CharString>
        <CharString name="Iacute">
          -436 10 callgsubr
          -39 callgsubr
          86 489 -372 277 hintmask 11001000
          -88 callsubr
          hintmask 00110000
          -117 141 -99 callgsubr
        </CharString>
        <CharString name="Ibreve">
          -436 -53 callgsubr
          103 181 hstemhm
          -25 10 218 277 198 7 hintmask 11001000
          -88 callsubr
          hintmask 00110100
          127 87 -102 callsubr
        </CharString>
        <CharString name="Icircumflex">
          -436 -53 callgsubr
          155 -32 callsubr
          -37 735 -495 277 hintmask 11001000
          -88 callsubr
          hintmask 00110000
          -237 136 -107 callgsubr
        </CharString>
        <CharString name="Idieresis">
          -436 10 callgsubr
          2 callsubr
          -9 257 -45 277 -59 257 hintmask 11001000
          -88 callsubr
          hintmask 00110100
          210 141 -106 callsubr
        </CharString>
        <CharString name="Idotaccent">
          -436 -53 callgsubr
          156 -9 callgsubr
          160 340 -297 277 hintmask 11001000
          -88 callsubr
          hintmask 00110000
          158 140 -4 callgsubr
          endchar
        </CharString>
        <CharString name="Igrave">
          -436 10 callgsubr
          -39 callgsubr
          86 489 -372 277 hintmask 11001000
          -88 callsubr
          hintmask 00110000
          146 141 rmoveto
          -93 callgsubr
        </CharString>
        <CharString name="Imacron">
          -436 21 0 callsubr
          203 277 vstemhm
          -88 callsubr
          -204 196 rmoveto
          -96 callsubr
        </CharString>
        <CharString name="Iogonek">
          -436 9 callgsubr
          344 0 callsubr
          66 255 -118 277 hintmask 11101000
          203 hmoveto
          hintmask 11110000
          -66 callsubr
          hintmask 11101000
          22 hlineto
          1 1338 rlineto
          -5 -21 -51 -3 -44 hhcurveto
          -57 -39 1 3 -66 hvcurveto
          endchar
        </CharString>
        <CharString name="Itilde">
          -436 -53 callgsubr
          140 -41 callsubr
          -6 670 -461 277 hintmask 11000100
          -88 callsubr
          hintmask 00011000
          -203 156 -55 callgsubr
          hintmask 00101000
          -93 callsubr
          hintmask 00011000
          -87 callsubr
        </CharString>
        <CharString name="J">
          -260 -25 239 1124 -20 hstem
          448 265 vstem
          12 73 -74 callgsubr
          endchar
        </CharString>
        <CharString name="Jcircumflex">
          -260 -25 239 1124 -20 155 -32 callsubr
          215 735 -502 265 hintmask 11001000
          12 73 -74 callgsubr
          hintmask 00110000
          206 1108 -107 callgsubr
        </CharString>
        <CharString name="K">
          13 -21 29 0 callsubr
          388 38 hintmask 01110000
          -15 callsubr
          hintmask 10110000
          13 -34 11 -42 6 -41 rrcurveto
          hintmask 01110000
          -56 callgsubr
          endchar
        </CharString>
        <CharString name="Kcommaaccent">
          -26 callsubr
          164 -21 29 0 callsubr
          388 38 165 254 hintmask 00111000
          -15 callsubr
          hintmask 01011000
          13 -34 11 -42 6 -41 rrcurveto
          hintmask 00111000
          -56 callgsubr
          hintmask 10000100
          408 -1525 rmoveto
          9 -67 2 -58 -52 vvcurveto
          -1 -134 -35 -62 -25 -43 -83 callsubr
          38 23 36 62 129 vvcurveto
          57 -4 47 -12 74 vhcurveto
          endchar
        </CharString>
        <CharString name="L">
          -265 -14 callsubr
          12 callsubr
          hintmask 01110000
          172 -6 rmoveto
          hintmask 10010000
          -86 callsubr
          endchar
        </CharString>
        <CharString name="Lacute">
          -265 -14 callsubr
          1235 313 12 callsubr
          -146 489 hintmask 01101000
          172 -6 rmoveto
          hintmask 10001000
          -86 callsubr
          hintmask 01101000
          hintmask 00010100
          129 139 -99 callgsubr
        </CharString>
        <CharString name="Lcaron">
          -140 -14 callsubr
          703 502 12 callsubr
          191 234 hintmask 01101000
          172 -6 rmoveto
          hintmask 10001000
          -86 callsubr
          hintmask 01101000
          hintmask 00010100
          456 -393 rmoveto
          142 29 23 3 -59 callgsubr
          -229 -41 callgsubr
          5 -115 -20 -34 rrcurveto
          endchar
        </CharString>
        <CharString name="Lcommaaccent">
          -265 -26 callsubr
          151 -34 callgsubr
          12 callsubr
          -7 254 hintmask 00111000
          172 -6 rmoveto
          hintmask 01001000
          -86 callsubr
          hintmask 00111000
          hintmask 10000100
          257 -1527 rmoveto
          9 -67 2 -58 -52 vvcurveto
          -1 -134 -35 -62 -25 -43 -83 callsubr
          38 23 36 62 129 vvcurveto
          57 -4 47 -12 74 vhcurveto
          endchar
        </CharString>
        <CharString name="Ldot">
          -98 -14 callsubr
          447 264 12 callsubr
          252 283 hintmask 01101000
          172 -6 rmoveto
          hintmask 10001000
          -86 callsubr
          hintmask 01101000
          hintmask 00010100
          518 -649 rmoveto
          -92 callsubr
          endchar
        </CharString>
        <CharString name="Lslash">
          -225 -14 callsubr
          280 462 hstemhm
          30 676 -534 275 hintmask 01110100
          172 -6 rmoveto
          hintmask 10010100
          2 22 94 4 79 hhcurveto
          95 hlineto
          164 90 -2 -5 75 hvcurveto
          11 7 242 0 vhcurveto
          -3 -23 -81 -3 -40 hhcurveto
          -207 423 hlineto
          260 90 rlineto
          hintmask 10011000
          -2 33 1 52 32 vvcurveto
          29 -3 48 2 35 vhcurveto
          hintmask 10010100
          -258 -90 rlineto
          442 vlineto
          -3 -66 -36 -1 -28 hhcurveto
          -62 -72 3 3 -11 hvcurveto
          -540 vlineto
          -147 -51 rlineto
          hintmask 10011000
          2 -32 2 -44 1 -35 1 -34 -1 -44 -1 -36 rrcurveto
          hintmask 01110100
          143 49 rlineto
          endchar
        </CharString>
        <CharString name="M">
          419 15 -21 27 0 callsubr
          177 265 655 265 hintmask 01111000
          177 hmoveto
          80 hlineto
          hintmask 10111000
          -8 callsubr
          hintmask 01111000
          -47 callgsubr
          endchar
        </CharString>
        <CharString name="N">
          239 21 -21 hstem
          187 255 475 255 vstem
          -90 callgsubr
          endchar
        </CharString>
        <CharString name="Nacute">
          239 21 -21 3 callgsubr
          -39 callgsubr
          187 255 -7 489 -7 255 hintmask 10101000
          -90 callgsubr
          hintmask 01010000
          254 3 callgsubr
          -99 callgsubr
        </CharString>
        <CharString name="Ncaron">
          239 21 -21 1366 -32 callsubr
          187 255 -130 735 -130 255 hintmask 10101000
          -90 callgsubr
          hintmask 01010000
          373 1366 -100 callgsubr
        </CharString>
        <CharString name="Ncommaaccent">
          239 -26 callsubr
          172 -21 hstemhm
          187 255 132 254 89 255 hintmask 01101000
          -90 callgsubr
          hintmask 10010000
          382 -191 rmoveto
          9 -67 2 -58 -52 vvcurveto
          -1 -134 -35 -62 -25 -43 -83 callsubr
          38 23 36 62 129 vvcurveto
          57 -4 47 -12 74 vhcurveto
          endchar
        </CharString>
        <CharString name="Ntilde">
          239 21 -21 1458 -41 callsubr
          187 255 -99 670 -96 255 hintmask 10010100
          -90 callgsubr
          hintmask 00101000
          168 1490 -55 callgsubr
          hintmask 01001000
          -93 callsubr
          hintmask 00101000
          -87 callsubr
        </CharString>
        <CharString name="O">
          -57 callsubr
          hstem
          85 278 807 280 vstem
          -102 callgsubr
          endchar
        </CharString>
        <CharString name="OE">
          923 -25 240 -215 240 360 236 255 247 -228 245 hstemhm
          72 258 851 255 hintmask 10110110
          72 637 rmoveto
          -395 298 -267 375 167 151 63 105 118 vhcurveto
          hintmask 01110110
          -143 759 vlineto
          -13 callgsubr
          -424 360 303 hlineto
          -96 callgsubr
          -292 -25 callsubr
          -7 -185 -172 -1 -126 hhcurveto
          -84 -106 3 4 -72 hvcurveto
          -128 vlineto
          hintmask 10101110
          93 -110 -141 53 -158 hhcurveto
          -426 -274 -337 -381 hvcurveto
          258 11 rmoveto
          246 161 216 261 243 186 -192 -261 -271 -187 -171 -226 -243 -195 184 249 vhcurveto
          endchar
        </CharString>
        <CharString name="Oacute">
          -57 callsubr
          120 -39 callgsubr
          85 278 160 489 158 280 hintmask 11010100
          -102 callgsubr
          hintmask 00101000
          160 827 -99 callgsubr
        </CharString>
        <CharString name="Obreve">
          -57 callsubr
          66 181 hstemhm
          85 278 49 10 693 7 48 280 hintmask 11010010
          -102 callgsubr
          hintmask 00101100
          404 773 -102 callsubr
        </CharString>
        <CharString name="Ocircumflex">
          -57 callsubr
          118 -32 callsubr
          85 278 37 735 35 280 hintmask 11010100
          -102 callgsubr
          hintmask 00101000
          40 822 -107 callgsubr
        </CharString>
        <CharString name="Odieresis">
          -57 callsubr
          120 2 callsubr
          85 278 65 -48 callgsubr
          55 280 hintmask 11010010
          -102 callgsubr
          hintmask 00101100
          487 827 -106 callsubr
        </CharString>
        <CharString name="Ograve">
          -57 callsubr
          120 -39 callgsubr
          85 278 160 489 158 280 hintmask 11010100
          -102 callgsubr
          hintmask 00101000
          423 827 rmoveto
          -93 callgsubr
        </CharString>
        <CharString name="Ohungarumlaut">
          -57 callsubr
          140 -39 callgsubr
          85 278 82 804 -79 280 hintmask 11010100
          -102 callgsubr
          hintmask 00101000
          467 847 -86 callgsubr
        </CharString>
        <CharString name="Omacron">
          -57 callsubr
          hstemhm
          85 278 807 280 vstemhm
          -102 callgsubr
          73 882 rmoveto
          -96 callsubr
        </CharString>
        <CharString name="Omega">
          415 -15 231 882 2 callsubr
          166 245 -10 250 206 243 -91 268 hintmask 11011000
          160 -15 rmoveto
          463 hlineto
          hintmask 11101000
          126 274 -338 202 259 vvcurveto
          291 137 87 173 vhcurveto
          hintmask 11010100
          171 117 -84 -294 -259 -234 -179 112 -297 hvcurveto
          477 hlineto
          -3 237 rlineto
          -5 -20 -78 -44 callgsubr
          -78 hlineto
          39 124 127 102 321 vvcurveto
          339 -220 236 -323 vhcurveto
          hintmask 11101000
          -348 -220 -216 -359 -314 148 -109 61 -124 hvcurveto
          -80 -52 callsubr
        </CharString>
        <CharString name="Oslash">
          415 -170 1700 -1555 250 885 245 hstemhm
          85 278 -193 1190 -190 280 hintmask 10001000
          170 -170 rmoveto
          196 hlineto
          116 198 rlineto
          hintmask 01110100
          -34 84 93 -19 99 hhcurveto
          368 324 284 420 253 -107 187 -158 112 hvcurveto
          hintmask 10001000
          175 299 rlineto
          -196 hlineto
          -128 -220 rlineto
          hintmask 01110100
          30 -79 -86 15 -88 hhcurveto
          -426 -272 -337 -381 -226 97 -183 153 -116 hvcurveto
          hintmask 10001000
          139 238 rmoveto
          hintmask 01110100
          -70 74 -41 103 121 vvcurveto
          246 139 216 261 52 47 -8 -15 43 vhcurveto
          -290 -832 rmoveto
          432 740 rlineto
          81 -85 42 -123 -130 vvcurveto
          -273 -159 -159 -230 -60 -56 11 19 -50 vhcurveto
          endchar
        </CharString>
        <CharString name="Otilde">
          -57 callsubr
          103 -41 callsubr
          85 278 68 670 69 280 hintmask 11001010
          -102 callgsubr
          hintmask 00010100
          74 842 -55 callgsubr
          hintmask 00100100
          -93 callsubr
          hintmask 00010100
          -87 callsubr
        </CharString>
        <CharString name="P">
          18 callgsubr
          hstem
          153 255 329 256 vstem
          -63 callsubr
          endchar
        </CharString>
        <CharString name="Q">
          415 -166 223 -82 240 -199 -21 1115 245 hstemhm
          82 268 830 267 hintmask 00111100
          82 637 rmoveto
          hintmask 01011100
          -395 298 -267 375 55 55 7 12 53 vhcurveto
          114 -10 82 -21 135 -62 rrcurveto
          hintmask 10011100
          -51 111 58 -16 48 hhcurveto
          28 14 11 32 11 hvcurveto
          76 191 -4 3 rlineto
          -14 -17 -52 0 -20 hhcurveto
          -57 1 -72 16 -104 49 -16 7 -20 7 -24 6 rrcurveto
          144 124 94 186 226 vvcurveto
          427 -305 249 -360 -426 -274 -337 -381 vhcurveto
          268 11 rmoveto
          246 151 216 261 268 150 -214 -239 vhcurveto
          hintmask 01011100
          -273 -172 -169 -230 -243 -185 184 249 vhcurveto
          endchar
        </CharString>
        <CharString name="R">
          14 -28 callgsubr
          13 callgsubr
          375 255 hintmask 01111100
          -72 callsubr
          hintmask 10111100
          -79 callsubr
          hintmask 01111100
          -73 callgsubr
          endchar
        </CharString>
        <CharString name="Racute">
          14 -28 callgsubr
          120 313 13 callgsubr
          12 489 -126 -76 callgsubr
          12 743 -99 callgsubr
        </CharString>
        <CharString name="Rcaron">
          14 -28 callgsubr
          11 331 13 callgsubr
          -111 735 -249 -76 callgsubr
          131 634 -100 callgsubr
        </CharString>
        <CharString name="Rcommaaccent">
          -26 callsubr
          165 -28 callgsubr
          13 callgsubr
          151 254 -30 255 hintmask 00111101
          -72 callsubr
          hintmask 01011101
          -79 callsubr
          hintmask 00111101
          -73 callgsubr
          hintmask 10000010
          140 -923 rmoveto
          9 -67 2 -58 -52 vvcurveto
          -1 -134 -35 -62 -25 -43 -83 callsubr
          38 23 36 62 129 vvcurveto
          57 -4 47 -12 74 vhcurveto
          endchar
        </CharString>
        <CharString name="S">
          -12 callsubr
          hstem
          130 254 454 256 vstem
          -101 callsubr
          endchar
        </CharString>
        <CharString name="Sacute">
          -12 callsubr
          120 -39 callgsubr
          130 254 -32 489 -3 256 hintmask 11010100
          -101 callsubr
          hintmask 00101000
          213 1049 -99 callgsubr
        </CharString>
        <CharString name="Scaron">
          -12 callsubr
          11 -32 callsubr
          130 254 -155 735 -126 256 hintmask 11010100
          -101 callsubr
          hintmask 00101000
          332 940 -100 callgsubr
        </CharString>
        <CharString name="Scedilla">
          -25 240 -194 -21 1115 2 callsubr
          130 254 115 225 114 256 hintmask 01111100
          128 92 rmoveto
          92 -64 156 -38 123 -11 -1 -135 -21 -201 -48 -69 -51 callsubr
          43 -3 37 -6 47 vhcurveto
          203 40 176 131 256 vvcurveto
          219 -125 128 -318 41 vhcurveto
          -228 31 -39 60 91 vvcurveto
          78 81 51 117 158 146 -58 -97 63 vhcurveto
          7 2 19 294 rlineto
          59 -97 -112 40 -175 hhcurveto
          -282 -179 -165 -235 -208 100 -164 352 -33 hvcurveto
          193 -18 63 -49 -91 vvcurveto
          hintmask 10111100
          -125 -129 -52 -159 -205 -133 93 121 -69 vhcurveto
          -4 -3 rlineto
          endchar
        </CharString>
        <CharString name="Scircumflex">
          -12 callsubr
          118 -32 callsubr
          130 254 -155 735 -126 256 hintmask 11010100
          -101 callsubr
          hintmask 00101000
          93 1044 -107 callgsubr
        </CharString>
        <CharString name="Scommaaccent">
          -26 callsubr
          126 240 900 2 callsubr
          130 254 107 254 93 256 hintmask 01110100
          -101 callsubr
          hintmask 10001000
          341 -617 rmoveto
          9 -67 2 -58 -52 vvcurveto
          -1 -134 -35 -62 -25 -43 -83 callsubr
          38 23 36 62 129 vvcurveto
          57 -4 47 -12 74 vhcurveto
          endchar
        </CharString>
        <CharString name="T">
          -7 callgsubr
          hstemhm
          373 279 hintmask 11011000
          -82 callsubr
          hintmask 10101000
          -30 callgsubr
          hintmask 11011000
          -19 callsubr
          hlineto
          endchar
        </CharString>
        <CharString name="Tbar">
          -94 21 -21 649 200 257 0 callgsubr
          hstemhm
          177 667 -471 279 hintmask 11101010
          373 hmoveto
          32 hlineto
          140 86 -4 -2 21 hvcurveto
          655 vlineto
          hintmask 11101100
          192 hlineto
          -3 35 -1 7 -29 callgsubr
          46 3 33 vhcurveto
          hintmask 11101010
          -192 257 150 hlineto
          120 34 -4 -7 24 hvcurveto
          3 3 rlineto
          256 vlineto
          -3 1 rlineto
          -19 -24 -17 -6 -88 hhcurveto
          -627 hlineto
          -120 -34 4 7 -24 hvcurveto
          hintmask 11010100
          -30 callgsubr
          hintmask 11101010
          -19 callsubr
          -257 -202 hlineto
          hintmask 11101100
          3 -25 3 -61 -38 vvcurveto
          -22 -3 -13 -5 -41 vhcurveto
          hintmask 11101010
          204 hlineto
          endchar
        </CharString>
        <CharString name="Tcaron">
          -7 callgsubr
          31 -32 callsubr
          146 735 -508 279 hintmask 11010010
          -82 callsubr
          hintmask 10100010
          -30 callgsubr
          hintmask 11010010
          -19 callsubr
          hlineto
          hintmask 00001100
          15 260 -100 callgsubr
        </CharString>
        <CharString name="Tcommaaccent">
          -94 -26 callsubr
          172 8 callsubr
          hstemhm
          373 279 -244 254 hintmask 01101100
          -82 callsubr
          hintmask 01010100
          -30 callgsubr
          hintmask 01101100
          -19 callsubr
          hlineto
          hintmask 10000010
          24 -1297 rmoveto
          9 -67 2 -58 -52 vvcurveto
          -1 -134 -35 -62 -25 -43 -83 callsubr
          38 23 36 62 129 vvcurveto
          57 -4 47 -12 74 vhcurveto
          endchar
        </CharString>
        <CharString name="Thorn">
          0 421 -229 229 483 230 hstemhm
          172 255 379 266 hintmask 10111000
          172 hmoveto
          255 195 hlineto
          hintmask 01111000
          -2 23 24 -1 20 hhcurveto
          365 213 167 304 278 -223 193 -422 hvcurveto
          196 -255 vlineto
          hintmask 10111000
          255 -906 rmoveto
          476 vlineto
          3 22 22 1 26 hhcurveto
          197 112 -115 -147 -142 -114 -79 -194 -20 -25 1 2 -26 hvcurveto
          endchar
        </CharString>
        <CharString name="U">
          -55 callsubr
          hstem
          -10 callgsubr
          489 274 vstem
          -103 callsubr
          endchar
        </CharString>
        <CharString name="Uacute">
          -55 callsubr
          157 313 6 callgsubr
          -2 489 2 274 hintmask 11010100
          -103 callsubr
          hintmask 00101000
          276 140 -99 callgsubr
        </CharString>
        <CharString name="Ubreve">
          -55 callsubr
          103 181 6 callgsubr
          -113 10 592 274 -173 7 hintmask 11010100
          -103 callsubr
          hintmask 00101010
          520 86 -102 callsubr
        </CharString>
        <CharString name="Ucircumflex">
          -55 callsubr
          155 331 6 callgsubr
          -125 735 -121 274 hintmask 11010100
          -103 callsubr
          hintmask 00101000
          156 135 -107 callgsubr
        </CharString>
        <CharString name="Udieresis">
          -55 callsubr
          157 240 6 callgsubr
          -97 -48 callgsubr
          -101 274 hintmask 11010010
          -103 callsubr
          hintmask 00101100
          603 140 -106 callsubr
        </CharString>
        <CharString name="Ugrave">
          -55 callsubr
          157 313 6 callgsubr
          -2 489 2 274 hintmask 11010100
          -103 callsubr
          hintmask 00101000
          539 140 rmoveto
          -93 callgsubr
        </CharString>
        <CharString name="Uhungarumlaut">
          -55 callsubr
          177 313 6 callgsubr
          -80 804 -235 274 hintmask 11010100
          -103 callsubr
          hintmask 00101000
          583 160 -86 callgsubr
        </CharString>
        <CharString name="Umacron">
          -55 callsubr
          6 callgsubr
          489 274 vstemhm
          -103 callsubr
          189 195 rmoveto
          -96 callsubr
        </CharString>
        <CharString name="Uogonek">
          248 9 callgsubr
          298 240 1123 -20 hstem
          -10 callgsubr
          6 245 238 274 vstem
          447 -246 rmoveto
          -234 257 -75 196 vhcurveto
          54 243 -2 5 rlineto
          -13 -19 -19 -3 -21 hhcurveto
          -82 -119 11 94 86 94 87 107 55 hvcurveto
          18 7 18 9 17 9 rrcurveto
          1 2 1 1 2 hvcurveto
          -1 hlineto
          150 83 104 164 227 vvcurveto
          827 vlineto
          -5 -31 -29 -3 -50 hhcurveto
          -57 -41 1 4 -66 hvcurveto
          -810 vlineto
          -231 -111 -79 -121 -135 -122 84 176 vhcurveto
          863 vlineto
          -5 -33 -40 -3 -88 hhcurveto
          -19 -32 1 4 -66 hvcurveto
          -847 vlineto
          -298 172 -156 222 -45 vhcurveto
          -81 -79 -29 -84 -72 vvcurveto
          endchar
        </CharString>
        <CharString name="Uring">
          -55 callsubr
          147 -11 callgsubr
          6 callgsubr
          -37 -11 callsubr
          -32 274 hintmask 11001001
          -103 callsubr
          hintmask 00110110
          512 32 -91 callgsubr
        </CharString>
        <CharString name="Utilde">
          -55 callsubr
          140 -41 callsubr
          163 278 -94 670 -87 274 hintmask 11001010
          -103 callsubr
          hintmask 00010100
          190 155 -55 callgsubr
          hintmask 00100100
          -93 callsubr
          hintmask 00010100
          -87 callsubr
        </CharString>
        <CharString name="V">
          -53 callgsubr
          hstem
          480 259 vstem
          476 1 callgsubr
          62 0 31 hhcurveto
          59 63 -2 -2 20 hvcurveto
          2 3 rlineto
          -2 5 -2 5 6 vvcurveto
          48 5 25 59 195 vhcurveto
          365 1055 rlineto
          -5 -13 -26 -3 -56 hhcurveto
          -79 -74 2 2 -40 hvcurveto
          -264 -905 -301 909 rlineto
          -4 -13 -50 -4 -53 hhcurveto
          -79 -44 1 3 -42 hvcurveto
          372 -1054 rlineto
          72 -227 2 -15 -21 vvcurveto
          -7 -1 -5 -3 -5 vhcurveto
          endchar
        </CharString>
        <CharString name="W">
          590 21 -21 1338 -20 -38 callsubr
          421 276 hintmask 11011000
          373 1 callgsubr
          82 0 31 hhcurveto
          59 53 -2 -2 20 hvcurveto
          2 3 rlineto
          -2 5 -2 5 6 vvcurveto
          2 48 1 21 50 199 156 620 rcurveline
          164 -623 rlineto
          47 -233 1 -9 -21 vvcurveto
          -7 -1 -5 -3 -5 vhcurveto
          -33 callgsubr
          62 0 31 hhcurveto
          59 80 -2 -2 20 hvcurveto
          2 3 rlineto
          -2 5 -2 5 6 vvcurveto
          48 3 25 58 195 vhcurveto
          hintmask 11100000
          288 1055 rlineto
          -5 -13 -36 -3 -56 hhcurveto
          -79 -51 2 2 -40 hvcurveto
          -201 -901 -234 905 rlineto
          -6 -44 -40 -2 -46 hhcurveto
          -49 -16 2 2 -40 hvcurveto
          -230 -901 -236 905 rlineto
          -4 -13 -39 -4 -53 hhcurveto
          -79 -47 1 3 -42 hvcurveto
          303 -1054 rlineto
          hintmask 11011000
          -50 callgsubr
          endchar
        </CharString>
        <CharString name="Wacute">
          590 10 callgsubr
          313 -38 callsubr
          -35 489 -33 276 hintmask 11001010
          -98 callgsubr
          hintmask 11001010
          -50 callgsubr
          hintmask 00100100
          238 3 callgsubr
          -99 callgsubr
        </CharString>
        <CharString name="Wcircumflex">
          590 -53 callgsubr
          155 331 -38 callsubr
          -158 735 -156 276 hintmask 11001010
          -98 callgsubr
          hintmask 11001010
          -50 callgsubr
          hintmask 00100100
          118 1470 -107 callgsubr
        </CharString>
        <CharString name="Wdieresis">
          590 10 callgsubr
          240 -38 callsubr
          -130 -48 callgsubr
          -136 276 hintmask 11001001
          -98 callgsubr
          hintmask 11001001
          -50 callgsubr
          hintmask 00100110
          565 3 callgsubr
          -106 callsubr
        </CharString>
        <CharString name="Wgrave">
          590 10 callgsubr
          313 -38 callsubr
          -35 489 -33 276 hintmask 11001010
          -98 callgsubr
          hintmask 11001010
          -50 callgsubr
          hintmask 00100100
          501 3 callgsubr
          rmoveto
          -93 callgsubr
        </CharString>
        <CharString name="X">
          21 -21 hstem
          36 1120 vstem
          36 hmoveto
          326 hlineto
          2 22 5 19 27 53 186 376 rcurveline
          196 -376 26 -53 6 -19 2 -22 rlinecurve
          326 hlineto
          -61 63 -68 153 -27 53 -225 423 rcurveline
          241 440 65 113 63 53 30 32 rlinecurve
          -360 hlineto
          2 -7 2 -8 -7 vvcurveto
          -17 -4 -22 -17 -36 vhcurveto
          -169 -334 -167 334 rlineto
          -18 36 -7 22 17 vvcurveto
          7 2 8 2 7 vhcurveto
          -336 hlineto
          30 -32 30 -49 58 -117 241 -451 rcurveline
          -213 -361 -72 -129 -71 -136 -53 -55 rlinecurve
          endchar
        </CharString>
        <CharString name="Y">
          21 -21 hstem
          464 275 vstem
          -97 callsubr
          endchar
        </CharString>
        <CharString name="Yacute">
          21 -21 3 callgsubr
          -39 callgsubr
          352 489 -377 275 hintmask 10010000
          -97 callsubr
          hintmask 01100000
          -99 3 callgsubr
          -99 callgsubr
        </CharString>
        <CharString name="Ycircumflex">
          21 -21 1473 -32 callsubr
          229 735 -500 275 hintmask 10010000
          -97 callsubr
          hintmask 01100000
          -219 1470 -107 callgsubr
        </CharString>
        <CharString name="Ydieresis">
          21 -21 3 callgsubr
          2 callsubr
          257 257 -50 275 -52 257 hintmask 10010000
          -97 callsubr
          hintmask 01101000
          228 3 callgsubr
          -106 callsubr
        </CharString>
        <CharString name="Ygrave">
          21 -21 3 callgsubr
          -39 callgsubr
          352 489 -377 275 hintmask 10010000
          -97 callsubr
          hintmask 01100000
          164 3 callgsubr
          rmoveto
          -93 callgsubr
        </CharString>
        <CharString name="Z">
          69 0 240 -87 87 850 240 hstem
          92 996 vstem
          -85 callgsubr
          endchar
        </CharString>
        <CharString name="Zacute">
          10 callsubr
          145 -39 callgsubr
          92 996 -742 489 hintmask 11110000
          -85 callgsubr
          hintmask 11101000
          -348 385 -99 callgsubr
        </CharString>
        <CharString name="Zcaron">
          10 callsubr
          36 -32 callsubr
          92 996 -865 735 hintmask 11110000
          -85 callgsubr
          -229 276 rmoveto
          2 21 71 1 25 hhcurveto
          21 85 -2 -1 15 hvcurveto
          hintmask 11101000
          -30 callsubr
          -4 3 rlineto
          -1 -40 -118 -2 -97 hhcurveto
          -113 -177 -97 177 rlineto
          -122 -99 1 2 -42 hvcurveto
          -3 -3 rlineto
          endchar
        </CharString>
        <CharString name="Zdotaccent">
          10 callsubr
          144 -9 callgsubr
          92 996 -668 340 hintmask 11110000
          -85 callgsubr
          -73 384 rmoveto
          hintmask 11101000
          -97 callgsubr
          endchar
        </CharString>
        <CharString name="a">
          -15 -75 callsubr
          -28 callsubr
          395 24 hintmask 10111100
          -80 callgsubr
          hintmask 01111100
          -105 callgsubr
          hintmask 10111100
          -72 callgsubr
          endchar
        </CharString>
        <CharString name="aacute">
          -15 -75 callsubr
          125 313 -28 callsubr
          12 489 -106 24 hintmask 10110101
          -80 callgsubr
          hintmask 01110101
          -105 callgsubr
          hintmask 10110101
          -72 callgsubr
          hintmask 00001010
          12 867 -99 callgsubr
        </CharString>
        <CharString name="abreve">
          -15 -75 callsubr
          160 181 -28 callsubr
          -159 10 544 24 125 7 hintmask 1011010100000000
          -80 callgsubr
          hintmask 0111010100000000
          -105 callgsubr
          hintmask 1011010100000000
          -72 callgsubr
          hintmask 0000101010000000
          196 902 -102 callsubr
        </CharString>
        <CharString name="acircumflex">
          -15 -75 callsubr
          123 331 -28 callsubr
          -171 735 -169 24 hintmask 10110101
          -80 callgsubr
          hintmask 01110101
          -105 callgsubr
          hintmask 10110101
          -72 callgsubr
          hintmask 00001010
          -168 862 -107 callgsubr
        </CharString>
        <CharString name="acute">
          -265 1190 313 hstem
          243 489 vstem
          243 1190 -99 callgsubr
        </CharString>
        <CharString name="acute.cap">
          15 callgsubr
          18 3 callgsubr
          -99 callgsubr
        </CharString>
        <CharString name="adieresis">
          -15 -75 callsubr
          125 240 -28 callsubr
          -143 -48 callgsubr
          -149 24 hintmask 1011010010000000
          -80 callgsubr
          hintmask 0111010010000000
          -105 callgsubr
          hintmask 1011010010000000
          -72 callgsubr
          hintmask 0000101100000000
          279 867 -106 callsubr
        </CharString>
        <CharString name="ae">
          -16 callsubr
          hstemhm
          125 245 337 26 203 14 hintmask 1001011110000000
          -48 callsubr
          hintmask 0110011110000000
          -63 callgsubr
          hintmask 1001011110000000
          -42 callsubr
          hintmask 1010101110000000
          -37 callsubr
          hintmask 1001011110000000
          -31 callgsubr
          endchar
        </CharString>
        <CharString name="aeacute">
          -16 callsubr
          125 -39 callgsubr
          125 245 337 26 3 489 -289 14 hintmask 1001010110100000
          -48 callsubr
          hintmask 0110010110100000
          -63 callgsubr
          hintmask 1001010110100000
          -42 callsubr
          hintmask 1010100110100000
          -37 callsubr
          hintmask 1001010110100000
          -31 callgsubr
          hintmask 0000001001000000
          366 834 -99 callgsubr
        </CharString>
        <CharString name="agrave">
          -15 -75 callsubr
          125 313 -28 callsubr
          -108 489 14 24 hintmask 10110101
          -80 callgsubr
          hintmask 01110101
          -105 callgsubr
          hintmask 10110101
          -72 callgsubr
          hintmask 00001010
          155 867 rmoveto
          -93 callgsubr
        </CharString>
        <CharString name="amacron">
          -15 -75 callsubr
          -28 callsubr
          395 24 hintmask 10111100
          -80 callgsubr
          hintmask 01111100
          -105 callgsubr
          hintmask 10111100
          -72 callgsubr
          hintmask 00000000
          -141 1030 rmoveto
          -96 callsubr
        </CharString>
        <CharString name="ampersand">
          244 -25 240 910 230 hstemhm
          62 251 -55 252 481 234 hintmask 11101000
          62 442 rmoveto
          -259 217 -208 310 166 132 56 87 101 vhcurveto
          -119 142 51 -24 38 hhcurveto
          26 21 4 8 11 hvcurveto
          103 225 -5 6 -9 -12 -25 5 -27 4 rlinecurve
          -27 3 -38 19 -105 85 rrcurveto
          54 109 27 120 113 vvcurveto
          19 -17 0 -113 44 vhcurveto
          -69 27 -76 31 0 vvcurveto
          -12 vlineto
          11 -7 30 -42 -61 vvcurveto
          -68 -12 -61 -20 -54 vhcurveto
          -104 94 rlineto
          hintmask 11011000
          -302 271 -43 87 77 vvcurveto
          66 47 50 98 95 98 -47 -47 33 vhcurveto
          5 7 -3 13 9 -2 -3 32 rlinecurve
          -4 42 4 107 3 65 rrcurveto
          32 -56 -81 28 -94 hhcurveto
          -236 -167 -148 -207 -66 15 -64 42 -72 hvcurveto
          hintmask 11101000
          -140 -65 -113 -124 -167 vvcurveto
          251 17 rmoveto
          75 36 65 73 53 vhcurveto
          66 -76 90 -89 119 -109 108 -99 rcurveline
          -42 -61 -71 -22 -74 hhcurveto
          -161 -125 113 131 hvcurveto
          endchar
        </CharString>
        <CharString name="aogonek">
          9 callgsubr
          308 -75 callsubr
          -28 callsubr
          184 245 -34 24 hintmask 11011110
          128 316 rmoveto
          -216 163 -115 278 44 46 9 13 46 vhcurveto
          -99 -99 -34 -109 -45 vvcurveto
          -234 197 -75 -71 callgsubr
          -109 11 94 96 92 80 174 158 hvcurveto
          27 25 rlineto
          -81 hlineto
          -215 -49 -43 -26 -36 -29 -30 -30 rlinecurve
          46 14 45 19 41 22 rrcurveto
          hintmask 10111101
          24 -39 31 -28 37 -20 26 24 rcurveline
          128 117 27 25 rlineto
          -54 28 -28 47 83 vvcurveto
          362 vlineto
          252 -157 152 -289 -139 -147 -39 -54 -101 vhcurveto
          30 -221 3 -2 rlineto
          53 56 154 49 106 hhcurveto
          151 79 -43 -153 8 hvcurveto
          -16 2 -22 1 -16 1 rrcurveto
          -393 12 -207 -166 -189 vvcurveto
          260 7 rmoveto
          87 104 81 241 -12 vhcurveto
          20 -1 16 -1 14 -2 rrcurveto
          -185 vlineto
          -16 0 -16 1 -15 vhcurveto
          hintmask 11011110
          -72 callgsubr
          endchar
        </CharString>
        <CharString name="approxequal">
          244 33 230 35 236 85 230 35 236 hstemhm
          44 1267 -1258 1267 hintmask 00110100
          67 699 -77 callsubr
          hintmask 11001000
          -3 -589 -77 callsubr
          endchar
        </CharString>
        <CharString name="aring">
          -15 -75 callsubr
          115 -11 callgsubr
          -28 callsubr
          -83 -11 callsubr
          -80 24 hintmask 1011001001000000
          -80 callgsubr
          hintmask 0111001001000000
          -105 callgsubr
          hintmask 1011001001000000
          -72 callgsubr
          hintmask 0000110110000000
          188 857 -91 callgsubr
        </CharString>
        <CharString name="asciicircum">
          510 905 -206 206 hstem
          81 1030 vstem
          81 510 rmoveto
          281 hlineto
          227 611 240 -611 rlineto
          282 hlineto
          -417 905 rlineto
          -214 hlineto
          endchar
        </CharString>
        <CharString name="asciitilde">
          415 313 230 35 236 hstem
          134 1267 vstem
          148 393 -77 callsubr
          endchar
        </CharString>
        <CharString name="asterisk">
          724 881 hstem
          129 934 vstem
          479 724 rmoveto
          233 hlineto
          -37 307 254 -206 134 186 -313 150 303 146 -151 181 -228 -201 42 318 rlineto
          -244 hlineto
          40 -306 -225 217 -157 -180 288 -170 -289 -133 128 -191 258 199 rlineto
          -13 -111 -23 -203 -3 vvcurveto
          endchar
        </CharString>
        <CharString name="at">
          1265 -487 214 258 230 -230 235 425 230 -145 125 285 209 hstemhm
          150 257 1569 259 hintmask 11001111
          155 428 rmoveto
          -579 -55 395 -336 653 hhcurveto
          250 192 52 74 148 hvcurveto
          95 240 -6 3 rlineto
          -71 -76 -284 -84 -290 hhcurveto
          -526 -278 303 391 37 hvcurveto
          379 36 303 340 516 hhcurveto
          471 272 -285 -370 -35 hvcurveto
          -189 -18 -95 -81 -106 hhcurveto
          -101 -20 56 129 13 hvcurveto
          43 455 rlineto
          -253 hlineto
          -2 -19 rlineto
          hintmask 11010111
          25 -62 -65 14 -72 hhcurveto
          -305 -239 -200 -243 -23 hvcurveto
          -233 -22 164 -214 313 hhcurveto
          125 113 38 63 95 hvcurveto
          -61 55 87 -40 126 hhcurveto
          231 243 188 350 34 hvcurveto
          419 39 -322 407 -675 hhcurveto
          -593 -480 -439 -482 -46 hvcurveto
          776 6 rmoveto
          120 11 111 91 164 hhcurveto
          84 67 -21 -26 43 hvcurveto
          -25 -266 -2 -19 -1 -19 1 -18 rlinecurve
          hintmask 10110111
          -35 -58 -79 -21 -72 hhcurveto
          -177 -79 92 122 12 hvcurveto
          endchar
        </CharString>
        <CharString name="atilde">
          -15 -75 callsubr
          108 -41 callsubr
          128 260 -140 670 -135 24 hintmask 1011001010000000
          -80 callgsubr
          hintmask 0111001010000000
          -105 callgsubr
          hintmask 1011001010000000
          -72 callgsubr
          hintmask 0000010100000000
          -134 882 -55 callgsubr
          hintmask 0000100100000000
          -93 callsubr
          hintmask 0000010100000000
          -87 callsubr
        </CharString>
        <CharString name="b">
          67 6 callsubr
          615 230 hstem
          -37 callgsubr
          473 245 vstem
          -67 callsubr
          endchar
        </CharString>
        <CharString name="backslash">
          14 callsubr
          256 1530 rmoveto
          -256 hlineto
          599 -1700 rlineto
          256 hlineto
          endchar
        </CharString>
        <CharString name="bar">
          -191 -170 1700 hstem
          337 255 vstem
          337 35 rmoveto
          -82 -1 -80 -3 -43 vhcurveto
          263 -84 callgsubr
          1405 vlineto
          -54 callsubr
          endchar
        </CharString>
        <CharString name="braceleft">
          -94 -105 205 1140 205 hstemhm
          267 256 -114 272 hintmask 11100000
          267 160 rmoveto
          -146 110 -119 254 44 30 2 10 62 vhcurveto
          -10 203 -4 2 -29 -9 -24 0 -26 -3 rlinecurve
          -88 -10 -63 56 57 vvcurveto
          42 30 46 78 84 vhcurveto
          hintmask 11010000
          31 67 19 57 47 vvcurveto
          48 -69 42 -90 29 vhcurveto
          85 28 74 44 56 vvcurveto
          53 -22 56 -36 76 vhcurveto
          hintmask 11100000
          -70 67 -30 57 47 vvcurveto
          54 59 44 83 -7 vhcurveto
          25 -2 26 -1 37 -9 4 2 rcurveline
          10 203 rlineto
          7 -43 -54 5 -39 hhcurveto
          -261 -103 -155 -124 -67 22 -80 65 -62 hvcurveto
          hintmask 11010000
          42 -84 13 -34 -43 vvcurveto
          -52 -81 -23 -106 -18 vhcurveto
          -55 vlineto
          123 -22 64 -37 -55 vvcurveto
          -47 -20 -42 -36 -82 vhcurveto
          hintmask 11100000
          -75 -76 -11 -72 -55 vvcurveto
          endchar
        </CharString>
        <CharString name="braceright">
          -94 -105 205 1140 205 hstemhm
          308 272 -114 256 hintmask 11010000
          hintmask 11100000
          722 160 rmoveto
          55 -11 72 -75 76 vhcurveto
          -36 82 -20 42 47 vvcurveto
          55 64 37 123 22 vhcurveto
          55 vlineto
          hintmask 11010000
          -106 18 -81 23 52 vvcurveto
          43 13 34 42 84 vhcurveto
          65 62 22 80 67 vvcurveto
          124 -103 155 -261 -39 -54 -5 -7 -43 vhcurveto
          10 -203 4 -2 37 9 26 1 25 2 rlinecurve
          hintmask 11100000
          83 7 59 -44 -54 vvcurveto
          -47 -30 -57 -70 -67 vhcurveto
          -36 -76 -22 -56 -53 vvcurveto
          -56 74 -44 85 -28 vhcurveto
          hintmask 11010000
          -90 -29 -69 -42 -48 vvcurveto
          -47 19 -57 31 -67 vhcurveto
          78 -84 30 -46 -42 vvcurveto
          -57 -63 -56 -88 10 vhcurveto
          -26 3 -24 0 -29 9 -4 -2 rcurveline
          -10 -203 rlineto
          -10 62 30 -2 44 hhcurveto
          254 110 119 146 hvcurveto
          endchar
        </CharString>
        <CharString name="bracketleft">
          17 callgsubr
          199 259 vstem
          199 -1 rmoveto
          -52 0 -15 -4 -42 vhcurveto
          279 hlineto
          43 152 -82 callgsubr
          -5 -20 -148 -44 callgsubr
          -9 1068 rlineto
          83 148 -1 -5 20 hvcurveto
          3 247 rlineto
          -4 -39 -152 -1 -43 hhcurveto
          -280 hlineto
          4 -52 1 -180 -86 vvcurveto
          endchar
        </CharString>
        <CharString name="bracketright">
          17 callgsubr
          444 259 vstem
          703 1112 rmoveto
          86 1 180 4 52 vhcurveto
          -280 hlineto
          -43 -152 1 4 -39 hvcurveto
          3 -247 rlineto
          5 20 148 1 83 hhcurveto
          -9 -1068 rlineto
          -74 -148 1 5 -20 hvcurveto
          -3 -247 rlineto
          4 39 152 1 43 hhcurveto
          279 hlineto
          -4 42 0 15 52 vvcurveto
          endchar
        </CharString>
        <CharString name="breve">
          103 1225 15 callsubr
          1225 -102 callsubr
        </CharString>
        <CharString name="breve.cap">
          103 1421 15 callsubr
          1421 -102 callsubr
        </CharString>
        <CharString name="brokenbar">
          -191 -170 677 344 679 hstem
          337 255 vstem
          333 851 rmoveto
          263 -84 callgsubr
          384 vlineto
          -54 callsubr
          -391 vlineto
          -52 -1 -15 -3 -42 vhcurveto
          4 -842 rmoveto
          -92 -1 -45 -3 -42 vhcurveto
          263 -84 callgsubr
          382 vlineto
          -54 callsubr
          endchar
        </CharString>
        <CharString name="bullet">
          -260 479 466 hstem
          162 536 vstem
          434 479 rmoveto
          141 123 88 146 115 -108 117 -164 -160 -104 -113 -121 -139 126 -93 146 hvcurveto
          endchar
        </CharString>
        <CharString name="c">
          -21 callgsubr
          hstem
          85 265 vstem
          -95 callsubr
          endchar
        </CharString>
        <CharString name="cacute">
          -21 callgsubr
          125 -39 callgsubr
          85 265 53 489 hintmask 11010000
          -95 callsubr
          hintmask 00101000
          318 684 -99 callgsubr
        </CharString>
        <CharString name="caron">
          -107 1185 20 callsubr
          1185 -100 callgsubr
        </CharString>
        <CharString name="caron.cap">
          -107 1366 20 callsubr
          1366 -100 callgsubr
        </CharString>
        <CharString name="caronvertical">
          -618 943 502 hstem
          145 234 vstem
          135 943 rmoveto
          142 29 23 3 -59 callgsubr
          -229 -41 callgsubr
          5 -115 -20 -34 rrcurveto
          endchar
        </CharString>
        <CharString name="ccaron">
          -21 callgsubr
          120 -32 callsubr
          85 265 -130 735 hintmask 11010000
          -95 callsubr
          hintmask 00101000
          377 679 -100 callgsubr
        </CharString>
        <CharString name="ccedilla">
          -94 -15 225 -189 -21 835 230 hstemhm
          85 265 65 225 hintmask 01111000
          415 hmoveto
          1 -134 -20 -220 -51 -72 -51 callsubr
          hintmask 10111000
          42 -2 36 -6 45 vhcurveto
          137 3 120 34 75 75 -23 244 rcurveline
          -7 3 rlineto
          -69 -38 -120 -65 -132 hhcurveto
          -202 -92 139 191 173 100 122 165 145 87 -28 -78 65 hvcurveto
          7 -1 40 256 rlineto
          58 -90 -92 23 -128 hhcurveto
          -360 -204 -250 -309 -259 145 -181 218 -60 hvcurveto
          endchar
        </CharString>
        <CharString name="ccircumflex">
          -21 callgsubr
          123 -32 callsubr
          85 265 -130 735 hintmask 11010000
          -95 callsubr
          hintmask 00101000
          138 679 -107 callgsubr
        </CharString>
        <CharString name="cdotaccent">
          -21 callgsubr
          127 -9 callgsubr
          85 265 67 340 hintmask 11010000
          -95 callsubr
          hintmask 00101000
          533 686 -4 callgsubr
          endchar
        </CharString>
        <CharString name="cedilla">
          -447 21 -21 hstem
          240 225 vstem
          240 hmoveto
          1 -134 -20 -220 -51 -72 -51 callsubr
          57 -4 47 -12 74 vhcurveto
          endchar
        </CharString>
        <CharString name="cent">
          244 16 callgsubr
          610 240 -112 111 hstemhm
          151 262 239 256 -249 256 hintmask 01001101
          151 496 rmoveto
          -279 207 -216 301 -24 vhcurveto
          -37 vlineto
          hintmask 10001101
          7 callsubr
          66 vlineto
          101 19 97 36 60 56 14 295 rcurveline
          -7 6 rlineto
          hintmask 00101101
          -116 -52 -168 -76 -169 hhcurveto
          -237 -141 141 176 hvcurveto
          hintmask 01010110
          158 118 135 244 124 165 -36 -61 71 vhcurveto
          9 9 28 272 -68 26 -94 17 -102 8 rlinecurve
          72 vlineto
          43 1 42 3 39 vhcurveto
          -269 hlineto
          5 -20 4 -41 -74 vvcurveto
          -67 vlineto
          -297 -50 -204 -218 -290 vvcurveto
          endchar
        </CharString>
        <CharString name="circumflex">
          -176 1188 331 hstem
          97 735 vstem
          100 1185 -107 callgsubr
        </CharString>
        <CharString name="circumflex.cap">
          -596 1473 331 hstem
          -105 735 vstem
          -102 1470 -107 callgsubr
        </CharString>
        <CharString name="colon">
          -610 0 264 346 -2 callsubr
          610 rmoveto
          -92 callsubr
          -610 vmoveto
          -92 callsubr
          endchar
        </CharString>
        <CharString name="comma">
          -610 -292 552 hstem
          158 254 vstem
          158 43 rmoveto
          -1 -134 -35 -152 -25 -43 -83 callsubr
          38 23 36 152 129 vvcurveto
          57 -4 47 -12 74 vhcurveto
          -249 -40 rlineto
          9 -67 2 -58 -52 vvcurveto
          endchar
        </CharString>
        <CharString name="commaaccent">
          -636 -26 callsubr
          hstem
          160 254 vstem
          149 -191 rmoveto
          9 -67 2 -58 -52 vvcurveto
          -1 -134 -35 -62 -25 -43 -83 callsubr
          38 23 36 62 129 vvcurveto
          57 -4 47 -12 74 vhcurveto
          endchar
        </CharString>
        <CharString name="copyright">
          757 115 220 146 206 242 206 141 199 hstem
          173 235 174 223 663 235 vstem
          173 -66 callgsubr
          174 6 rmoveto
          -177 146 -142 233 90 96 22 42 51 vhcurveto
          205 vlineto
          -2 1 rlineto
          -34 -34 -93 -30 -71 hhcurveto
          -117 -76 48 73 70 62 51 119 68 95 -25 -36 38 hvcurveto
          1 227 hlineto
          19 -39 -97 21 -68 hhcurveto
          -242 -160 -151 -184 hvcurveto
          endchar
        </CharString>
        <CharString name="currency">
          415 239 236 360 230 hstem
          319 250 414 244 vstem
          210 274 rmoveto
          190 -191 11 18 26 32 52 52 rlinecurve
          88 88 rlineto
          -22 55 62 -12 66 hhcurveto
          72 66 13 24 59 hvcurveto
          90 -90 53 -52 26 -32 10 -17 rlinecurve
          191 190 -30 25 -31 29 -30 31 rlinecurve
          -77 76 rlineto
          44 64 24 76 78 vvcurveto
          74 -21 73 -39 64 vhcurveto
          65 65 52 52 32 26 18 11 rlinecurve
          -191 190 -25 -30 -29 -30 -30 -31 rlinecurve
          -89 -88 rlineto
          22 -54 -63 13 -69 hhcurveto
          -84 -72 -16 -27 -61 hvcurveto
          -92 93 -31 30 -29 31 -25 30 rlinecurve
          -190 -191 17 -10 32 -26 52 -53 rlinecurve
          75 -75 rlineto
          -38 -65 -19 -72 -70 vvcurveto
          -78 21 -70 38 -60 vhcurveto
          -77 -78 -31 -30 -30 -29 -30 -25 rlinecurve
          359 380 rmoveto
          94 80 87 124 127 83 -90 -89 -113 -95 -68 -109 -113 -97 72 107 vhcurveto
          endchar
        </CharString>
        <CharString name="d">
          77 4 callsubr
          hstem
          88 242 481 245 vstem
          -87 callgsubr
          endchar
        </CharString>
        <CharString name="dagger">
          -265 809 236 6 -20 hstemhm
          300 255 hintmask 10100000
          300 -45 rmoveto
          -82 -1 -80 -3 -43 vhcurveto
          263 -84 callgsubr
          947 43 vlineto
          -40 callgsubr
          hintmask 01100000
          -3 247 rlineto
          hintmask 10100000
          -85 callsubr
          -32 202 hlineto
          -54 callsubr
          -206 -32 vlineto
          hintmask 01100000
          -61 callgsubr
          -3 -247 rlineto
          hintmask 10100000
          -71 callsubr
          43 hlineto
          endchar
        </CharString>
        <CharString name="daggerdbl">
          -265 273 236 300 236 6 -20 hstemhm
          300 255 hintmask 11010000
          133 268 -34 callsubr
          43 -318 hlineto
          -82 -1 -80 -3 -43 vhcurveto
          263 -84 callgsubr
          411 43 vlineto
          -96 callgsubr
          -32 300 43 hlineto
          -40 callgsubr
          hintmask 10110000
          -3 247 rlineto
          hintmask 11010000
          -85 callsubr
          -32 202 hlineto
          -54 callsubr
          -206 -32 vlineto
          hintmask 10110000
          -61 callgsubr
          -3 -247 rlineto
          hintmask 11010000
          -71 callsubr
          43 -300 -32 -52 callsubr
        </CharString>
        <CharString name="dcaron">
          307 4 callsubr
          -122 502 hstemhm
          88 242 481 245 138 234 hintmask 11011000
          -87 callgsubr
          hintmask 00100100
          854 409 rmoveto
          142 29 23 3 -59 callgsubr
          -229 -41 callgsubr
          5 -115 -20 -34 rrcurveto
          endchar
        </CharString>
        <CharString name="dcroat">
          122 4 callsubr
          106 176 6 -20 hstemhm
          88 242 286 556 -361 245 hintmask 11101100
          88 509 rmoveto
          -299 197 -225 317 72 100 20 51 90 vhcurveto
          22 -30 28 -23 34 -18 188 166 rcurveline
          hintmask 11101010
          -65 46 -15 44 180 vvcurveto
          750 vlineto
          41 40 -1 -4 37 hvcurveto
          hintmask 11011100
          -3 187 rlineto
          hintmask 11101010
          -5 -19 -34 -1 -62 hhcurveto
          143 -245 -143 -61 vlineto
          hintmask 11011100
          -61 callgsubr
          -3 -187 rlineto
          hintmask 11101100
          -71 callsubr
          hintmask 11101010
          72 -126 hlineto
          13 -48 -53 7 -50 hhcurveto
          -337 -235 -242 -314 hvcurveto
          242 25 rmoveto
          173 128 123 191 63 53 -10 -19 46 vhcurveto
          -554 vlineto
          -23 -49 -53 -9 -57 hhcurveto
          -214 -108 136 183 hvcurveto
          endchar
        </CharString>
        <CharString name="degree">
          -94 732 193 314 187 hstem
          153 203 317 199 vstem
          502 732 rmoveto
          219 151 152 196 175 -142 171 -208 -236 -133 -168 -185 -194 147 -147 202 hvcurveto
          18 193 rmoveto
          -102 -62 66 89 86 62 73 95 103 57 -73 -83 -94 -65 -64 -88 hvcurveto
          endchar
        </CharString>
        <CharString name="dieresis">
          -251 1190 240 hstem
          100 -48 callgsubr
          vstem
          522 1190 -106 callsubr
        </CharString>
        <CharString name="dieresis.cap">
          -596 3 callgsubr
          240 hstem
          -77 -48 callgsubr
          vstem
          345 3 callgsubr
          -106 callsubr
        </CharString>
        <CharString name="divide">
          244 97 264 139 236 149 264 hstemhm
          228 906 -587 283 hintmask 00000000
          hintmask 11101000
          538 885 rmoveto
          hintmask 11110000
          -92 callsubr
          -311 -390 rmoveto
          hintmask 11101000
          -62 callgsubr
          308 -645 rmoveto
          -92 callsubr
          endchar
        </CharString>
        <CharString name="dollar">
          16 callgsubr
          901 239 -112 111 hstemhm
          198 256 58 165 -156 256 14 258 hintmask 0100111010000000
          144 110 rmoveto
          49 -53 106 -49 122 -21 rrcurveto
          -47 vlineto
          hintmask 1000111010000000
          7 callsubr
          59 vlineto
          254 51 118 206 173 vvcurveto
          170 -88 119 -272 90 vhcurveto
          -181 60 -54 58 62 vvcurveto
          hintmask 0101010110000000
          67 78 72 129 66 116 -31 -50 93 vhcurveto
          7 2 31 247 -64 33 -65 21 -68 10 rlinecurve
          74 vlineto
          43 1 42 3 39 vhcurveto
          hintmask 0100111010000000
          -269 hlineto
          hintmask 0100110110000000
          5 -20 4 -41 -74 vvcurveto
          -80 vlineto
          -199 -61 -124 -164 -156 vvcurveto
          -174 84 -113 283 -112 vhcurveto
          176 -70 50 -43 -69 vvcurveto
          hintmask 0010111010000000
          -84 -94 -70 -135 -157 -177 80 73 -48 vhcurveto
          -7 -6 rlineto
          endchar
        </CharString>
        <CharString name="dotaccent">
          -444 1192 21 callgsubr
          1192 -4 callgsubr
          endchar
        </CharString>
        <CharString name="dotaccent.cap">
          -444 1474 21 callgsubr
          1474 -4 callgsubr
          endchar
        </CharString>
        <CharString name="dotlessi">
          5 callgsubr
          hstem
          128 250 vstem
          128 hmoveto
          -78 callsubr
          endchar
        </CharString>
        <CharString name="dotlessj">
          -605 11 callsubr
          hstem
          132 245 vstem
          132 65 rmoveto
          -158 -53 -64 callsubr
          -3 callgsubr
          endchar
        </CharString>
        <CharString name="e">
          -69 callsubr
          hstem
          332 14 vstem
          -106 callgsubr
          endchar
        </CharString>
        <CharString name="eacute">
          -69 callsubr
          125 -39 callgsubr
          332 14 82 489 hintmask 11101000
          -106 callgsubr
          hintmask 00010100
          69 554 -99 callgsubr
        </CharString>
        <CharString name="ebreve">
          -69 callsubr
          160 181 hstemhm
          257 10 65 14 614 7 hintmask 11100100
          -106 callgsubr
          hintmask 00011010
          253 589 -102 callsubr
        </CharString>
        <CharString name="ecaron">
          -69 callsubr
          120 -32 callsubr
          245 735 -648 14 hintmask 11100100
          -106 callgsubr
          hintmask 00011000
          128 549 -100 callgsubr
        </CharString>
        <CharString name="ecircumflex">
          -69 callsubr
          123 -32 callsubr
          245 735 -648 14 hintmask 11100100
          -106 callgsubr
          hintmask 00011000
          -111 549 -107 callgsubr
        </CharString>
        <CharString name="edieresis">
          -69 callsubr
          125 2 callsubr
          273 257 -198 14 357 257 hintmask 11100100
          -106 callgsubr
          hintmask 00011010
          336 554 -106 callsubr
        </CharString>
        <CharString name="edotaccent">
          -69 callsubr
          127 -9 callgsubr
          332 14 96 340 hintmask 11101000
          -106 callgsubr
          hintmask 00010100
          284 556 -4 callgsubr
          endchar
        </CharString>
        <CharString name="egrave">
          -69 callsubr
          125 -39 callgsubr
          308 489 -465 14 hintmask 11100100
          -106 callgsubr
          hintmask 00011000
          212 554 rmoveto
          -93 callgsubr
        </CharString>
        <CharString name="eight">
          244 -28 230 925 230 hstemhm
          95 266 -175 255 500 255 -193 265 hintmask 11100100
          95 400 rmoveto
          -291 299 -137 301 353 220 160 268 123 -71 132 -161 55 vhcurveto
          hintmask 11011000
          100 58 60 92 114 vvcurveto
          194 -171 189 -331 -333 -175 -175 -208 -112 45 -80 78 -62 vhcurveto
          hintmask 11101000
          -132 -66 -82 -132 -122 vvcurveto
          hintmask 11011000
          346 578 rmoveto
          83 89 66 151 168 94 -62 -95 -2 vhcurveto
          -2 -82 -59 -75 -80 -40 rrcurveto
          -261 40 -98 81 84 vvcurveto
          hintmask 11100100
          -80 -553 rmoveto
          63 39 67 85 49 vhcurveto
          50 -21 66 -19 117 -22 rrcurveto
          187 -36 98 -35 -92 vvcurveto
          -135 -109 -44 -188 2 vhcurveto
          -253 3 -92 92 128 vvcurveto
          endchar
        </CharString>
        <CharString name="ellipsis">
          410 0 264 hstem
          118 283 227 283 227 283 cntrmask 01110000
          1129 -32 callgsubr
          -510 -32 callgsubr
          -510 -32 callgsubr
          endchar
        </CharString>
        <CharString name="emacron">
          -69 callsubr
          hstemhm
          332 14 vstemhm
          -106 callgsubr
          -84 717 rmoveto
          -96 callsubr
        </CharString>
        <CharString name="emdash">
          575 500 236 hstemhm
          162 1368 -1367 1365 hintmask 00000000
          hintmask 11000000
          162 495 rmoveto
          hintmask 10100000
          -71 callsubr
          1120 hlineto
          -96 callgsubr
          -1098 -52 callsubr
        </CharString>
        <CharString name="endash">
          233 500 236 hstem
          160 1028 vstem
          159 495 -34 callsubr
          783 hlineto
          -96 callgsubr
          -761 -52 callsubr
        </CharString>
        <CharString name="eng">
          77 -512 230 303 -13 callsubr
          hstemhm
          167 243 400 243 hintmask 11101100
          167 hmoveto
          251 -24 callgsubr
          571 vlineto
          93 61 77 43 84 hhcurveto
          105 73 -79 -214 hvcurveto
          -2 -604 rlineto
          -158 -54 -62 -93 -50 -37 11 27 -40 vhcurveto
          -2 -5 104 -263 rlineto
          230 153 91 291 26 hvcurveto
          9 103 -1 256 431 vvcurveto
          243 -141 162 -219 -100 -91 -34 -75 -92 vhcurveto
          hintmask 11011100
          89 -243 vlineto
          endchar
        </CharString>
        <CharString name="eogonek">
          77 9 callgsubr
          308 -62 callsubr
          hstem
          332 14 196 235 vstem
          97 516 rmoveto
          -311 245 -215 330 -5 vhcurveto
          -99 -92 -31 -94 -55 vvcurveto
          -234 177 -65 -49 callgsubr
          30 41 121 190 114 hvcurveto
          18 11 9 115 4 62 3 65 rlinecurve
          -35 -41 -123 -50 -154 hhcurveto
          -202 -131 84 142 -35 hvcurveto
          -1 84 174 1 94 hhcurveto
          186 155 10 18 66 hvcurveto
          6 16 6 41 51 vvcurveto
          270 -181 213 -288 -340 -221 -242 -307 vhcurveto
          262 120 rmoveto
          129 35 99 90 134 hhcurveto
          143 67 -90 -125 24 hvcurveto
          -4 -69 -111 -3 -61 hhcurveto
          -60 -136 0 3 -65 hvcurveto
          endchar
        </CharString>
        <CharString name="equal">
          244 300 18 callsubr
          vstem
          227 715 rmoveto
          -62 callgsubr
          -3 -667 rmoveto
          -62 callgsubr
          endchar
        </CharString>
        <CharString name="eth">
          6 callsubr
          445 230 hstem
          91 258 481 244 vstem
          91 443 rmoveto
          -248 206 -210 278 264 235 210 309 218 -100 235 -175 205 vhcurveto
          154 58 -56 173 -239 -87 -49 44 -52 41 -56 39 rlinecurve
          -320 hlineto
          93 -70 84 -69 73 -68 -222 -80 rcurveline
          57 -182 307 116 62 -72 50 -70 40 -70 rlinecurve
          19 -52 -54 11 -50 hhcurveto
          -240 -238 -134 -318 hvcurveto
          258 22 rmoveto
          135 112 65 115 119 78 -39 -114 56 vhcurveto
          -6 1 -5 -5 vvcurveto
          -196 -122 -80 -110 -145 -104 116 129 vhcurveto
          endchar
        </CharString>
        <CharString name="exclam">
          -436 0 240 1114 -20 hstemhm
          212 258 -253 257 hintmask 00000000
          hintmask 11100000
          213 380 rmoveto
          80 hlineto
          79 74 -4 -2 22 hvcurveto
          4 988 rlineto
          -5 -21 -57 -3 -70 hhcurveto
          -31 -16 1 3 -66 hvcurveto
          hintmask 11010000
          -2 -1358 rmoveto
          -98 callsubr
        </CharString>
        <CharString name="exclamdown">
          -436 8 20 1094 2 callsubr
          209 257 -253 258 hintmask 00000000
          hintmask 11010000
          470 982 rmoveto
          -80 hlineto
          -79 -74 4 2 -22 hvcurveto
          -4 -988 rlineto
          5 21 57 3 70 hhcurveto
          31 16 -1 -3 66 hvcurveto
          hintmask 11100000
          2 1358 -36 callsubr
        </CharString>
        <CharString name="f">
          -436 -22 callgsubr
          hstem
          -37 callgsubr
          vstem
          -94 callgsubr
          endchar
        </CharString>
        <CharString name="ff">
          248 -22 callgsubr
          -27 callgsubr
          439 245 hintmask 11110000
          -94 callgsubr
          hintmask 11101000
          684 -696 rmoveto
          -92 callgsubr
          endchar
        </CharString>
        <CharString name="fi">
          77 21 -21 696 234 115 -20 274 230 -186 -20 -27 callgsubr
          415 250 hintmask 11010100
          -94 callgsubr
          hintmask 10101010
          872 485 rmoveto
          54 79 46 63 57 71 -215 169 rcurveline
          -46 -51 -66 -81 -55 -88 rrcurveto
          13 -1343 rmoveto
          -78 callsubr
          endchar
        </CharString>
        <CharString name="five">
          244 -25 233 477 211 198 236 hstem
          248 235 470 271 vstem
          186 113 rmoveto
          -92 110 142 -46 199 hhcurveto
          339 248 212 299 222 -181 188 -357 -61 -80 -8 -13 -62 hvcurveto
          219 396 vlineto
          112 58 5 16 33 hvcurveto
          24 244 -4 3 rlineto
          -27 -30 -124 -5 -73 hhcurveto
          -627 -726 hlineto
          52 94 165 29 139 hhcurveto
          202 105 -107 -136 -134 -122 -100 -190 -212 -151 68 127 -93 hvcurveto
          -10 -7 rlineto
          endchar
        </CharString>
        <CharString name="fl">
          77 -22 callgsubr
          -27 callgsubr
          416 250 hintmask 11110000
          -94 callgsubr
          hintmask 10001000
          661 -696 -3 callsubr
        </CharString>
        <CharString name="florin">
          -260 696 234 325 230 hstem
          89 784 vstem
          116 -170 rmoveto
          245 hlineto
          96 866 rlineto
          270 hlineto
          9 88 9 86 8 46 6 14 rlinecurve
          -276 hlineto
          6 53 rlineto
          165 17 94 107 141 hhcurveto
          52 34 -17 -21 19 hvcurveto
          2 5 25 251 rlineto
          8 -19 -68 4 -27 hhcurveto
          -298 -189 -225 -312 -31 hvcurveto
          -2 -18 rlineto
          -126 hlineto
          -24 -234 rlineto
          124 hlineto
          endchar
        </CharString>
        <CharString name="four">
          0 563 -213 213 613 153 hstemhm
          667 255 hintmask 01110000
          51 350 rmoveto
          616 hlineto
          hintmask 10110000
          -350 255 vlineto
          hintmask 01110000
          350 184 vlineto
          73 232 -5 7 rlineto
          -19 -71 -80 -7 -101 hhcurveto
          767 vlineto
          -322 -2 -553 -904 rlineto
          347 139 rmoveto
          273 474 rlineto
          -474 vlineto
          endchar
        </CharString>
        <CharString name="fraction">
          233 21 -21 hstem
          179 995 vstem
          179 hmoveto
          -52 callgsubr
          endchar
        </CharString>
        <CharString name="g">
          -43 callgsubr
          -43 callsubr
          438 -1 callgsubr
          hintmask 11110001
          229 -20 rmoveto
          -111 -61 -56 -102 4 -138 rrcurveto
          -240 6 220 -155 330 hhcurveto
          326 170 132 240 225 -115 136 -332 52 hvcurveto
          hintmask 11100110
          -262 41 -30 32 48 vvcurveto
          22 12 33 25 33 vhcurveto
          -19 56 62 -10 66 hhcurveto
          279 178 191 224 69 -15 62 -28 54 hvcurveto
          58 11 62 20 35 37 -4 29 -45 180 -19 53 -6 1 rcurveline
          -46 -50 -122 -64 -101 -43 rrcurveto
          27 -62 -71 15 -79 hhcurveto
          hintmask 11101010
          -296 -182 -194 -230 -108 42 -91 71 -67 hvcurveto
          hintmask 11100110
          -58 -46 -39 -65 -77 vvcurveto
          -88 16 -69 61 -50 vhcurveto
          hintmask 11101010
          147 673 rmoveto
          105 73 93 154 133 81 -75 -118 -112 -101 -83 -104 -153 -83 97 93 vhcurveto
          hintmask 11110001
          -63 -959 rmoveto
          -1 78 40 80 88 46 52 -9 rcurveline
          306 -44 82 -74 1 -103 rrcurveto
          -92 1 -52 -80 -195 hhcurveto
          -197 -124 91 107 -1 hvcurveto
          endchar
        </CharString>
        <CharString name="gbreve">
          -43 callgsubr
          160 181 -43 callsubr
          -94 10 522 -1 callgsubr
          -130 7 -103 callgsubr
          hintmask 0001000100100000
          327 1531 -102 callsubr
        </CharString>
        <CharString name="gcircumflex">
          -43 callgsubr
          123 331 -43 callsubr
          -106 735 -191 -1 callgsubr
          -103 callgsubr
          hintmask 0001000100000000
          -37 1491 -107 callgsubr
        </CharString>
        <CharString name="gcommaaccent">
          -43 callgsubr
          245 462 -43 callsubr
          45 254 139 -1 callgsubr
          -103 callgsubr
          hintmask 0001000100000000
          376 1656 rmoveto
          -9 67 -2 58 52 vvcurveto
          1 134 35 62 25 43 -6 6 rcurveline
          -142 -29 -63 -23 -30 -18 rrcurveto
          -38 -23 -36 -62 -129 vvcurveto
          -57 4 -47 12 -74 vhcurveto
          endchar
        </CharString>
        <CharString name="gdotaccent">
          -43 callgsubr
          127 340 -43 callsubr
          91 340 7 -1 callgsubr
          -103 callgsubr
          hintmask 0001000100000000
          358 1498 -4 callgsubr
          endchar
        </CharString>
        <CharString name="germandbls">
          -15 228 1023 209 hstemhm
          127 245 165 244 -78 247 -15 247 hintmask 00000000
          hintmask 11101000
          58 -271 rmoveto
          -5 vlineto
          201 -131 rlineto
          71 54 42 99 209 vvcurveto
          894 vlineto
          304 83 83 121 79 48 -42 -42 -37 -13 -45 -63 -70 vhcurveto
          -64 -71 -26 -55 -76 vvcurveto
          hintmask 11110100
          -98 57 -63 151 -91 vhcurveto
          154 -78 36 -65 -44 vvcurveto
          -93 -54 -53 -107 -92 -75 17 65 -66 vhcurveto
          -4 -5 10 -250 rlineto
          -31 49 98 -24 101 hhcurveto
          260 127 174 162 151 -40 113 -174 102 hvcurveto
          -147 94 -40 40 27 vvcurveto
          29 10 17 47 48 vhcurveto
          92 94 20 56 70 vvcurveto
          hintmask 11101000
          161 -151 122 -197 -296 -179 -184 -451 vhcurveto
          -539 vlineto
          -377 -5 -121 -64 -44 vhcurveto
          endchar
        </CharString>
        <CharString name="grave">
          -317 1190 313 hstem
          132 489 vstem
          395 1190 rmoveto
          -93 callgsubr
        </CharString>
        <CharString name="grave.cap">
          15 callgsubr
          281 3 callgsubr
          rmoveto
          -93 callgsubr
        </CharString>
        <CharString name="greater">
          239 6 -21 hstem
          342 675 vstem
          342 -15 rmoveto
          675 449 rlineto
          214 vlineto
          -675 417 rlineto
          -281 vlineto
          439 -248 -439 -271 rlineto
          endchar
        </CharString>
        <CharString name="greaterequal">
          -260 -25 226 hstem
          91 675 -661 656 vstem
          766 933 rmoveto
          -675 417 rlineto
          -281 vlineto
          440 -248 -440 -271 rlineto
          -280 vlineto
          675 449 rlineto
          -7 -512 rmoveto
          -85 callsubr
          -389 12 callgsubr
          -237 20 callgsubr
          411 hlineto
          -40 callgsubr
          endchar
        </CharString>
        <CharString name="guillemotleft">
          7 callgsubr
          431 140 -60 callsubr
          hintmask 10100000
          679 -309 -60 callsubr
          endchar
        </CharString>
        <CharString name="guillemotright">
          7 callgsubr
          658 449 -31 callsubr
          255 hlineto
          679 309 -31 callsubr
          hintmask 10100000
          255 hlineto
          endchar
        </CharString>
        <CharString name="guilsinglleft">
          -265 140 775 hstem
          182 485 vstem
          412 140 -60 callsubr
          endchar
        </CharString>
        <CharString name="guilsinglright">
          -269 140 775 hstem
          192 485 vstem
          447 915 rmoveto
          -255 hlineto
          233 -387 -227 -388 rlineto
          255 hlineto
          201 320 rlineto
          19 36 4 20 11 vvcurveto
          16 -6 23 -22 40 vhcurveto
          endchar
        </CharString>
        <CharString name="h">
          -20 callgsubr
          hstemhm
          173 245 391 245 hintmask 01111000
          -53 callsubr
          hintmask 10111000
          -579 vlineto
          hintmask 01111000
          4 71 46 -60 callgsubr
          hintmask 10111000
          -83 callgsubr
          -145 162 -225 -103 -74 -30 -68 -89 vhcurveto
          463 -3 callgsubr
          endchar
        </CharString>
        <CharString name="hbar">
          -20 callgsubr
          75 170 hstemhm
          104 548 -479 245 391 245 hintmask 01110110
          -53 callsubr
          hintmask 10111010
          -579 vlineto
          hintmask 01111010
          4 71 46 -60 callgsubr
          hintmask 10110110
          -83 callgsubr
          -145 162 -225 -103 -74 -30 -68 -89 vhcurveto
          173 vlineto
          hintmask 01111010
          234 hlineto
          -3 35 -1 7 -29 callgsubr
          16 3 33 vhcurveto
          hintmask 01110110
          -234 120 -245 -120 -75 hlineto
          hintmask 01111010
          3 -25 3 -31 -38 vvcurveto
          -22 -3 -13 -5 -41 vhcurveto
          hintmask 01110110
          77 hlineto
          endchar
        </CharString>
        <CharString name="hcircumflex">
          -20 callgsubr
          408 -32 callsubr
          173 245 -121 735 -223 245 hintmask 01101010
          -53 callsubr
          hintmask 10101010
          -579 vlineto
          hintmask 01101010
          4 71 46 -60 callgsubr
          hintmask 10101010
          -83 callgsubr
          -145 162 -225 -103 -74 -30 -68 -89 vhcurveto
          463 -3 callgsubr
          hintmask 01101010
          hintmask 00010100
          127 40 -107 callgsubr
        </CharString>
        <CharString name="hungarumlaut">
          -107 1190 313 hstem
          202 804 vstem
          587 1190 -86 callgsubr
        </CharString>
        <CharString name="hungarumlaut.cap">
          -107 1495 313 hstem
          202 804 vstem
          587 1495 -86 callgsubr
        </CharString>
        <CharString name="hyphen">
          -104 500 236 hstem
          179 656 vstem
          178 495 -34 callsubr
          411 hlineto
          -96 callgsubr
          -389 -52 callsubr
        </CharString>
        <CharString name="i">
          5 callgsubr
          318 -20 hstem
          128 250 vstem
          340 1181 rmoveto
          54 79 46 63 57 71 -215 169 rcurveline
          -46 -51 -66 -81 -55 -88 rrcurveto
          13 -1343 rmoveto
          -78 callsubr
          endchar
        </CharString>
        <CharString name="iacute">
          -607 21 -21 -35 callsubr
          58 489 -419 250 hintmask 11001000
          128 hmoveto
          -78 callsubr
          hintmask 00110000
          -70 145 -99 callgsubr
        </CharString>
        <CharString name="ibreve">
          -436 -33 callsubr
          200 181 hstemhm
          -30 10 231 250 212 7 hintmask 11001000
          211 hmoveto
          -78 callsubr
          hintmask 00110100
          114 180 -102 callsubr
        </CharString>
        <CharString name="icircumflex">
          5 callgsubr
          163 -32 callsubr
          -125 735 -482 250 hintmask 11001000
          128 hmoveto
          -78 callsubr
          hintmask 00110000
          -250 140 -107 callgsubr
        </CharString>
        <CharString name="idieresis">
          -607 22 callgsubr
          -97 257 -32 250 -45 257 hintmask 11001000
          128 hmoveto
          -78 callsubr
          hintmask 00110100
          197 145 -106 callsubr
        </CharString>
        <CharString name="igrave">
          -607 21 -21 -35 callsubr
          -62 489 -299 250 hintmask 11001000
          128 hmoveto
          -78 callsubr
          hintmask 00110000
          73 145 rmoveto
          -93 callgsubr
        </CharString>
        <CharString name="ij">
          -94 -385 230 176 -46 callsubr
          318 -20 hstemhm
          128 250 267 243 hintmask 01111000
          340 1181 rmoveto
          54 79 46 63 57 71 -215 169 rcurveline
          -46 -51 -66 -81 -55 -88 rrcurveto
          13 -1343 rmoveto
          -78 callsubr
          hintmask 10100100
          681 147 -56 callsubr
        </CharString>
        <CharString name="imacron">
          -436 -33 callsubr
          hstemhm
          211 250 vstemhm
          211 hmoveto
          -78 callsubr
          -223 308 rmoveto
          -96 callsubr
        </CharString>
        <CharString name="infinity">
          746 201 255 -245 254 476 249 -234 234 hstemhm
          220 250 925 250 hintmask 01011100
          639 211 rmoveto
          85 115 65 114 68 hvcurveto
          hintmask 10011100
          -118 73 108 -71 174 hhcurveto
          208 175 185 333 331 -191 140 -194 -114 -117 -65 -126 -66 hvcurveto
          157 -113 -88 34 -164 hhcurveto
          -139 -239 -127 -353 hvcurveto
          hintmask 01011100
          -239 128 -260 291 vhcurveto
          415 576 rmoveto
          40 84 68 83 76 2 rrcurveto
          95 2 62 -94 -168 vvcurveto
          hintmask 10011100
          -151 -66 -89 -83 -80 -62 122 209 -50 vhcurveto
          hintmask 01101100
          -381 -322 rmoveto
          -128 -75 76 180 129 70 91 77 92 19 -93 -115 42 hvcurveto
          21 -59 12 -52 13 -44 rrcurveto
          -80 -38 -43 -33 -62 hhcurveto
          endchar
        </CharString>
        <CharString name="integral">
          -260 -510 230 1854 230 hstemhm
          126 347 -114 350 hintmask 00000000
          hintmask 11100000
          100 -242 rmoveto
          -2 -5 rlineto
          hintmask 11010000
          28 -263 rlineto
          392 114 121 401 -38 hvcurveto
          -118 1342 rlineto
          hintmask 11100000
          158 -15 47 62 93 hhcurveto
          50 38 -11 -27 42 hvcurveto
          hintmask 11010000
          2 5 rlineto
          hintmask 11100000
          -24 263 rlineto
          -393 -117 -121 -401 39 hvcurveto
          118 -1342 rlineto
          hintmask 11010000
          -158 15 -47 -62 -93 hhcurveto
          -50 -38 11 27 -43 hvcurveto
          endchar
        </CharString>
        <CharString name="iogonek">
          -607 9 callgsubr
          344 -46 callsubr
          318 -20 hstemhm
          -19 255 -108 250 hintmask 11111000
          340 1181 rmoveto
          54 79 46 63 57 71 -215 169 rcurveline
          -46 -51 -66 -81 -55 -88 rrcurveto
          3 -1343 rmoveto
          -66 callsubr
          9 hlineto
          hintmask 11110100
          -3 17 -1 27 68 vvcurveto
          933 -250 -1042 vlineto
          endchar
        </CharString>
        <CharString name="itilde">
          5 callgsubr
          148 -41 callsubr
          -94 670 -448 250 hintmask 11000100
          128 hmoveto
          -78 callsubr
          hintmask 00011000
          -216 160 -55 callgsubr
          hintmask 00101000
          -93 callsubr
          hintmask 00011000
          -87 callsubr
        </CharString>
        <CharString name="j">
          -607 11 callsubr
          hstem
          132 243 vstem
          296 1192 -56 callsubr
        </CharString>
        <CharString name="jcircumflex">
          -605 11 callsubr
          163 -32 callsubr
          -111 735 -492 245 hintmask 11001000
          132 65 rmoveto
          -158 -53 -64 callsubr
          -3 callgsubr
          hintmask 00110000
          -240 140 -107 callgsubr
        </CharString>
        <CharString name="k">
          -67 callgsubr
          876 -3 callgsubr
          endchar
        </CharString>
        <CharString name="kcommaaccent">
          -26 callsubr
          157 -21 36 -46 callsubr
          hstemhm
          162 245 138 254 hintmask 00111000
          162 hmoveto
          252 hlineto
          -3 17 -4 47 68 vvcurveto
          107 vlineto
          190 202 rlineto
          hintmask 01011000
          312 -456 rlineto
          hintmask 00111000
          7 28 40 8 83 hhcurveto
          158 hlineto
          -52 57 -116 169 -58 97 -225 307 rcurveline
          394 415 rlineto
          -297 hlineto
          -457 -491 rlineto
          876 -3 callgsubr
          hintmask 10000100
          372 -1621 rmoveto
          9 -67 2 -58 -52 vvcurveto
          -1 -134 -35 -62 -25 -43 -83 callsubr
          38 23 36 62 129 vvcurveto
          57 -4 47 -12 74 vhcurveto
          endchar
        </CharString>
        <CharString name="kgreenlandic">
          74 -67 callgsubr
          491 -3 callgsubr
          endchar
        </CharString>
        <CharString name="l">
          -607 21 -21 hstem
          129 250 vstem
          129 hmoveto
          4 callgsubr
        </CharString>
        <CharString name="lacute">
          -607 21 -21 1355 -20 140 -39 callgsubr
          38 489 -398 250 hintmask 11001000
          129 hmoveto
          -77 callgsubr
          1243 -250 vlineto
          hintmask 00110000
          -91 120 -99 callgsubr
        </CharString>
        <CharString name="lcaron">
          -441 21 -21 943 502 hstemhm
          129 250 126 234 hintmask 10100000
          129 hmoveto
          -77 callgsubr
          1378 -250 vlineto
          hintmask 01010000
          366 -547 rmoveto
          142 29 23 3 -59 callgsubr
          -229 -41 callgsubr
          5 -115 -20 -34 rrcurveto
          endchar
        </CharString>
        <CharString name="lcommaaccent">
          -607 -26 callsubr
          172 -21 hstemhm
          129 250 -228 254 hintmask 01100000
          129 hmoveto
          -77 callgsubr
          1378 -250 vlineto
          hintmask 10010000
          11 -1681 rmoveto
          9 -67 2 -58 -52 vvcurveto
          -1 -134 -35 -62 -25 -43 -83 callsubr
          38 23 36 62 129 vvcurveto
          57 -4 47 -12 74 vhcurveto
          endchar
        </CharString>
        <CharString name="ldot">
          -269 21 -21 605 249 hstemhm
          177 250 143 228 hintmask 01010000
          562 605 rmoveto
          236 hlineto
          -5 37 0 37 45 vvcurveto
          38 2 58 3 34 vhcurveto
          -234 hlineto
          4 -25 2 -53 -40 vvcurveto
          -43 -2 -46 -6 -42 vhcurveto
          hintmask 10100000
          -385 -605 -3 callsubr
        </CharString>
        <CharString name="less">
          244 6 -21 hstem
          344 675 vstem
          344 434 -23 callgsubr
          endchar
        </CharString>
        <CharString name="lessequal">
          -260 -25 226 hstem
          85 675 -670 656 vstem
          85 719 -23 callgsubr
          4 -963 -34 callsubr
          411 -18 callgsubr
          237 -24 callsubr
          -389 -52 callsubr
        </CharString>
        <CharString name="logicalnot">
          415 500 236 hstem
          1032 236 vstem
          262 495 -34 callsubr
          646 -151 19 callsubr
          247 -3 rlineto
          -4 39 -1 42 43 vvcurveto
          404 vlineto
          -85 callsubr
          -739 -52 callsubr
        </CharString>
        <CharString name="lozenge">
          233 -172 1700 hstem
          161 1031 vstem
          578 -172 rmoveto
          214 hlineto
          399 850 rlineto
          1 hlineto
          -417 850 rlineto
          -214 hlineto
          -399 -850 rlineto
          -1 hlineto
          521 -563 rmoveto
          -239 563 227 562 240 -562 rlineto
          endchar
        </CharString>
        <CharString name="lslash">
          -516 21 -21 hstem
          177 250 vstem
          177 hmoveto
          -77 callgsubr
          585 vlineto
          139 54 rlineto
          -2 33 -2 32 32 vvcurveto
          29 0 38 2 35 vhcurveto
          -137 -51 rlineto
          531 -250 -624 vlineto
          -151 -56 2 -32 2 -34 1 -35 rlinecurve
          1 -34 -1 -34 -1 -36 147 56 rcurveline
          endchar
        </CharString>
        <CharString name="m">
          590 -20 callgsubr
          -20 -20 hstemhm
          164 253 335 246 316 253 hintmask 01101110
          -26 callgsubr
          hintmask 10011110
          -542 vlineto
          hintmask 01101110
          -38 callgsubr
          hintmask 10011110
          -541 vlineto
          hintmask 01011110
          4 71 54 -60 callgsubr
          hintmask 10101110
          -47 callsubr
          hintmask 01011110
          90 -253 vlineto
          endchar
        </CharString>
        <CharString name="macron">
          -191 1353 170 hstemhm
          135 667 hintmask 00000000
          hintmask 11000000
          127 1353 rmoveto
          -96 callsubr
        </CharString>
        <CharString name="macron.cap">
          -596 1530 170 hstemhm
          -61 667 hintmask 00000000
          hintmask 11000000
          -69 1530 rmoveto
          -96 callsubr
        </CharString>
        <CharString name="minus">
          -104 500 236 hstem
          179 656 vstem
          178 495 -34 callsubr
          411 hlineto
          -96 callgsubr
          -389 -52 callsubr
        </CharString>
        <CharString name="mu">
          244 6 callsubr
          825 -20 24 -20 hstemhm
          243 245 346 245 hintmask 11011000
          243 -45 rmoveto
          -209 42 -99 71 -54 vhcurveto
          201 131 rlineto
          5 vlineto
          -60 41 -28 110 -4 146 rrcurveto
          -25 50 57 -16 61 hhcurveto
          92 85 31 69 86 hvcurveto
          -60 47 72 -40 96 hhcurveto
          42 45 9 10 19 hvcurveto
          57 248 rlineto
          -8 hlineto
          -20 -17 -25 -12 -39 hhcurveto
          -68 -38 52 102 hvcurveto
          671 -245 -764 vlineto
          -45 -47 -48 -16 -54 hhcurveto
          -84 -64 21 61 -49 hvcurveto
          746 vlineto
          -4 -71 -46 1 -12 hhcurveto
          hintmask 10111000
          -55 -44 1 3 -30 hvcurveto
          8 -52 5 -51 -126 vvcurveto
          endchar
        </CharString>
        <CharString name="multiply">
          244 202 820 hstem
          271 822 vstem
          271 384 rmoveto
          172 -177 25 30 29 31 31 30 rlinecurve
          150 150 149 -149 53 -52 26 -27 10 -18 rlinecurve
          177 172 -30 25 -31 29 -30 31 rlinecurve
          -157 156 150 150 30 31 31 29 30 25 rlinecurve
          -177 172 -10 -18 -26 -27 -53 -52 rlinecurve
          -142 -142 -143 143 -31 30 -29 31 -25 30 rlinecurve
          -172 -177 18 -10 27 -26 52 -53 rlinecurve
          135 -136 -142 -142 -52 -53 -27 -26 -18 -10 rlinecurve
          endchar
        </CharString>
        <CharString name="n">
          -7 callsubr
          hstemhm
          167 243 399 243 hintmask 01101100
          -75 callgsubr
          hintmask 10011100
          -545 vlineto
          hintmask 01011100
          4 71 44 -60 callgsubr
          hintmask 10101100
          -83 callgsubr
          -141 162 -219 -100 -90 -34 -75 -92 vhcurveto
          hintmask 01011100
          89 -243 vlineto
          endchar
        </CharString>
        <CharString name="nacute">
          -7 callsubr
          165 -39 callgsubr
          167 243 52 489 -142 243 hintmask 01100101
          -75 callgsubr
          hintmask 10010101
          -545 vlineto
          hintmask 01010101
          4 71 44 -60 callgsubr
          hintmask 10100101
          -83 callgsubr
          -141 162 -219 -100 -90 -34 -75 -92 vhcurveto
          hintmask 01010101
          89 -243 vlineto
          hintmask 00001010
          295 145 -99 callgsubr
        </CharString>
        <CharString name="nbspace">
          -680 endchar
        </CharString>
        <CharString name="ncaron">
          -7 callsubr
          160 -32 callsubr
          167 243 -131 735 -205 243 hintmask 01100101
          -75 callgsubr
          hintmask 10010101
          -545 vlineto
          hintmask 01010101
          4 71 44 -60 callgsubr
          hintmask 10100101
          -83 callgsubr
          -141 162 -219 -100 -90 -34 -75 -92 vhcurveto
          hintmask 01010101
          89 -243 vlineto
          hintmask 00001010
          354 140 -100 callgsubr
        </CharString>
        <CharString name="ncommaaccent">
          77 -26 callsubr
          169 -14 callgsubr
          hstemhm
          167 243 131 254 14 243 hintmask 00110101
          -75 callgsubr
          hintmask 01001101
          -545 vlineto
          hintmask 00101101
          4 71 44 -60 callgsubr
          hintmask 01010101
          -83 callgsubr
          -141 162 -219 -100 -90 -34 -75 -92 vhcurveto
          hintmask 00101101
          89 -243 vlineto
          hintmask 10000010
          363 -1236 rmoveto
          9 -67 2 -58 -52 vvcurveto
          -1 -134 -35 -62 -25 -43 -83 callsubr
          38 23 36 62 129 vvcurveto
          57 -4 47 -12 74 vhcurveto
          endchar
        </CharString>
        <CharString name="nine">
          244 -25 230 207 224 488 231 hstem
          114 256 630 249 vstem
          249 34 rmoveto
          -37 80 98 -22 123 hhcurveto
          486 213 373 381 345 -193 281 -382 -306 -254 -210 -299 -268 186 -166 275 129 166 40 103 112 hvcurveto
          -200 -49 -153 -150 -212 hhcurveto
          -107 -136 23 58 -81 hvcurveto
          -4 -6 rlineto
          366 356 rmoveto
          -155 -81 101 117 169 139 101 173 159 101 -102 -157 39 hvcurveto
          -128 -38 -137 -101 -200 hhcurveto
          endchar
        </CharString>
        <CharString name="notequal">
          244 -5 -21 326 18 callsubr
          -764 606 vstem
          370 -26 rmoveto
          -5 callsubr
          93 326 rlineto
          323 hlineto
          -96 callgsubr
          -245 hlineto
          53 184 rlineto
          203 hlineto
          -96 callgsubr
          -125 hlineto
          100 348 rlineto
          -226 hlineto
          -100 -348 rlineto
          -288 hlineto
          -46 callgsubr
          232 hlineto
          -53 -184 rlineto
          -168 hlineto
          -46 callgsubr
          112 hlineto
          endchar
        </CharString>
        <CharString name="ntilde">
          -7 callsubr
          148 -41 callsubr
          167 243 -100 670 -171 243 hintmask 0110001010000000
          -75 callgsubr
          hintmask 1001001010000000
          -545 vlineto
          hintmask 0101001010000000
          4 71 44 -60 callgsubr
          hintmask 1010001010000000
          -83 callgsubr
          -141 162 -219 -100 -90 -34 -75 -92 vhcurveto
          hintmask 0101001010000000
          89 -243 vlineto
          hintmask 0000010100000000
          149 160 -55 callgsubr
          hintmask 0000100100000000
          -93 callsubr
          hintmask 0000010100000000
          -87 callsubr
        </CharString>
        <CharString name="numbersign">
          415 496 196 201 196 hstem
          235 1016 -989 1036 vstem
          355 177 rmoveto
          -5 callsubr
          44 319 rlineto
          184 hlineto
          -44 -319 rlineto
          -5 callsubr
          44 319 rlineto
          94 -18 callgsubr
          207 -24 callsubr
          -55 hlineto
          28 201 rlineto
          85 -18 callgsubr
          207 -24 callsubr
          -47 16 callsubr
          -184 16 callsubr
          -86 3 callsubr
          70 hlineto
          -28 -201 rlineto
          -58 3 callsubr
          41 hlineto
          254 196 rmoveto
          28 201 rlineto
          184 hlineto
          -28 -201 rlineto
          endchar
        </CharString>
        <CharString name="o">
          -50 callsubr
          hstem
          71 243 566 256 vstem
          -101 callgsubr
          endchar
        </CharString>
        <CharString name="oacute">
          -50 callsubr
          125 313 2 callgsubr
          100 489 -23 256 hintmask 11010100
          -101 callgsubr
          hintmask 00101000
          100 661 -99 callgsubr
        </CharString>
        <CharString name="obreve">
          -50 callsubr
          160 181 2 callgsubr
          -71 10 627 256 -190 7 hintmask 11010100
          -101 callgsubr
          hintmask 00101010
          284 696 -102 callsubr
        </CharString>
        <CharString name="ocircumflex">
          -50 callsubr
          123 331 2 callgsubr
          -83 735 -86 256 hintmask 11010100
          -101 callgsubr
          hintmask 00101000
          -80 656 -107 callgsubr
        </CharString>
        <CharString name="odieresis">
          -50 callsubr
          125 240 2 callgsubr
          -55 -48 callgsubr
          -66 256 hintmask 11010010
          -101 callgsubr
          hintmask 00101100
          367 661 -106 callsubr
        </CharString>
        <CharString name="oe">
          923 -15 234 227 217 172 230 hstem
          63 244 623 245 114 691 vstem
          63 512 rmoveto
          -254 175 -273 377 177 156 73 119 102 vhcurveto
          -124 107 171 -68 199 hhcurveto
          127 146 33 45 69 hvcurveto
          8 115 5 83 2 65 rrcurveto
          -35 -42 -116 -71 -159 hhcurveto
          -223 -153 104 174 -17 hvcurveto
          1 7 0 7 8 12 -1 12 12 vvcurveto
          167 11 118 112 157 hhcurveto
          127 113 -66 -99 31 hvcurveto
          -4 -74 -130 -3 -64 hhcurveto
          -71 -64 1 6 -39 hvcurveto
          -222 vlineto
          -2 71 88 0 103 hhcurveto
          191 158 12 18 68 hvcurveto
          4 16 8 39 51 vvcurveto
          297 -210 186 -279 -186 -150 -72 -116 -98 vhcurveto
          115 -92 -143 73 -184 hhcurveto
          -355 -220 -242 -311 hvcurveto
          244 17 rmoveto
          152 116 154 199 182 126 -139 -180 -187 -142 -110 -169 -174 -138 141 169 vhcurveto
          endchar
        </CharString>
        <CharString name="ogonek">
          -275 9 callgsubr
          344 -21 hstem
          132 255 vstem
          269 hmoveto
          -66 callsubr
          -139 40 rlineto
          endchar
        </CharString>
        <CharString name="ograve">
          -50 callsubr
          125 313 2 callgsubr
          -20 489 97 256 hintmask 11010100
          -101 callgsubr
          hintmask 00101000
          243 661 rmoveto
          -93 callgsubr
        </CharString>
        <CharString name="ohungarumlaut">
          -50 callsubr
          125 313 2 callgsubr
          -38 804 -200 256 hintmask 11010100
          -101 callgsubr
          hintmask 00101000
          347 661 -86 callgsubr
        </CharString>
        <CharString name="omacron">
          -50 callsubr
          2 callgsubr
          566 256 vstemhm
          -101 callgsubr
          -53 824 rmoveto
          -96 callsubr
        </CharString>
        <CharString name="one">
          -431 21 -21 hstem
          217 255 vstem
          217 hmoveto
          255 1330 -255 hlineto
          endchar
        </CharString>
        <CharString name="onehalf">
          923 1 200 -180 -21 582 212 -194 790 hstemhm
          277 245 641 489 hintmask 01011000
          277 -2 callgsubr
          78 -1390 rmoveto
          -52 callgsubr
          hintmask 10100100
          3 -1337 -68 callsubr
        </CharString>
        <CharString name="onequarter">
          918 0 363 -220 220 237 790 -714 93 hstemhm
          250 245 875 245 hintmask 10101100
          250 -2 callgsubr
          102 -1390 rmoveto
          -52 callgsubr
          -138 -1143 rmoveto
          hintmask 01011100
          20 -44 rlineto
          386 hlineto
          hintmask 10011100
          -143 245 vlineto
          hintmask 01011100
          -29 callsubr
          hintmask 10101100
          96 237 rlineto
          -237 vlineto
          endchar
        </CharString>
        <CharString name="onesuperior">
          -436 600 790 hstem
          219 245 vstem
          219 -2 callgsubr
          endchar
        </CharString>
        <CharString name="ordfeminine">
          577 219 339 220 -220 226 hstemhm
          120 255 361 255 hintmask 10111000
          527 577 rmoveto
          92 93 37 57 61 hvcurveto
          26 -53 36 -46 37 -12 198 129 rcurveline
          2 5 rlineto
          -38 16 -43 57 131 vvcurveto
          463 -255 -64 vlineto
          hintmask 11011000
          37 -59 -64 21 -77 hhcurveto
          -255 -161 -174 -224 -195 108 -185 299 hvcurveto
          59 219 rmoveto
          -126 -85 73 100 101 66 65 144 48 61 -22 -20 42 hvcurveto
          -255 vlineto
          -21 -39 -54 -21 -57 hhcurveto
          endchar
        </CharString>
        <CharString name="ordmasculine">
          577 216 342 220 hstem
          160 240 388 244 vstem
          592 577 rmoveto
          248 192 179 216 225 -188 158 -243 -255 -186 -174 -224 -181 138 -199 294 hvcurveto
          13 216 rmoveto
          -119 -86 74 96 78 62 94 128 111 87 -76 -100 -92 -81 -74 -102 hvcurveto
          endchar
        </CharString>
        <CharString name="oslash">
          77 -170 1360 -1205 224 631 225 2 callgsubr
          -191 924 -167 256 hintmask 10001000
          123 -170 rmoveto
          176 hlineto
          102 185 rlineto
          hintmask 01110100
          -19 58 67 -11 74 hhcurveto
          339 197 249 299 187 -74 159 -134 94 hvcurveto
          hintmask 10001000
          119 217 rlineto
          -176 hlineto
          -83 -150 rlineto
          hintmask 01110100
          16 -53 -58 9 -64 hhcurveto
          -335 -207 -247 -306 -169 64 -158 129 -98 hvcurveto
          hintmask 10001000
          123 222 rmoveto
          hintmask 01110100
          -47 56 -26 76 88 vvcurveto
          152 93 159 190 27 26 -3 -6 23 vhcurveto
          -158 -608 rmoveto
          290 528 rlineto
          49 -57 26 -81 -91 vvcurveto
          -179 -98 -134 -169 -35 -33 5 9 -30 vhcurveto
          endchar
        </CharString>
        <CharString name="otilde">
          -50 callsubr
          108 -41 callsubr
          71 243 -52 670 -52 256 hintmask 11001010
          -101 callgsubr
          hintmask 00010100
          -46 676 -55 callgsubr
          hintmask 00100100
          -93 callsubr
          hintmask 00010100
          -87 callsubr
        </CharString>
        <CharString name="p">
          -364 -21 367 227 638 218 -20 -20 hstemhm
          162 245 473 250 hintmask 11101100
          -35 callgsubr
          hintmask 11011100
          -9 callsubr
          hintmask 11101100
          -17 callsubr
          endchar
        </CharString>
        <CharString name="paragraph">
          244 0 239 852 239 hstem
          467 255 215 245 vstem
          251 28 rmoveto
          -19 42 53 -9 59 hhcurveto
          197 120 109 358 hvcurveto
          627 vlineto
          1 44 47 0 26 hhcurveto
          33 33 -1 -2 32 hvcurveto
          -1092 249 vlineto
          -3 17 -1 27 68 vvcurveto
          979 vlineto
          91 2 80 6 68 vhcurveto
          -569 hlineto
          -332 -173 -146 -240 -186 111 -186 240 -9 hvcurveto
          -194 vlineto
          -101 -30 -29 -60 -41 -42 10 20 -36 vhcurveto
          -7 -2 rlineto
          endchar
        </CharString>
        <CharString name="parenleft">
          -191 -100 1530 hstem
          182 254 vstem
          500 -100 rmoveto
          246 6 hlineto
          -205 221 -105 258 290 vvcurveto
          317 92 224 228 208 vhcurveto
          6 -256 vlineto
          -211 -182 -107 -283 -285 vvcurveto
          -336 115 -269 203 -175 vhcurveto
          endchar
        </CharString>
        <CharString name="parenright">
          -191 -100 1530 hstem
          492 254 vstem
          428 -100 rmoveto
          203 175 115 269 336 vvcurveto
          285 -107 283 -211 182 vhcurveto
          -256 -6 hlineto
          228 -208 92 -224 -317 vvcurveto
          -290 -105 -258 -205 -221 vhcurveto
          -6 246 vlineto
          endchar
        </CharString>
        <CharString name="partialdiff">
          -15 234 461 235 233 211 hstem
          89 265 446 14 vstem
          89 443 rmoveto
          -248 196 -210 278 264 227 210 309 322 -68 653 -827 -139 vhcurveto
          41 -208 344 67 147 -144 63 -207 rlinecurve
          41 -61 -68 26 -68 hhcurveto
          -240 -228 -154 -318 hvcurveto
          265 11 rmoveto
          135 78 91 115 131 67 -36 -142 54 vhcurveto
          -2 1 -2 -2 vvcurveto
          -196 5 -112 -81 -110 hhcurveto
          -145 -84 106 129 hvcurveto
          endchar
        </CharString>
        <CharString name="percent">
          1094 -25 203 -157 -21 519 199 -106 204 341 198 hstemhm
          148 9 callsubr
          hintmask 0101111110000000
          545 612 rmoveto
          -22 callsubr
          -57 callgsubr
          -19 callgsubr
          hvcurveto
          51 -612 rmoveto
          -52 callgsubr
          -782 -514 rmoveto
          -132 -73 81 88 -54 callgsubr
          hvcurveto
          685 -476 rmoveto
          hintmask 1010111110000000
          -19 callgsubr
          -22 callsubr
          -57 callgsubr
          vhcurveto
          212 7 rmoveto
          -54 callgsubr
          -132 -73 81 88 vhcurveto
          endchar
        </CharString>
        <CharString name="period">
          -610 0 -2 callsubr
          -32 callgsubr
          endchar
        </CharString>
        <CharString name="periodcentered">
          -610 600 -2 callsubr
          600 rmoveto
          -92 callsubr
          endchar
        </CharString>
        <CharString name="perthousand">
          2116 -25 841 -816 178 -178 718 -199 836 -743 106 439 198 hstemhm
          162 9 callsubr
          159 212 400 205 hintmask 0100111111110000
          559 612 rmoveto
          -22 callsubr
          hvcurveto
          -57 callgsubr
          -19 callgsubr
          vhcurveto
          hintmask 0010011111110000
          51 -612 rmoveto
          -52 callgsubr
          hintmask 1000011111110000
          -782 -514 rmoveto
          -132 -73 81 88 -54 callgsubr
          hvcurveto
          1661 -476 rmoveto
          -40 callsubr
          -976 hmoveto
          hintmask 1000011111110000
          -40 callsubr
          1188 7 rmoveto
          hintmask 0101001111110000
          -54 callgsubr
          -132 -73 81 88 vhcurveto
          -976 hmoveto
          -54 callgsubr
          -132 -73 81 88 vhcurveto
          endchar
        </CharString>
        <CharString name="pi">
          248 21 -21 834 101 -101 210 hstemhm
          313 245 259 245 hintmask 11011000
          143 hmoveto
          248 hlineto
          -1 16 136 75 29 743 rrcurveto
          262 -834 249 -84 callgsubr
          722 183 vlineto
          -3 35 -1 7 42 vvcurveto
          hintmask 10111000
          37 1 56 3 33 vhcurveto
          -1110 -65 callsubr
          -71 -38 vvcurveto
          -22 -3 -13 -5 -41 vhcurveto
          177 hlineto
          -9 -298 -21 -226 -137 -310 rrcurveto
          endchar
        </CharString>
        <CharString name="plus">
          244 500 236 -236 563 hstemhm
          564 236 hintmask 01100000
          227 495 -34 callsubr
          213 -211 19 callsubr
          247 -3 rlineto
          -8 callgsubr
          hintmask 10100000
          -85 callsubr
          -201 203 hlineto
          hintmask 01100000
          8 callgsubr
          hintmask 10100000
          -192 -202 vlineto
          -61 callgsubr
          endchar
        </CharString>
        <CharString name="plusminus">
          244 100 216 484 236 hstemhm
          228 906 -570 236 hintmask 11100000
          558 457 rmoveto
          247 -3 rlineto
          hintmask 11010000
          -8 callgsubr
          -5 -20 -38 -1 -74 hhcurveto
          -201 203 hlineto
          8 callgsubr
          -192 -202 vlineto
          -46 callgsubr
          213 -211 19 callsubr
          -331 -362 -34 callsubr
          661 -18 callgsubr
          227 -24 callsubr
          -639 -52 callsubr
        </CharString>
        <CharString name="product">
          248 1093 240 hstem
          202 255 430 255 vstem
          202 -164 rmoveto
          32 hlineto
          140 62 -4 -2 21 hvcurveto
          1263 430 -1257 70 vlineto
          81 82 -4 -2 22 hvcurveto
          1263 3 vlineto
          -2 240 rlineto
          -941 -19 hlineto
          -2 -221 rlineto
          2 hlineto
          endchar
        </CharString>
        <CharString name="q">
          -364 -21 370 225 628 217 -10 -20 hstemhm
          102 245 501 245 hintmask 11011100
          102 486 rmoveto
          -314 203 -187 268 123 74 40 67 78 vhcurveto
          -365 vlineto
          -68 -1 -27 -3 -17 vhcurveto
          249 1430 hlineto
          -234 -42 rlineto
          hintmask 11101100
          41 -75 -77 11 -106 hhcurveto
          -280 -219 -215 -354 hvcurveto
          245 25 rmoveto
          184 105 143 166 79 96 -15 -54 55 vhcurveto
          -429 vlineto
          -82 -60 -77 -48 -98 hhcurveto
          -181 -85 135 166 hvcurveto
          endchar
        </CharString>
        <CharString name="question">
          -94 0 240 915 220 hstemhm
          129 11 157 256 -222 257 43 257 hintmask 00000000
          hintmask 11101100
          422 343 rmoveto
          52 23 82 50 54 40 rrcurveto
          -29 5 -28 25 37 vvcurveto
          33 12 36 138 121 vhcurveto
          145 128 40 84 92 vvcurveto
          185 -175 173 -264 -161 -113 -46 -88 -93 vhcurveto
          hintmask 11110100
          35 -119 9 -39 3 -24 4 -28 1 -8 -1 -21 7 2 rcurveline
          106 57 130 45 86 hhcurveto
          120 98 -58 -96 -59 -25 -41 -111 -94 hvcurveto
          -165 -139 -33 -83 -64 vvcurveto
          hintmask 11101100
          -83 41 -63 84 -32 vhcurveto
          -99 -343 rmoveto
          -98 callsubr
        </CharString>
        <CharString name="questiondown">
          -94 -42 220 915 2 callsubr
          82 257 43 257 -222 256 157 11 hintmask 00000000
          hintmask 11110100
          548 990 rmoveto
          -52 -23 -82 -50 -54 -40 rrcurveto
          29 -5 28 -25 -37 vvcurveto
          -33 -12 -36 -138 -121 vhcurveto
          -145 -128 -40 -84 -92 vvcurveto
          -185 175 -173 264 161 113 46 88 93 vhcurveto
          hintmask 11101100
          -35 119 -9 39 -3 24 -4 28 -1 8 1 21 -7 -2 rcurveline
          -106 -57 -130 -45 -86 hhcurveto
          -120 -98 58 96 59 25 41 111 94 hvcurveto
          165 139 33 83 64 vvcurveto
          hintmask 11110100
          83 -41 63 -84 32 vhcurveto
          99 343 -36 callsubr
        </CharString>
        <CharString name="quotedbl">
          -94 977 453 hstemhm
          204 214 188 214 hintmask 11000000
          206 977 -51 callgsubr
          hintmask 10100000
          406 -133 -51 callgsubr
          endchar
        </CharString>
        <CharString name="quotedblbase">
          -94 -302 522 hstemhm
          204 254 145 254 hintmask 11000000
          174 -302 rmoveto
          -73 callsubr
          -6 callsubr
          rrcurveto
          hintmask 10100000
          405 -6 rmoveto
          -73 callsubr
          -6 callsubr
          rrcurveto
          endchar
        </CharString>
        <CharString name="quotedblleft">
          -94 923 522 hstem
          143 254 196 254 vstem
          604 923 rmoveto
          -70 callgsubr
          -450 hmoveto
          -70 callgsubr
          endchar
        </CharString>
        <CharString name="quotedblright">
          -94 923 522 hstem
          179 254 196 254 vstem
          422 1445 rmoveto
          -45 callgsubr
          450 hmoveto
          -45 callgsubr
          endchar
        </CharString>
        <CharString name="quoteleft">
          -436 913 522 hstem
          197 254 vstem
          208 913 rmoveto
          -70 callgsubr
          endchar
        </CharString>
        <CharString name="quoteright">
          -436 923 522 hstem
          233 254 vstem
          203 923 rmoveto
          -73 callsubr
          -6 callsubr
          rrcurveto
          endchar
        </CharString>
        <CharString name="quotesinglbase">
          -436 -302 522 hstem
          233 254 vstem
          233 3 rmoveto
          -36 callgsubr
          -249 -40 rlineto
          5 -66 1 -59 -52 vvcurveto
          endchar
        </CharString>
        <CharString name="quotesingle">
          -436 977 453 hstem
          234 214 vstem
          236 977 -51 callgsubr
          endchar
        </CharString>
        <CharString name="r">
          21 callsubr
          hstemhm
          351 32 hintmask 11010000
          -78 callgsubr
          hintmask 10110000
          77 -3 callgsubr
          endchar
        </CharString>
        <CharString name="racute">
          21 callsubr
          165 -39 callgsubr
          274 489 -412 32 hintmask 11000100
          -78 callgsubr
          hintmask 10100100
          77 -3 callgsubr
          hintmask 00011000
          136 145 -99 callgsubr
        </CharString>
        <CharString name="radical">
          239 21 -21 803 236 -236 242 hstemhm
          44 403 hintmask 10110000
          594 hmoveto
          206 hlineto
          584 1842 rlineto
          -277 hlineto
          -410 -1479 -251 682 rlineto
          hintmask 11010000
          -85 callsubr
          -136 hlineto
          hintmask 10110000
          -46 callgsubr
          87 hlineto
          endchar
        </CharString>
        <CharString name="rcaron">
          21 callsubr
          160 -32 callsubr
          91 735 -475 32 hintmask 11000100
          -78 callgsubr
          hintmask 10100100
          77 -3 callgsubr
          hintmask 00011000
          195 140 -100 callgsubr
        </CharString>
        <CharString name="rcommaaccent">
          -436 -26 callsubr
          172 -21 832 233 -20 -20 hstemhm
          174 254 -77 32 hintmask 01100100
          -78 callgsubr
          hintmask 01010100
          77 -3 callgsubr
          hintmask 10001000
          25 -1236 rmoveto
          9 -67 2 -58 -52 vvcurveto
          -1 -134 -35 -62 -25 -43 -83 callsubr
          38 23 36 62 129 vvcurveto
          57 -4 47 -12 74 vhcurveto
          endchar
        </CharString>
        <CharString name="registered">
          752 115 220 300 169 162 166 144 199 hstem
          171 235 445 35 159 216 205 235 vstem
          171 -66 callgsubr
          255 -299 rmoveto
          225 142 hlineto
          -2 11 13 0 10 hhcurveto
          23 22 1 3 21 hvcurveto
          74 -148 rlineto
          3 37 139 1 24 hhcurveto
          16 15 -1 -2 15 hvcurveto
          2 2 -11 8 -42 73 -22 39 rlinecurve
          -54 104 rlineto
          52 44 30 59 64 vvcurveto
          131 -112 116 -252 -85 -87 -10 -17 -64 vhcurveto
          225 -299 rmoveto
          159 vlineto
          1 6 7 0 7 hhcurveto
          90 49 -29 -44 -64 -49 -25 -64 -13 -16 0 2 -17 hvcurveto
          endchar
        </CharString>
        <CharString name="ring">
          -368 1180 -11 callgsubr
          hstem
          97 -11 callsubr
          vstem
          368 1180 -91 callgsubr
        </CharString>
        <CharString name="ring.cap">
          -596 1465 -11 callgsubr
          hstem
          -17 -11 callsubr
          vstem
          254 1367 -91 callgsubr
        </CharString>
        <CharString name="s">
          -20 callsubr
          hstem
          95 251 347 248 vstem
          -104 callsubr
          endchar
        </CharString>
        <CharString name="sacute">
          -20 callsubr
          125 -39 callgsubr
          95 251 -18 489 -124 248 hintmask 11010100
          -104 callsubr
          hintmask 00101000
          254 1102 -99 callgsubr
        </CharString>
        <CharString name="scaron">
          -20 callsubr
          120 -32 callsubr
          95 251 -201 735 -187 248 hintmask 11010100
          -104 callsubr
          hintmask 00101000
          313 1097 -100 callgsubr
        </CharString>
        <CharString name="scedilla">
          -94 -15 207 -171 -21 860 205 hstemhm
          95 251 69 225 53 248 hintmask 01111100
          74 88 rmoveto
          86 -62 117 -30 138 -8 -1 -135 -20 -209 -49 -70 -51 callsubr
          45 -2 39 -7 50 vhcurveto
          203 36 107 123 152 vvcurveto
          158 -80 129 -255 38 vhcurveto
          -221 32 -39 43 43 vvcurveto
          68 50 42 132 114 113 -42 -62 53 vhcurveto
          -2 9 -7 -5 vvcurveto
          -4 3 1 -3 2 hhcurveto
          1 1 1 7 2 hvcurveto
          31 81 22 53 19 70 rrcurveto
          70 -87 -125 48 -143 hhcurveto
          -278 -171 -123 -210 -160 101 -125 281 -38 hvcurveto
          173 -25 43 -30 -47 vvcurveto
          hintmask 10111100
          -54 -30 -61 -143 -175 -174 64 74 -61 vhcurveto
          -9 9 0 -1 -16 vvcurveto
          -2 -17 -19 -137 -6 -80 rrcurveto
          endchar
        </CharString>
        <CharString name="scircumflex">
          -20 callsubr
          123 -32 callsubr
          95 251 -201 735 -187 248 hintmask 11010100
          -104 callsubr
          hintmask 00101000
          74 1097 -107 callgsubr
        </CharString>
        <CharString name="scommaaccent">
          -94 -26 callsubr
          136 207 668 205 hstemhm
          95 251 61 254 32 248 hintmask 01110100
          -104 callsubr
          hintmask 10001000
          322 -279 rmoveto
          9 -67 2 -58 -52 vvcurveto
          -1 -134 -35 -62 -25 -43 -83 callsubr
          38 23 36 62 129 vvcurveto
          57 -4 47 -12 74 vhcurveto
          endchar
        </CharString>
        <CharString name="section">
          244 -456 229 1349 233 hstemhm
          148 244 -185 253 448 247 -182 242 hintmask 11101000
          242 -35 rmoveto
          11 -306 rlineto
          -63 80 168 -52 145 hhcurveto
          244 265 121 263 96 -49 84 -86 67 hvcurveto
          hintmask 11010100
          118 67 77 104 149 vvcurveto
          148 -146 144 -325 54 vhcurveto
          -176 29 -108 65 70 vvcurveto
          62 90 55 140 181 134 -72 -85 63 vhcurveto
          5 3 38 288 rlineto
          51 -66 -146 48 -156 hhcurveto
          -344 -192 -165 -207 -91 52 -93 93 -74 hvcurveto
          hintmask 11101000
          -123 -68 -81 -104 -153 vvcurveto
          -170 187 -132 265 -47 vhcurveto
          221 -40 87 -51 -70 vvcurveto
          -68 -110 -49 -123 -171 -196 88 106 -63 vhcurveto
          147 498 rmoveto
          67 89 59 86 21 vhcurveto
          hintmask 11100100
          189 -34 217 -63 -86 vvcurveto
          -64 -53 -31 -82 -57 vhcurveto
          -85 13 -361 56 119 vvcurveto
          endchar
        </CharString>
        <CharString name="semicolon">
          -602 450 240 hstem
          145 257 vstem
          137 450 -100 callsubr
          25 -407 rmoveto
          -1 -134 -35 -152 -25 -43 -83 callsubr
          38 23 36 152 129 vvcurveto
          57 -4 47 -12 74 vhcurveto
          -249 -40 rlineto
          9 -67 2 -58 -52 vvcurveto
          endchar
        </CharString>
        <CharString name="seven">
          -89 21 -21 1097 240 -240 244 hstemhm
          285 297 hintmask 10110000
          285 hmoveto
          304 hlineto
          -6 57 -1 34 35 vvcurveto
          185 94 274 199 406 vhcurveto
          172 350 rlineto
          -8 -134 -265 1 -101 hhcurveto
          hintmask 11010000
          -520 3 8 -260 7 -5 rlineto
          16 18 31 9 89 hhcurveto
          492 8 rlineto
          -243 -351 -144 -601 -153 vvcurveto
          endchar
        </CharString>
        <CharString name="six">
          244 -25 231 488 224 207 230 hstem
          119 242 637 256 vstem
          119 601 rmoveto
          -345 193 -281 382 306 254 210 299 268 -186 166 -275 -131 -173 -54 -116 -114 vhcurveto
          211 46 160 166 219 hhcurveto
          107 136 -23 -58 81 hvcurveto
          4 6 -9 246 rlineto
          37 -80 -98 22 -123 hhcurveto
          -486 -213 -373 -381 hvcurveto
          265 -157 rmoveto
          135 44 139 115 195 hhcurveto
          155 81 -101 -117 -169 -139 -101 -173 -155 -103 91 147 -44 hvcurveto
          endchar
        </CharString>
        <CharString name="slash">
          14 callsubr
          -170 vmoveto
          256 hlineto
          599 1700 rlineto
          -256 hlineto
          endchar
        </CharString>
        <CharString name="space">
          -441 endchar
        </CharString>
        <CharString name="sterling">
          239 -25 240 -175 241 295 240 299 2 callsubr
          346 255 -196 255 hintmask 01111000
          232 -26 rmoveto
          84 11 60 13 68 35 rrcurveto
          5 24 20 2 13 hhcurveto
          77 12 -8 -24 143 hvcurveto
          hintmask 10110100
          -16 98 95 -17 47 hhcurveto
          72 74 11 23 56 hvcurveto
          8 260 -6 -1 rlineto
          -36 -45 -66 -17 -126 hhcurveto
          -112 -52 21 10 -62 hvcurveto
          -23 3 -33 6 -34 6 rrcurveto
          25 73 11 76 72 vvcurveto
          37 -2 30 -2 27 vhcurveto
          220 -18 callgsubr
          251 -24 callsubr
          -256 hlineto
          hintmask 10111000
          -5 35 -3 43 58 vvcurveto
          121 77 42 107 75 144 -31 -27 60 vhcurveto
          2 5 36 250 rlineto
          31 -91 -129 12 -90 hhcurveto
          -268 -178 -144 -243 -63 5 -47 7 -42 hvcurveto
          -145 hlineto
          13 -240 rlineto
          175 hlineto
          hintmask 10110100
          2 -28 2 -31 -35 vvcurveto
          -70 -26 -81 -26 -60 vhcurveto
          -67 -9 -72 -14 -32 -20 rrcurveto
          endchar
        </CharString>
        <CharString name="summation">
          248 -173 215 -41 41 1075 215 hstemhm
          206 940 -932 926 hintmask 01110000
          206 7 rmoveto
          hintmask 10101000
          5 -21 3 15 -76 vvcurveto
          -25 -1 -31 -3 -42 vhcurveto
          930 hlineto
          hintmask 01110000
          159 4 34 2 22 vhcurveto
          -568 hlineto
          421 548 -442 527 rlineto
          589 hlineto
          hintmask 01101000
          -2 22 -4 34 159 vvcurveto
          -930 hlineto
          3 -42 1 -26 -46 vvcurveto
          hintmask 01110000
          -28 -3 -33 -5 -21 vhcurveto
          470 -557 rlineto
          endchar
        </CharString>
        <CharString name="t">
          -265 17 callsubr
          hstemhm
          214 245 329 9 hintmask 11011000
          -81 callsubr
          408 275 230 -275 vlineto
          hintmask 10111000
          285 -3 callgsubr
          hintmask 11011000
          -49 callsubr
          hlineto
          endchar
        </CharString>
        <CharString name="tbar">
          -265 6 callsubr
          257 200 138 -1 callsubr
          hstemhm
          62 667 -515 245 329 9 hintmask 11100110
          -81 callsubr
          70 vlineto
          hintmask 11101010
          270 hlineto
          -3 35 -1 7 -29 callgsubr
          46 3 33 vhcurveto
          hintmask 11100110
          -270 138 275 230 -275 hlineto
          hintmask 11010110
          285 -3 callgsubr
          hintmask 11100110
          -49 callsubr
          -138 -158 hlineto
          hintmask 11101010
          3 -25 3 -61 -38 vvcurveto
          -22 -3 -13 -5 -41 vhcurveto
          hintmask 11100110
          160 hlineto
          endchar
        </CharString>
        <CharString name="tcaron">
          -63 17 callsubr
          -387 502 hstemhm
          214 245 329 9 41 234 hintmask 11001100
          -81 callsubr
          408 275 230 -275 vlineto
          hintmask 10101100
          285 -3 callgsubr
          hintmask 11001100
          -49 callsubr
          hlineto
          hintmask 00010010
          614 128 rmoveto
          142 29 23 3 -59 callgsubr
          -229 -41 callgsubr
          5 -115 -20 -34 rrcurveto
          endchar
        </CharString>
        <CharString name="tcommaaccent">
          -265 -26 callsubr
          136 235 595 -1 callsubr
          hstemhm
          214 245 -134 254 209 9 hintmask 01101010
          -81 callsubr
          408 275 230 -275 vlineto
          hintmask 01011010
          285 -3 callgsubr
          hintmask 01101010
          -49 callsubr
          hlineto
          hintmask 10000100
          100 -1006 rmoveto
          9 -67 2 -58 -52 vvcurveto
          -1 -134 -35 -62 -25 -43 -83 callsubr
          38 23 36 62 129 vvcurveto
          57 -4 47 -12 74 vhcurveto
          endchar
        </CharString>
        <CharString name="thorn">
          -364 -21 367 238 615 230 hstem
          162 245 473 245 vstem
          407 19 rmoveto
          -23 50 61 -14 97 hhcurveto
          213 297 192 362 359 -228 170 -251 -81 -81 -19 -41 -77 hvcurveto
          313 vlineto
          68 1 27 3 17 vhcurveto
          -249 -1815 249 -84 callgsubr
          566 vmoveto
          453 vlineto
          55 53 84 34 76 hhcurveto
          77 183 -47 -236 -210 -123 -122 -163 -64 -68 22 51 -55 hvcurveto
          endchar
        </CharString>
        <CharString name="three">
          -25 239 403 219 277 242 hstemhm
          84 8 646 262 -142 255 hintmask 11110100
          86 98 rmoveto
          -84 113 117 -39 196 hhcurveto
          375 226 206 251 166 -91 117 -150 63 hvcurveto
          hintmask 11111000
          74 54 54 91 109 vvcurveto
          209 -203 114 -229 -145 -144 -35 -59 -102 vhcurveto
          12 -256 5 -5 rlineto
          67 67 150 46 120 hhcurveto
          137 70 -62 -63 -51 -30 -67 -59 -36 hvcurveto
          2 -36 -41 0 -30 hhcurveto
          -96 -100 -18 -15 -58 hvcurveto
          -10 -236 6 -7 rlineto
          37 58 111 20 89 hhcurveto
          hintmask 11110100
          147 169 -55 -117 -168 -144 -63 -204 -235 -117 73 90 -66 hvcurveto
          -10 -12 rlineto
          474 444 rmoveto
          42 4 rlineto
          -3 -13 -14 -1 -15 hhcurveto
          endchar
        </CharString>
        <CharString name="threequarters">
          1094 0 363 -220 220 235 199 -121 93 312 10 121 203 hstemhm
          281 506 -186 231 748 245 hintmask 1001000010000000
          564 hmoveto
          -52 callgsubr
          -140 -1143 rmoveto
          hintmask 0101000010000000
          20 -44 rlineto
          386 hlineto
          hintmask 1001000010000000
          -143 245 vlineto
          hintmask 0101000010000000
          -29 callsubr
          96 237 rlineto
          -237 vlineto
          hintmask 0010111000000000
          -1362 308 rmoveto
          -49 65 99 -24 112 hhcurveto
          hintmask 0010110100000000
          -74 callsubr
        </CharString>
        <CharString name="threesuperior">
          -265 598 199 284 10 121 203 hstemhm
          177 506 -186 231 hintmask 11110000
          114 671 rmoveto
          -49 65 99 -24 112 hhcurveto
          hintmask 11101000
          -74 callsubr
        </CharString>
        <CharString name="tilde">
          -229 1173 -41 callsubr
          118 670 hintmask 01100000
          124 1205 -55 callgsubr
          hintmask 10100000
          -93 callsubr
          hintmask 01100000
          -87 callsubr
        </CharString>
        <CharString name="tilde.cap">
          -596 1458 -41 callsubr
          -74 670 hintmask 01100000
          -68 1490 -55 callgsubr
          hintmask 10100000
          -93 callsubr
          hintmask 01100000
          -87 callsubr
        </CharString>
        <CharString name="trademark">
          1099 461 892 hstem
          900 159 204 679 vstem
          412 490 rmoveto
          133 43 -2 -1 20 hvcurveto
          678 124 vlineto
          117 42 -3 -9 9 hvcurveto
          96 2 0 104 -1 hhcurveto
          -16 -15 -18 -6 -90 hhcurveto
          -529 hlineto
          -117 -33 3 8 -25 hvcurveto
          -107 2 -4 -92 1 hhcurveto
          16 15 25 6 90 hhcurveto
          197 -675 hlineto
          659 -5 rmoveto
          132 51 -2 -2 21 hvcurveto
          493 vlineto
          340 -513 339 549 rlineto
          -529 vlineto
          2 33 60 2 111 hhcurveto
          848 vlineto
          -2 -29 -24 0 -36 hhcurveto
          -46 -66 1 4 -32 hvcurveto
          -315 -528 -108 172 -115 183 -107 173 rlinecurve
          -3 -28 -48 -2 -59 hhcurveto
          -24 -10 -1 3 -40 hvcurveto
          endchar
        </CharString>
        <CharString name="two">
          0 230 -216 -21 229 8 893 232 hstemhm
          730 268 hintmask 01111000
          83 -7 rmoveto
          hintmask 10011000
          5 200 150 2 65 hhcurveto
          214 133 -6 -9 147 hvcurveto
          73 273 -7 3 rlineto
          -26 -35 -44 -5 -88 hhcurveto
          -324 hlineto
          381 448 50 152 134 vvcurveto
          200 -120 191 -362 -121 -151 -50 -42 -68 vhcurveto
          -8 -300 13 2 rlineto
          73 47 153 85 136 hhcurveto
          136 77 -64 -97 -82 -31 -92 -146 -188 hvcurveto
          endchar
        </CharString>
        <CharString name="twosuperior">
          -265 612 200 381 212 hstem
          154 489 vstem
          99 604 -68 callsubr
        </CharString>
        <CharString name="u">
          -69 callgsubr
          -27 callgsubr
          376 46 hintmask 10101100
          -84 callsubr
          hintmask 01101100
          -80 callsubr
          hintmask 10101100
          -88 callgsubr
          hintmask 01011100
          -89 callsubr
          endchar
        </CharString>
        <CharString name="uacute">
          -69 callgsubr
          161 313 -27 callgsubr
          -11 489 -102 -94 callsubr
          234 805 -99 callgsubr
        </CharString>
        <CharString name="ubreve">
          -69 callgsubr
          196 181 -27 callgsubr
          -182 10 548 46 99 7 hintmask 1010010100000000
          -84 callsubr
          hintmask 0110010100000000
          -80 callsubr
          hintmask 1010010100000000
          -88 callgsubr
          hintmask 0101010100000000
          -89 callsubr
          hintmask 0000101010000000
          418 840 -102 callsubr
        </CharString>
        <CharString name="ucircumflex">
          -69 callgsubr
          159 331 -27 callgsubr
          -194 735 -165 -94 callsubr
          54 800 -107 callgsubr
        </CharString>
        <CharString name="udieresis">
          -69 callgsubr
          161 240 -27 callgsubr
          -166 -48 callgsubr
          -145 46 hintmask 1010010010000000
          -84 callsubr
          hintmask 0110010010000000
          -80 callsubr
          hintmask 1010010010000000
          -88 callgsubr
          hintmask 0101010010000000
          -89 callsubr
          hintmask 0000101100000000
          501 805 -106 callsubr
        </CharString>
        <CharString name="ugrave">
          -69 callgsubr
          161 313 -27 callgsubr
          -131 489 18 -94 callsubr
          377 805 rmoveto
          -93 callgsubr
        </CharString>
        <CharString name="uhungarumlaut">
          -69 callgsubr
          161 313 -27 callgsubr
          -149 804 -279 -94 callsubr
          481 805 -86 callgsubr
        </CharString>
        <CharString name="umacron">
          -69 callgsubr
          -27 callgsubr
          376 46 hintmask 10101100
          -84 callsubr
          hintmask 01101100
          -80 callsubr
          hintmask 10101100
          -88 callgsubr
          hintmask 01011100
          -89 callsubr
          hintmask 00000000
          81 968 rmoveto
          -96 callsubr
        </CharString>
        <CharString name="underscore">
          233 -334 160 hstem
          -29 1413 vstem
          -29 -174 rmoveto
          -160 1413 160 vlineto
          endchar
        </CharString>
        <CharString name="uni0001">
          -15 callgsubr
        </CharString>
        <CharString name="uni0002">
          -15 callgsubr
        </CharString>
        <CharString name="uni0003">
          -15 callgsubr
        </CharString>
        <CharString name="uni0004">
          -15 callgsubr
        </CharString>
        <CharString name="uni0005">
          -15 callgsubr
        </CharString>
        <CharString name="uni0006">
          -15 callgsubr
        </CharString>
        <CharString name="uni0007">
          -15 callgsubr
        </CharString>
        <CharString name="uni0008">
          -15 callgsubr
        </CharString>
        <CharString name="uni0009">
          -15 callgsubr
        </CharString>
        <CharString name="uni0010">
          -15 callgsubr
        </CharString>
        <CharString name="uni0011">
          -15 callgsubr
        </CharString>
        <CharString name="uni0012">
          -15 callgsubr
        </CharString>
        <CharString name="uni0013">
          -15 callgsubr
        </CharString>
        <CharString name="uni0014">
          -15 callgsubr
        </CharString>
        <CharString name="uni0015">
          -15 callgsubr
        </CharString>
        <CharString name="uni0016">
          -15 callgsubr
        </CharString>
        <CharString name="uni0017">
          -15 callgsubr
        </CharString>
        <CharString name="uni0018">
          -15 callgsubr
        </CharString>
        <CharString name="uni0019">
          -15 callgsubr
        </CharString>
        <CharString name="uni00AD">
          109 endchar
        </CharString>
        <CharString name="uni1E02">
          14 callgsubr
          119 340 13 callgsubr
          80 340 -113 262 -107 254 hintmask 11101001
          -27 callsubr
          hintmask 11101010
          -61 callsubr
          hintmask 11101001
          -4 callsubr
          hintmask 00010100
          281 1265 -4 callgsubr
          endchar
        </CharString>
        <CharString name="uni1E03">
          67 6 callsubr
          615 230 127 340 -27 callgsubr
          136 340 -3 245 hintmask 11010100
          -67 callsubr
          hintmask 00101000
          337 796 -4 callgsubr
          endchar
        </CharString>
        <CharString name="uni1E0A">
          -21 callsubr
          1110 244 119 -9 callgsubr
          191 260 99 340 79 -70 callsubr
          300 1255 -4 callgsubr
          endchar
        </CharString>
        <CharString name="uni1E0B">
          77 4 callsubr
          127 -9 callgsubr
          88 242 10 340 131 245 hintmask 11010100
          -87 callgsubr
          hintmask 00101000
          211 658 -4 callgsubr
          endchar
        </CharString>
        <CharString name="uni1E1E">
          19 callgsubr
          136 -9 callgsubr
          172 274 -42 340 hintmask 11101000
          -64 callgsubr
          hintmask 00010100
          433 137 -4 callgsubr
          endchar
        </CharString>
        <CharString name="uni1E1F">
          -436 -22 callgsubr
          -40 -9 callgsubr
          33 340 -221 245 hintmask 11100100
          -94 callgsubr
          hintmask 00011000
          82 793 -4 callgsubr
          endchar
        </CharString>
        <CharString name="uni1E40">
          419 15 -21 27 -58 callgsubr
          156 -9 callgsubr
          177 265 157 340 158 265 hintmask 01101010
          177 hmoveto
          80 hlineto
          hintmask 10101010
          -8 callsubr
          hintmask 01101010
          -47 callgsubr
          hintmask 00010100
          623 140 -4 callgsubr
          endchar
        </CharString>
        <CharString name="uni1E41">
          590 -20 callgsubr
          -20 -20 167 -9 callgsubr
          164 253 318 340 -323 246 316 253 hintmask 0110010110000000
          -26 callgsubr
          hintmask 1001010110000000
          -542 vlineto
          hintmask 0110010110000000
          -38 callgsubr
          hintmask 1001010110000000
          -541 vlineto
          hintmask 0101010110000000
          4 71 54 -60 callgsubr
          hintmask 1010010110000000
          -47 callsubr
          hintmask 0101010110000000
          90 -253 vlineto
          hintmask 0000101000000000
          772 147 -4 callgsubr
          endchar
        </CharString>
        <CharString name="uni1E56">
          18 callgsubr
          119 -9 callgsubr
          153 255 -65 340 54 256 hintmask 11101010
          -63 callsubr
          hintmask 00010100
          136 888 -4 callgsubr
          endchar
        </CharString>
        <CharString name="uni1E57">
          -364 -21 367 227 638 218 -20 -20 167 -9 callgsubr
          162 245 69 340 64 250 hintmask 11100101
          -35 callgsubr
          hintmask 11010101
          -9 callsubr
          hintmask 11100101
          -17 callsubr
          hintmask 00001010
          270 919 -4 callgsubr
          endchar
        </CharString>
        <CharString name="uni1E60">
          -12 callsubr
          119 -9 callgsubr
          130 254 42 340 72 256 hintmask 11010100
          -101 callsubr
          hintmask 00101000
          488 1048 -4 callgsubr
          endchar
        </CharString>
        <CharString name="uni1E61">
          -20 callsubr
          127 -9 callgsubr
          95 251 -4 340 11 248 hintmask 11010100
          -104 callsubr
          hintmask 00101000
          469 1104 -4 callgsubr
          endchar
        </CharString>
        <CharString name="uni1E6A">
          -7 callgsubr
          139 -9 callgsubr
          343 340 -310 279 hintmask 11010010
          -82 callsubr
          hintmask 10100010
          -30 callgsubr
          hintmask 11010010
          -19 callsubr
          hlineto
          hintmask 00001100
          171 368 -4 callgsubr
          endchar
        </CharString>
        <CharString name="uni1E6B">
          -265 17 callsubr
          32 -9 callgsubr
          161 340 -287 245 329 9 hintmask 11000110
          -81 callsubr
          408 275 230 -275 vlineto
          hintmask 10100110
          285 -3 callgsubr
          hintmask 11000110
          -49 callsubr
          hlineto
          hintmask 00011000
          148 547 -4 callgsubr
          endchar
        </CharString>
        <CharString name="uogonek">
          9 callgsubr
          308 235 -223 112 -88 -46 callsubr
          24 -20 -27 callgsubr
          116 245 15 46 hintmask 1100101110000000
          152 385 rmoveto
          -243 123 -157 219 57 51 9 21 50 vhcurveto
          -103 -87 -36 -94 -80 vvcurveto
          -234 237 -75 196 vhcurveto
          74 243 -2 5 rlineto
          -13 -19 -19 -3 -21 hhcurveto
          -82 -119 11 94 hvcurveto
          hintmask 1010101110000000
          101 108 114 151 vhcurveto
          hintmask 1001101110000000
          -2 3 rlineto
          14 -24 callgsubr
          917 -248 -739 vlineto
          hintmask 1100101110000000
          -88 callgsubr
          hintmask 1010011110000000
          -89 callsubr
          endchar
        </CharString>
        <CharString name="uring">
          -69 callgsubr
          151 -11 callgsubr
          -27 callgsubr
          -106 -11 callsubr
          -76 46 hintmask 1010001001000000
          -84 callsubr
          hintmask 0110001001000000
          -80 callsubr
          hintmask 1010001001000000
          -88 callgsubr
          hintmask 0101001001000000
          -89 callsubr
          hintmask 0000110110000000
          410 795 -91 callgsubr
        </CharString>
        <CharString name="utilde">
          -69 callgsubr
          144 -41 callsubr
          152 245 -163 670 -131 46 hintmask 1010001010000000
          -84 callsubr
          hintmask 0110001010000000
          -80 callsubr
          hintmask 1010001010000000
          -88 callgsubr
          hintmask 0101001010000000
          -89 callsubr
          hintmask 0000010100000000
          88 820 -55 callgsubr
          hintmask 0000100100000000
          -93 callsubr
          hintmask 0000010100000000
          -87 callsubr
        </CharString>
        <CharString name="v">
          -89 -33 callsubr
          hstem
          -4 1040 vstem
          417 hmoveto
          206 hlineto
          413 1045 rlineto
          -277 hlineto
          -236 -688 -244 688 rlineto
          -283 hlineto
          endchar
        </CharString>
        <CharString name="w">
          415 -33 callsubr
          hstem
          7 1520 vstem
          -90 callsubr
          endchar
        </CharString>
        <CharString name="wacute">
          415 21 -21 -35 callsubr
          7 1520 -944 489 hintmask 11010000
          -90 callsubr
          hintmask 00101000
          576 145 -99 callgsubr
        </CharString>
        <CharString name="wcircumflex">
          415 -33 callsubr
          163 -32 callsubr
          7 1520 -1127 735 hintmask 11010000
          -90 callsubr
          hintmask 00101000
          396 140 -107 callgsubr
        </CharString>
        <CharString name="wdieresis">
          415 22 callgsubr
          7 1520 -1099 -48 callgsubr
          hintmask 11010000
          -90 callsubr
          hintmask 00101100
          843 145 -106 callsubr
        </CharString>
        <CharString name="wgrave">
          415 21 -21 -35 callsubr
          7 1520 -1064 489 hintmask 11010000
          -90 callsubr
          hintmask 00101000
          719 145 rmoveto
          -93 callgsubr
        </CharString>
        <CharString name="x">
          -89 0 406 -385 -21 668 377 0 -20 hstem
          10 1021 vstem
          10 hmoveto
          313 hlineto
          198 339 200 -339 rlineto
          310 hlineto
          -370 551 rlineto
          101 71 275 393 2 hhcurveto
          -291 hlineto
          -200 -319 -185 319 rlineto
          -313 hlineto
          354 -512 rlineto
          endchar
        </CharString>
        <CharString name="y">
          -95 -25 callgsubr
          hstem
          27 1031 vstem
          -91 callsubr
          endchar
        </CharString>
        <CharString name="yacute">
          -95 -35 callsubr
          27 1031 -673 489 hintmask 10100000
          -91 callsubr
          hintmask 01010000
          329 1532 -99 callgsubr
        </CharString>
        <CharString name="ycircumflex">
          -95 -25 callgsubr
          163 -32 callsubr
          27 1031 -856 735 hintmask 10100000
          -91 callsubr
          hintmask 01010000
          149 1527 -107 callgsubr
        </CharString>
        <CharString name="ydieresis">
          -95 -25 callgsubr
          165 2 callsubr
          27 1031 -828 -48 callgsubr
          hintmask 10100000
          -91 callsubr
          hintmask 01011000
          596 1532 -106 callsubr
        </CharString>
        <CharString name="yen">
          415 0 566 -196 196 94 196 hstemhm
          675 255 hintmask 01110000
          324 370 rmoveto
          351 -188 hlineto
          hintmask 10110000
          -113 -4 -45 -9 -24 vhcurveto
          280 hlineto
          -11 52 -1 63 43 vvcurveto
          hintmask 01110000
          212 204 vlineto
          43 48 -68 callgsubr
          207 vlineto
          -85 callsubr
          -202 94 214 hlineto
          43 40 -68 callgsubr
          207 vlineto
          -85 callsubr
          -83 hlineto
          159 244 93 152 48 70 15 8 rlinecurve
          -310 hlineto
          2 -14 -20 -44 -24 -42 -218 -368 rcurveline
          -221 368 -33 51 -15 31 -4 18 rlinecurve
          -355 hlineto
          58 -45 51 -53 96 -138 168 -238 rcurveline
          -217 -196 351 -94 -351 hlineto
          endchar
        </CharString>
        <CharString name="ygrave">
          -95 -35 callsubr
          27 1031 -793 489 hintmask 10100000
          -91 callsubr
          hintmask 01010000
          472 1532 rmoveto
          -93 callgsubr
        </CharString>
        <CharString name="z">
          -6 callgsubr
          -121 121 hstem
          56 934 vstem
          -81 callgsubr
          endchar
        </CharString>
        <CharString name="zacute">
          -6 callgsubr
          145 -39 callgsubr
          56 934 -662 489 hintmask 11110000
          -81 callgsubr
          hintmask 11101000
          272 1205 -99 callgsubr
        </CharString>
        <CharString name="zcaron">
          -6 callgsubr
          140 -32 callsubr
          56 934 -845 735 hintmask 11110000
          56 -15 rmoveto
          11 140 183 4 98 hhcurveto
          98 232 -7 -8 117 hvcurveto
          66 240 rlineto
          -20 -27 -59 -5 -33 hhcurveto
          -393 hlineto
          510 845 rlineto
          -845 hlineto
          hintmask 11101000
          1 -30 1 6 -54 vvcurveto
          -43 -1 -49 -3 -52 vhcurveto
          18 54 83 8 53 hhcurveto
          248 hlineto
          hintmask 11110000
          -121 -205 -357 -597 -45 -62 rrcurveto
          331 1200 rmoveto
          2 21 71 1 25 hhcurveto
          21 85 -2 -1 15 hvcurveto
          hintmask 11101000
          -30 callsubr
          -4 3 rlineto
          -1 -40 -118 -2 -97 hhcurveto
          -113 -177 -97 177 rlineto
          -122 -99 1 2 -42 hvcurveto
          -3 -3 rlineto
          endchar
        </CharString>
        <CharString name="zdotaccent">
          -6 callgsubr
          147 -9 callgsubr
          56 934 -648 340 hintmask 11110000
          -81 callgsubr
          487 1207 rmoveto
          hintmask 11101000
          -97 callgsubr
          endchar
        </CharString>
        <CharString name="zero">
          244 -25 235 911 234 hstem
          106 255 641 255 vstem
          106 643 rmoveto
          -395 246 -273 319 307 279 222 482 398 -210 278 -339 -351 -251 -300 -412 vhcurveto
          588 -433 rmoveto
          -192 -141 174 268 278 134 191 193 193 121 -180 -284 -296 -162 -151 -146 hvcurveto
          endchar
        </CharString>
      <CharString index="0">
        rmoveto
        2 42 99 1 122 hhcurveto
        97 177 113 -177 rlineto
        97 118 -2 -1 40 hvcurveto
        4 3 -255 331 rlineto
        -1 -15 -85 -2 -21 hhcurveto
        -25 -71 1 2 -21 hvcurveto
        -242 -331 rlineto
        endchar
      </CharString>
      <CharString index="1">
        97 516 rmoveto
        -314 251 -217 336 123 152 33 45 67 vhcurveto
        9 115 4 62 3 65 rrcurveto
        -35 -41 -123 -50 -154 hhcurveto
        -202 -131 84 142 -35 hvcurveto
        -1 84 174 1 94 hhcurveto
        186 155 10 18 66 hvcurveto
        6 16 6 41 51 vvcurveto
        270 -181 213 -288 -340 -221 -242 -307 vhcurveto
        262 120 rmoveto
        129 35 99 90 134 hhcurveto
        143 67 -90 -125 24 hvcurveto
        -4 -69 -111 -3 -61 hhcurveto
        -60 -136 0 3 -65 hvcurveto
        return
      </CharString>
      <CharString index="2">
        24 -39 31 -28 37 -20 181 166 rcurveline
        -54 28 -28 47 83 vvcurveto
        362 vlineto
        252 -157 152 -289 -139 -147 -39 -54 -101 vhcurveto
        30 -221 3 -2 rlineto
        53 56 154 49 106 hhcurveto
        151 79 -43 -153 8 hvcurveto
        -16 2 -22 1 -16 1 rrcurveto
        -393 12 -207 -166 -189 vvcurveto
        260 7 rmoveto
        87 104 81 241 -12 vhcurveto
        20 -1 16 -1 14 -2 rrcurveto
        -185 vlineto
        -16 0 -16 1 -15 vhcurveto
        return
      </CharString>
      <CharString index="3">
        172 hmoveto
        749 13 callsubr
        -408 360 248 hlineto
        -96 callgsubr
        -237 255 315 hlineto
        83 29 -4 -11 36 hvcurveto
        2 3 rlineto
        -1 4 -1 10 10 vvcurveto
        42 4 128 7 65 vhcurveto
        -7 -185 -156 -1 -126 hhcurveto
        -84 -112 3 4 -72 hvcurveto
        return
      </CharString>
      <CharString index="4">
        hintmask 1110100001000000
        229 -20 rmoveto
        -111 -61 -56 -102 4 -138 rrcurveto
        -240 6 220 -155 330 hhcurveto
        326 170 132 240 225 -115 136 -332 52 hvcurveto
        hintmask 1110001010000000
        -262 41 -30 32 48 vvcurveto
        22 12 33 25 33 vhcurveto
        -19 56 62 -10 66 hhcurveto
        279 178 191 224 69 -15 62 -28 54 hvcurveto
        58 11 62 20 35 37 -4 29 -45 180 -19 53 -6 1 rcurveline
        -46 -50 -122 -64 -101 -43 rrcurveto
        27 -62 -71 15 -79 hhcurveto
        hintmask 1110010010000000
        -296 -182 -194 -230 -108 42 -91 71 -67 hvcurveto
        hintmask 1110001010000000
        -58 -46 -39 -65 -77 vvcurveto
        -88 16 -69 61 -50 vhcurveto
        hintmask 1110010010000000
        147 673 rmoveto
        105 73 93 154 133 81 -75 -118 -112 -101 -83 -104 -153 -83 97 93 vhcurveto
        hintmask 1110100001000000
        -63 -959 rmoveto
        -1 78 40 80 88 46 52 -9 rcurveline
        306 -44 82 -74 1 -103 rrcurveto
        -92 1 -52 -80 -195 hhcurveto
        -197 -124 91 107 -1 hvcurveto
        return
      </CharString>
      <CharString index="5">
        85 637 rmoveto
        -395 298 -267 375 368 324 284 420 437 -317 239 -350 -426 -272 -337 -381 vhcurveto
        278 11 rmoveto
        246 139 216 261 268 139 -214 -239 -273 -159 -159 -230 -243 -175 174 249 vhcurveto
        return
      </CharString>
      <CharString index="6">
        71 512 rmoveto
        -279 174 -248 355 339 197 249 299 302 -192 230 -331 -335 -207 -247 -306 vhcurveto
        243 17 rmoveto
        152 93 159 190 184 99 -138 -180 -179 -98 -134 -169 -183 -116 135 185 vhcurveto
        return
      </CharString>
      <CharString index="7">
        rmoveto
        2 21 71 1 25 hhcurveto
        21 85 -2 -1 15 hvcurveto
        -30 callsubr
        -4 3 rlineto
        -1 -40 -118 -2 -97 hhcurveto
        -113 -177 -97 177 rlineto
        -122 -99 1 2 -42 hvcurveto
        -3 -3 rlineto
        endchar
      </CharString>
      <CharString index="8">
        rmoveto
        -5 callsubr
        262 323 1 7 rlineto
        -10 -106 -65 -7 -149 hhcurveto
        endchar
      </CharString>
      <CharString index="9">
        373 1 callgsubr
        82 0 31 hhcurveto
        59 53 -2 -2 20 hvcurveto
        2 3 rlineto
        -2 5 -2 5 6 vvcurveto
        2 48 1 21 50 199 156 620 rcurveline
        164 -623 rlineto
        47 -233 1 -9 -21 vvcurveto
        -7 -1 -5 -3 -5 vhcurveto
        -33 callgsubr
        62 0 31 hhcurveto
        59 80 -2 -2 20 hvcurveto
        2 3 rlineto
        -2 5 -2 5 6 vvcurveto
        48 3 25 58 195 vhcurveto
        hintmask 11010000
        288 1055 rlineto
        -5 -13 -36 -3 -56 hhcurveto
        -79 -51 2 2 -40 hvcurveto
        -201 -901 -234 905 rlineto
        -6 -44 -40 -2 -46 hhcurveto
        -49 -16 2 2 -40 hvcurveto
        -230 -901 -236 905 rlineto
        -4 -13 -39 -4 -53 hhcurveto
        -79 -47 1 3 -42 hvcurveto
        303 -1054 rlineto
        return
      </CharString>
      <CharString index="10">
        52 77 33 45 54 67 -191 151 rcurveline
        -41 -45 -59 -73 -49 -78 rrcurveto
        return
      </CharString>
      <CharString index="11">
        -89 callgsubr
        -5 -20 -38 -1 -74 hhcurveto
        return
      </CharString>
      <CharString index="12">
        52 659 rmoveto
        -395 227 -289 417 174 137 43 84 101 vhcurveto
        280 vlineto
        -3 2 rlineto
        -114 -80 -153 -39 -148 hhcurveto
        -197 -196 107 339 259 121 169 291 142 150 -45 -78 50 hvcurveto
        2 2 rlineto
        306 vlineto
        41 -83 -113 24 -142 hhcurveto
        -444 -253 -269 -427 hvcurveto
        return
      </CharString>
      <CharString index="13">
        152 hmoveto
        -92 callgsubr
        return
      </CharString>
      <CharString index="14">
        -5 callsubr
        -169 313 rlineto
        -149 -65 7 10 -106 hvcurveto
        1 -7 rlineto
        endchar
      </CharString>
      <CharString index="15">
        245 696 241 88 hlineto
        86 4 46 4 14 vhcurveto
        -249 97 hlineto
        165 71 107 123 52 36 -17 -21 21 vhcurveto
        2 5 -1 251 rlineto
        8 -19 -69 4 -27 hhcurveto
        -280 -154 -225 -312 hvcurveto
        -62 -143 vlineto
        1 -1 -5 -233 0 vvcurveto
        147 hlineto
        return
      </CharString>
      <CharString index="16">
        rmoveto
        170 117 91 148 133 -109 104 -162 -185 -102 -102 -140 -147 113 -87 158 hvcurveto
        9 141 rmoveto
        -81 -40 47 51 48 35 53 82 81 39 -53 -47 -55 -54 -44 -62 hvcurveto
        endchar
      </CharString>
      <CharString index="17">
        181 hmoveto
        261 801 hlineto
        522 -801 rlineto
        208 1242 hlineto
        38 3 29 2 21 vhcurveto
        -270 hlineto
        6 -8 4 -24 -36 vvcurveto
        -766 vlineto
        -530 834 rlineto
        -200 -1256 hlineto
        -32 -2 -20 -4 -22 vhcurveto
        return
      </CharString>
      <CharString index="18">
        43 42 -82 callgsubr
        return
      </CharString>
      <CharString index="19">
        -66 -55 -65 -20 -70 hhcurveto
        -106 -80 45 204 hvcurveto
        579 vlineto
        -4 -71 -46 1 -12 hhcurveto
        return
      </CharString>
      <CharString index="20">
        88 509 rmoveto
        -299 197 -225 317 72 100 20 51 90 vhcurveto
        22 -30 28 -23 34 -18 188 166 rcurveline
        -65 46 -15 44 180 vvcurveto
        1069 -245 -445 vlineto
        13 -48 -53 7 -50 hhcurveto
        -337 -235 -242 -314 hvcurveto
        242 25 rmoveto
        173 128 123 191 63 53 -10 -19 46 vhcurveto
        -526 vlineto
        -28 vlineto
        -23 -49 -53 -9 -57 hhcurveto
        -214 -108 136 183 hvcurveto
        return
      </CharString>
      <CharString index="21">
        rmoveto
        156 hlineto
        262 323 1 7 rlineto
        -10 -106 -75 -7 -69 hhcurveto
        -554 -313 rmoveto
        136 hlineto
        262 323 1 7 rlineto
        -10 -106 -55 -7 -69 hhcurveto
        endchar
      </CharString>
      <CharString index="22">
        92 hmoveto
        673 hlineto
        183 15 -3 -12 114 hvcurveto
        279 vlineto
        -18 -40 -20 -6 -148 hhcurveto
        -363 hlineto
        582 1090 rlineto
        -948 hlineto
        4 -75 -1 -11 -34 vvcurveto
        -52 -6 -61 -6 -28 vhcurveto
        11 28 65 10 155 hhcurveto
        315 hlineto
        return
      </CharString>
      <CharString index="23">
        hlineto
        -3 17 -1 27 68 vvcurveto
        return
      </CharString>
      <CharString index="24">
        2 4 -8 10 -14 10 -5 34 rlinecurve
        -7 49 1 129 431 vvcurveto
        243 return
      </CharString>
      <CharString index="25">
        -68 callgsubr
        -3 247 rlineto
        return
      </CharString>
      <CharString index="26">
        56 -15 rmoveto
        11 140 183 4 98 hhcurveto
        98 232 -7 -8 117 hvcurveto
        66 240 rlineto
        -20 -27 -59 -5 -33 hhcurveto
        -393 hlineto
        510 845 rlineto
        -845 hlineto
        1 -30 1 6 -54 vvcurveto
        -43 -1 -49 -3 -52 vhcurveto
        18 54 83 8 53 hhcurveto
        248 hlineto
        -121 -205 -357 -597 -45 -62 rrcurveto
        return
      </CharString>
      <CharString index="27">
        128 316 rmoveto
        -216 163 -115 278 88 99 33 44 81 vhcurveto
        return
      </CharString>
      <CharString index="28">
        -21 callsubr
        547 236 327 244 hstemhm
        92 659 -560 260 518 273 hintmask 01110110
        191 1 rmoveto
        hintmask 10110110
        -76 callsubr
        -555 vlineto
        hintmask 01111010
        -99 -236 hlineto
        hintmask 01110110
        99 hlineto
        260 -329 rmoveto
        329 vlineto
        hintmask 01111010
        300 236 hlineto
        hintmask 10110110
        -300 326 hlineto
        1 21 20 0 17 hhcurveto
        302 158 -139 -328 -303 -179 -134 -230 -33 -40 5 7 -36 hvcurveto
        endchar
      </CharString>
      <CharString index="29">
        138 -45 callsubr
        616 vlineto
        62 40 64 42 55 hhcurveto
        61 61 -18 -44 23 hvcurveto
        4 3 18 269 rlineto
        14 -35 -56 9 -53 hhcurveto
        -68 -65 -41 -56 -49 hvcurveto
        return
      </CharString>
      <CharString index="30">
        254 -84 callgsubr
        return
      </CharString>
      <CharString index="31">
        255 hintmask 01110101
        -72 callsubr
        hintmask 10110101
        -79 callsubr
        hintmask 01110101
        -73 callgsubr
        hintmask 00001010
        return
      </CharString>
      <CharString index="32">
        167 hmoveto
        251 -24 callgsubr
        571 vlineto
        93 61 76 43 84 hhcurveto
        105 73 -79 -214 hvcurveto
        return
      </CharString>
      <CharString index="33">
        rmoveto
        -73 88 81 -25 115 hhcurveto
        244 173 166 301 hvcurveto
        896 vlineto
        -5 -32 -43 -3 -51 hhcurveto
        -57 -16 1 4 -66 hvcurveto
        -901 vlineto
        -129 -52 -91 -138 -112 -71 62 88 -56 vhcurveto
        -7 -2 rlineto
        return
      </CharString>
      <CharString index="34">
        265 -605 rmoveto
        382 vlineto
        3 25 24 2 21 hhcurveto
        208 97 -43 -145 -148 -107 -58 -139 -30 -52 1 6 -47 hvcurveto
        return
      </CharString>
      <CharString index="35">
        -29 -53 -62 -20 -57 hhcurveto
        -167 -57 38 91 hvcurveto
        return
      </CharString>
      <CharString index="36">
        196 vhcurveto
        104 243 -2 5 rlineto
        -13 -19 -19 -3 -21 hhcurveto
        -82 return
      </CharString>
      <CharString index="37">
        249 40 rlineto
        -5 66 -1 59 52 vvcurveto
        1 130 15 135 20 34 -6 6 rcurveline
        -142 -29 -63 -23 -30 -18 rrcurveto
        -30 -18 -19 -132 -144 vvcurveto
        -30 3 -53 8 -75 vhcurveto
        return
      </CharString>
      <CharString index="38">
        6 callsubr
        -199 -46 callsubr
        24 -20 return
      </CharString>
      <CharString index="39">
        -1 -4 39 hvcurveto
        return
      </CharString>
      <CharString index="40">
        6 -21 36 -46 callsubr
        hstemhm
        162 245 hintmask 01110000
        162 hmoveto
        252 hlineto
        -3 17 -4 47 68 vvcurveto
        107 vlineto
        190 202 rlineto
        hintmask 10110000
        312 -456 rlineto
        hintmask 01110000
        7 28 40 8 83 hhcurveto
        158 hlineto
        -52 57 -116 169 -58 97 -225 307 rcurveline
        394 415 rlineto
        -297 hlineto
        -457 -491 rlineto
        return
      </CharString>
      <CharString index="41">
        804 rmoveto
        -420 325 -269 439 419 347 301 401 420 -372 232 -387 6 vhcurveto
        -378 5 -393 -211 -465 vvcurveto
        235 -10 rmoveto
        276 194 206 334 323 209 -203 -282 -256 -196 -200 -339 -313 -212 212 247 vhcurveto
        return
      </CharString>
      <CharString index="42">
        -94 0 240 360 236 255 247 return
      </CharString>
      <CharString index="43">
        172 hmoveto
        274 580 303 hlineto
        -96 callgsubr
        -292 275 -16 callgsubr
        -7 -185 -172 -1 -126 hhcurveto
        -84 -125 3 4 -72 hvcurveto
        return
      </CharString>
      <CharString index="44">
        -35 -42 -116 -71 -159 hhcurveto
        -219 -131 84 143 -35 hvcurveto
        -1 87 188 0 94 hhcurveto
        191 158 12 18 68 hvcurveto
        4 16 8 39 51 vvcurveto
        286 -211 197 -268 -170 -139 -54 -95 -98 vhcurveto
        94 -74 -119 55 -150 hhcurveto
        -131 -115 -38 -75 -95 hvcurveto
        return
      </CharString>
      <CharString index="45">
        -71 callsubr
        661 hlineto
        -96 callgsubr
        -639 hlineto
        -61 callgsubr
        return
      </CharString>
      <CharString index="46">
        -74 -38 1 5 -20 hvcurveto
        return
      </CharString>
      <CharString index="47">
        -1 12 hhcurveto
        55 62 -4 -3 30 hvcurveto
        return
      </CharString>
      <CharString index="48">
        30 18 rrcurveto
        30 18 19 132 144 vvcurveto
        30 -3 53 -8 75 vhcurveto
        return
      </CharString>
      <CharString index="49">
        -21 1338 -20 return
      </CharString>
      <CharString index="50">
        190 -144 180 -254 -283 -136 -197 -181 return
      </CharString>
      <CharString index="51">
        5 35 76 3 152 hhcurveto
        61 hlineto
        -13 16 -14 21 -18 43 -380 754 rcurveline
        386 504 rlineto
        -5 -29 -68 -3 -50 hhcurveto
        -26 -94 1 3 -43 hvcurveto
        -405 -561 rlineto
        565 vlineto
        -4 -17 -54 -4 -52 hhcurveto
        -20 -58 1 3 -54 hvcurveto
        return
      </CharString>
      <CharString index="52">
        rmoveto
        43 41 48 32 78 hhcurveto
        return
      </CharString>
      <CharString index="53">
        90 72 82 126 130 72 -86 -83 -92 -75 -80 -120 return
      </CharString>
      <CharString index="54">
        21 -58 callgsubr
        return
      </CharString>
      <CharString index="55">
        245 hlineto
        750 1330 rlineto
        -245 hlineto
        return
      </CharString>
      <CharString index="56">
        rmoveto
        211 hlineto
        3 132 4 165 8 107 5 49 rlinecurve
        -251 hlineto
        6 -55 5 -96 5 -169 rrcurveto
        return
      </CharString>
      <CharString index="57">
        62 -228 5 -14 -1 -21 rrcurveto
        -7 -1 -5 -3 -5 vhcurveto
        return
      </CharString>
      <CharString index="58">
        -71 callgsubr
        -99 25 85 return
      </CharString>
      <CharString index="59">
        257 173 257 return
      </CharString>
      <CharString index="60">
        2 22 84 4 79 hhcurveto
        80 1334 hlineto
        -3 -42 -26 -1 -46 hhcurveto
        -55 -86 3 5 -21 hvcurveto
        -323 -571 -336 571 rlineto
        -5 -21 -55 -3 -76 hhcurveto
        -25 -31 1 3 -42 hvcurveto
        return
      </CharString>
      <CharString index="61">
        -61 callgsubr
        -3 -247 20 callgsubr
        return
      </CharString>
      <CharString index="62">
        -249 -40 rlineto
        5 -66 1 -59 -52 vvcurveto
        -36 callgsubr
        return
      </CharString>
      <CharString index="63">
        -1 -74 hhcurveto
        return
      </CharString>
      <CharString index="64">
        -716 212 753 214 388 214 return
      </CharString>
      <CharString index="65">
        77 21 -17 callgsubr
        return
      </CharString>
      <CharString index="66">
        -59 callsubr
        -1 -130 return
      </CharString>
      <CharString index="67">
        43 42 -68 callgsubr
        return
      </CharString>
      <CharString index="68">
        313 hstemhm
        return
      </CharString>
      <CharString index="69">
        4 71 47 -1 12 hhcurveto
        128 hlineto
        -8 104 -4 67 489 vvcurveto
        11 0 11 -1 10 vhcurveto
        99 59 43 39 87 hhcurveto
        86 42 -72 -220 hvcurveto
        return
      </CharString>
      <CharString index="70">
        152 245 return
      </CharString>
      <CharString index="71">
        -6 callsubr
        6 -6 rcurveline
        -44 callsubr
        return
      </CharString>
      <CharString index="72">
        407 21 rmoveto
        -24 56 73 -15 99 hhcurveto
        213 282 182 372 369 -223 160 -251 -91 -78 -30 -55 -80 hvcurveto
        return
      </CharString>
      <CharString index="73">
        240 -225 -21 225 21 return
      </CharString>
      <CharString index="74">
        1 -2 rlineto
        2 29 return
      </CharString>
      <CharString index="75">
        hmoveto
        -92 callsubr
        return
      </CharString>
      <CharString index="76">
        90 108 69 181 19 16 -1 -2 13 vhcurveto
        -100 20 -76 38 -65 vhcurveto
        -49 -58 -73 -23 -76 hhcurveto
        -121 -67 62 95 hvcurveto
        return
      </CharString>
      <CharString index="77">
        -3 -3 rlineto
        -256 vlineto
        3 -1 rlineto
        return
      </CharString>
      <CharString index="78">
        42 vvcurveto
        37 1 return
      </CharString>
      <CharString index="79">
        -21 28 -21 515 210 394 236 return
      </CharString>
      <CharString index="80">
        hstemhm
        -37 callgsubr
        return
      </CharString>
</ttFont>
